<REAPER_PROJECT 0.1 "6.28/win64" 1623940057
  RIPPLE 0
  GROUPOVERRIDE 0 0 0
  AUTOXFADE 1
  ENVATTACH 1
  POOLEDENVATTACH 0
  MIXERUIFLAGS 11 48
  PEAKGAIN 1
  FEEDBACK 0
  PANLAW 1
  PROJOFFS 0 0 0
  MAXPROJLEN 0 600
  GRID 3199 8 1 8 1 0 0 0
  TIMEMODE 1 5 -1 30 0 0 -1
  VIDEO_CONFIG 0 0 256
  PANMODE 3
  CURSOR 45
  ZOOM 6.49054715231343 0 0
  VZOOMEX 6 264
  USE_REC_CFG 0
  RECMODE 1
  SMPTESYNC 0 30 100 40 1000 300 0 0 1 0 0
  LOOP 0
  LOOPGRAN 0 4
  RECORD_PATH "" ""
  <RECORD_CFG
    ZXZhdxgAAA==
  >
  <APPLYFX_CFG
  >
  RENDER_FILE ""
  RENDER_PATTERN ""
  RENDER_FMT 0 2 0
  RENDER_1X 0
  RENDER_RANGE 1 0 0 18 1000
  RENDER_RESAMPLE 3 0 1
  RENDER_ADDTOPROJ 0
  RENDER_STEMS 0
  RENDER_DITHER 0
  TIMELOCKMODE 0
  TEMPOENVLOCKMODE 0
  ITEMMIX 0
  DEFPITCHMODE 589824 0
  TAKELANE 1
  SAMPLERATE 44100 0 0
  <RENDER_CFG
  >
  LOCK 1
  <METRONOME 6 2
    VOL 0.25 0.125
    FREQ 800 1600 1
    BEATLEN 4
    SAMPLES "" ""
    PATTERN 2863311530 2863311529
  >
  GLOBAL_AUTO -1
  TEMPO 120 4 4
  PLAYRATE 1 0 0.25 4
  SELECTION 0 0
  SELECTION2 0 0
  MASTERAUTOMODE 0
  MASTERTRACKHEIGHT 0 0
  MASTERPEAKCOL 16576
  MASTERMUTESOLO 0
  MASTERTRACKVIEW 0 0.6667 0.5 0.5 -1 -1 -1 0 0 0 -1 -1 0
  MASTERHWOUT 0 0 1 0 0 0 0 -1
  MASTER_NCH 2 2
  MASTER_VOLUME 1 0 -1 -1 1
  MASTER_FX 1
  MASTER_SEL 0
  <MASTERPLAYSPEEDENV
    EGUID {46A92D26-198F-492B-89EF-0D25AC477B69}
    ACT 0 -1
    VIS 0 1 1
    LANEHEIGHT 0 0
    ARM 0
    DEFSHAPE 0 -1 -1
  >
  <TEMPOENVEX
    EGUID {71EC7DBA-59C6-47F5-91B2-59D23EA1FF01}
    ACT 1 -1
    VIS 1 0 1
    LANEHEIGHT 0 0
    ARM 0
    DEFSHAPE 1 -1 -1
    PT 0.000000000000 160.0000000000 1 262148 0 1
    PT 66.000000000000 160.0000000000 1 262146 0 1
    PT 66.750000000000 160.0000000000 1 262148 0 1
    PT 114.750000000000 160.0000000000 1 262146 0 1
    PT 115.500000000000 160.0000000000 1 262148 0 1
    PT 120.000000000000 160.0000000000 1 262146 0 1
    PT 120.750000000000 160.0000000000 1 262148 0 1
    PT 123.750000000000 160.0000000000 1 262146 0 1
    PT 124.500000000000 160.0000000000 1 262148 0 1
    PT 142.500000000000 150.0000000000 1
    PT 144.100000000000 140.0001400001 1
    PT 144.527678143750 130.0001300001 1
    PT 145.913253681250 139.0002177670 1
    PT 151.093101681250 139.5001708877 1
  >
  <PROJBAY
  >
  <TRACK {0031356B-FFA5-449E-8905-80A15F184005}
    NAME "PART GUITAR"
    PEAKCOL 16576
    BEAT -1
    AUTOMODE 0
    VOLPAN 1 0 -1 -1 1
    MUTESOLO 0 0 0
    IPHASE 0
    PLAYOFFS 0 1
    ISBUS 0 0
    BUSCOMP 0 0 0 0 0
    SHOWINMIX 1 0.6667 0.5 1 0.5 -1 -1 -1
    FREEMODE 0
    SEL 0
    REC 0 0 1 0 0 0 0
    VU 2
    TRACKHEIGHT 0 0 0 0 0 0
    INQ 0 0 0 0.5 100 0 0 100
    NCHAN 2
    FX 1
    TRACKID {0031356B-FFA5-449E-8905-80A15F184005}
    PERF 0
    MIDIOUT -1
    MAINSEND 1 0
    <ITEM
      POSITION 0
      SNAPOFFS 0
      LENGTH 153.24363668125
      LOOP 1
      ALLTAKES 0
      FADEIN 1 0 0 1 0 0 0
      FADEOUT 1 0 0 1 0 0 0
      MUTE 0 0
      SEL 0
      IGUID {F76D70CE-C932-4943-BD57-FEFDB83AD2FF}
      IID 1
      NAME "PART GUITAR - allofthis.mid"
      VOLPAN 1 0 1 -1
      SOFFS 0 0
      PLAYRATE 1 1 0 -1 0 0.0025
      CHANMODE 0
      GUID {D30C56F1-006E-4F51-B4AA-9CB7F87F8D40}
      <SOURCE MIDI
        HASDATA 1 480 QN
        CCINTERP 32
        POOLEDEVTS {8D653CAE-8EA2-4793-901D-534906FD98A0}
        <X 0 0 0 0 3 "PART GUITAR"
          /wNQQVJUIEdVSVRBUg==
        >
        <X 0 0 0 0 1 [idle]
          /wFbaWRsZV0=
        >
        <X 0 0 0 0 1 [idle]
          /wFbaWRsZV0=
        >
        <X 0 0 0 0 1 [idle]
          /wFbaWRsZV0=
        >
        <X 0 0 0 0 1 [idle]
          /wFbaWRsZV0=
        >
        E 3817 90 43 64
        E 0 90 45 64
        E 0 90 4f 64
        E 0 90 51 64
        E 0 90 5b 64
        E 0 90 5d 64
        E 0 90 67 64
        E 0 90 69 64
        <X 23 0 0 0 1 [play]
          /wFbcGxheV0=
        >
        <X 0 0 0 0 1 [play]
          /wFbcGxheV0=
        >
        <X 0 0 0 0 1 [play]
          /wFbcGxheV0=
        >
        <X 0 0 0 0 1 [play]
          /wFbcGxheV0=
        >
        E 0 90 3c 64
        E 0 90 4a 64
        E 0 90 49 64
        E 0 90 57 64
        E 0 90 55 64
        E 0 90 63 64
        E 0 90 61 64
        E 10 80 3c 00
        E 0 80 4a 00
        E 0 80 49 00
        E 0 80 57 00
        E 0 80 55 00
        E 0 80 63 00
        E 0 80 61 00
        E 470 90 3c 64
        E 0 90 4a 64
        E 0 90 49 64
        E 0 90 57 64
        E 0 90 55 64
        E 0 90 63 64
        E 0 90 61 64
        E 10 80 3c 00
        E 0 80 4a 00
        E 0 80 49 00
        E 0 80 57 00
        E 0 80 55 00
        E 0 80 63 00
        E 0 80 61 00
        E 470 90 3c 64
        E 0 90 4a 64
        E 0 90 49 64
        E 0 90 57 64
        E 0 90 55 64
        E 0 90 63 64
        E 0 90 61 64
        E 10 80 3c 00
        E 0 80 4a 00
        E 0 80 49 00
        E 0 80 57 00
        E 0 80 55 00
        E 0 80 63 00
        E 0 80 61 00
        E 470 90 3c 64
        E 0 90 4a 64
        E 0 90 49 64
        E 0 90 57 64
        E 0 90 55 64
        E 0 90 63 64
        E 0 90 61 64
        E 10 80 3c 00
        E 0 80 4a 00
        E 0 80 49 00
        E 0 80 57 00
        E 0 80 55 00
        E 0 80 63 00
        E 0 80 61 00
        E 207 80 43 00
        E 0 80 4f 00
        E 0 80 5b 00
        E 0 80 67 00
        E 98 90 55 64
        E 0 90 61 64
        E 10 80 55 00
        E 0 80 61 00
        E 155 90 3c 64
        E 0 90 4a 64
        E 0 90 49 64
        E 0 90 57 64
        E 0 90 55 64
        E 0 90 63 64
        E 0 90 61 64
        E 10 80 3c 00
        E 0 80 4a 00
        E 0 80 49 00
        E 0 80 57 00
        E 0 80 55 00
        E 0 80 63 00
        E 0 80 61 00
        E 470 90 3c 64
        E 0 90 4a 64
        E 0 90 49 64
        E 0 90 57 64
        E 0 90 55 64
        E 0 90 63 64
        E 0 90 61 64
        E 10 80 3c 00
        E 0 80 4a 00
        E 0 80 49 00
        E 0 80 57 00
        E 0 80 55 00
        E 0 80 63 00
        E 0 80 61 00
        E 470 90 3c 64
        E 0 90 4a 64
        E 0 90 49 64
        E 0 90 57 64
        E 0 90 55 64
        E 0 90 63 64
        E 0 90 61 64
        E 10 80 3c 00
        E 0 80 4a 00
        E 0 80 49 00
        E 0 80 57 00
        E 0 80 55 00
        E 0 80 63 00
        E 0 80 61 00
        E 305 90 55 64
        E 0 90 61 64
        E 10 80 55 00
        E 0 80 61 00
        E 155 90 3c 64
        E 0 90 4a 64
        E 0 90 49 64
        E 0 90 57 64
        E 0 90 55 64
        E 0 90 63 64
        E 0 90 61 64
        E 10 80 3c 00
        E 0 80 4a 00
        E 0 80 49 00
        E 0 80 57 00
        E 0 80 55 00
        E 0 80 63 00
        E 0 80 61 00
        E 207 80 45 00
        E 0 90 46 64
        E 0 80 51 00
        E 0 90 52 64
        E 0 80 5d 00
        E 0 90 5e 64
        E 0 80 69 00
        E 0 90 6a 64
        E 98 90 55 64
        E 0 90 61 64
        E 10 80 55 00
        E 0 80 61 00
        E 132 90 43 64
        E 0 90 4f 64
        E 0 90 5b 64
        E 0 90 67 64
        E 23 90 3c 64
        E 0 90 4a 64
        E 0 90 49 64
        E 0 90 57 64
        E 0 90 55 64
        E 0 90 63 64
        E 0 90 61 64
        E 10 80 3c 00
        E 0 80 4a 00
        E 0 80 49 00
        E 0 80 57 00
        E 0 80 55 00
        E 0 80 63 00
        E 0 80 61 00
        E 470 90 3c 64
        E 0 90 4a 64
        E 0 90 49 64
        E 0 90 57 64
        E 0 90 55 64
        E 0 90 63 64
        E 0 90 61 64
        E 10 80 3c 00
        E 0 80 4a 00
        E 0 80 49 00
        E 0 80 57 00
        E 0 80 55 00
        E 0 80 63 00
        E 0 80 61 00
        E 470 90 3c 64
        E 0 90 4a 64
        E 0 90 49 64
        E 0 90 57 64
        E 0 90 55 64
        E 0 90 63 64
        E 0 90 61 64
        E 10 80 3c 00
        E 0 80 4a 00
        E 0 80 49 00
        E 0 80 57 00
        E 0 80 55 00
        E 0 80 63 00
        E 0 80 61 00
        E 470 90 3c 64
        E 0 90 4a 64
        E 0 90 49 64
        E 0 90 57 64
        E 0 90 55 64
        E 0 90 63 64
        E 0 90 61 64
        E 10 80 3c 00
        E 0 80 4a 00
        E 0 80 49 00
        E 0 80 57 00
        E 0 80 55 00
        E 0 80 63 00
        E 0 80 61 00
        E 207 80 43 00
        E 0 80 4f 00
        E 0 80 5b 00
        E 0 80 67 00
        E 98 90 55 64
        E 0 90 61 64
        E 10 80 55 00
        E 0 80 61 00
        E 155 90 3c 64
        E 0 90 4a 64
        E 0 90 49 64
        E 0 90 57 64
        E 0 90 55 64
        E 0 90 63 64
        E 0 90 61 64
        E 10 80 3c 00
        E 0 80 4a 00
        E 0 80 49 00
        E 0 80 57 00
        E 0 80 55 00
        E 0 80 63 00
        E 0 80 61 00
        E 470 90 3c 64
        E 0 90 4a 64
        E 0 90 49 64
        E 0 90 57 64
        E 0 90 55 64
        E 0 90 63 64
        E 0 90 61 64
        E 10 80 3c 00
        E 0 80 4a 00
        E 0 80 49 00
        E 0 80 57 00
        E 0 80 55 00
        E 0 80 63 00
        E 0 80 61 00
        E 470 90 3c 64
        E 0 90 4a 64
        E 0 90 49 64
        E 0 90 57 64
        E 0 90 55 64
        E 0 90 63 64
        E 0 90 61 64
        E 10 80 3c 00
        E 0 80 4a 00
        E 0 80 49 00
        E 0 80 57 00
        E 0 80 55 00
        E 0 80 63 00
        E 0 80 61 00
        E 305 90 55 64
        E 0 90 61 64
        E 10 80 55 00
        E 0 80 61 00
        E 155 90 3c 64
        E 0 90 4a 64
        E 0 90 49 64
        E 0 90 57 64
        E 0 90 55 64
        E 0 90 63 64
        E 0 90 61 64
        E 10 80 3c 00
        E 0 80 4a 00
        E 0 80 49 00
        E 0 80 57 00
        E 0 80 55 00
        E 0 80 63 00
        E 0 80 61 00
        E 207 80 46 00
        E 0 90 45 64
        E 0 80 52 00
        E 0 90 51 64
        E 0 80 5e 00
        E 0 90 5d 64
        E 0 80 6a 00
        E 0 90 69 64
        E 98 90 55 64
        E 0 90 61 64
        E 10 80 55 00
        E 0 80 61 00
        E 155 90 3c 64
        E 0 90 4a 64
        E 0 90 49 64
        E 0 90 57 64
        E 0 90 55 64
        E 0 90 63 64
        E 0 90 61 64
        E 10 80 3c 00
        E 0 80 4a 00
        E 0 80 49 00
        E 0 80 57 00
        E 0 80 55 00
        E 0 80 63 00
        E 0 80 61 00
        E 470 90 3c 64
        E 0 90 4a 64
        E 0 90 49 64
        E 0 90 57 64
        E 0 90 55 64
        E 0 90 63 64
        E 0 90 61 64
        E 10 80 3c 00
        E 0 80 4a 00
        E 0 80 49 00
        E 0 80 57 00
        E 0 80 55 00
        E 0 80 63 00
        E 0 80 61 00
        E 470 90 3c 64
        E 0 90 4a 64
        E 0 90 49 64
        E 0 90 57 64
        E 0 90 55 64
        E 0 90 63 64
        E 0 90 61 64
        E 10 80 3c 00
        E 0 80 4a 00
        E 0 80 49 00
        E 0 80 57 00
        E 0 80 55 00
        E 0 80 63 00
        E 0 80 61 00
        E 470 90 3c 64
        E 0 90 4a 64
        E 0 90 49 64
        E 0 90 57 64
        E 0 90 55 64
        E 0 90 63 64
        E 0 90 61 64
        E 10 80 3c 00
        E 0 80 4a 00
        E 0 80 49 00
        E 0 80 57 00
        E 0 80 55 00
        E 0 80 63 00
        E 0 80 61 00
        E 305 90 55 64
        E 0 90 61 64
        E 10 80 55 00
        E 0 80 61 00
        E 155 90 3c 64
        E 0 90 4a 64
        E 0 90 49 64
        E 0 90 57 64
        E 0 90 55 64
        E 0 90 63 64
        E 0 90 61 64
        E 10 80 3c 00
        E 0 80 4a 00
        E 0 80 49 00
        E 0 80 57 00
        E 0 80 55 00
        E 0 80 63 00
        E 0 80 61 00
        E 470 90 3c 64
        E 0 90 4a 64
        E 0 90 49 64
        E 0 90 57 64
        E 0 90 55 64
        E 0 90 63 64
        E 0 90 61 64
        E 10 80 3c 00
        E 0 80 4a 00
        E 0 80 49 00
        E 0 80 57 00
        E 0 80 55 00
        E 0 80 63 00
        E 0 80 61 00
        E 470 90 3c 64
        E 0 90 4a 64
        E 0 90 49 64
        E 0 90 57 64
        E 0 90 55 64
        E 0 90 63 64
        E 0 90 61 64
        E 10 80 3c 00
        E 0 80 4a 00
        E 0 80 49 00
        E 0 80 57 00
        E 0 80 55 00
        E 0 80 63 00
        E 0 80 61 00
        E 305 90 55 64
        E 0 90 61 64
        E 10 80 55 00
        E 0 80 61 00
        E 155 90 3c 64
        E 0 90 4a 64
        E 0 90 49 64
        E 0 90 57 64
        E 0 90 55 64
        E 0 90 63 64
        E 0 90 61 64
        E 10 80 3c 00
        E 0 80 4a 00
        E 0 80 49 00
        E 0 80 57 00
        E 0 80 55 00
        E 0 80 63 00
        E 0 80 61 00
        E 207 80 45 00
        E 0 90 46 64
        E 0 80 51 00
        E 0 90 52 64
        E 0 80 5d 00
        E 0 90 5e 64
        E 0 80 69 00
        E 0 90 6a 64
        E 98 90 55 64
        E 0 90 61 64
        E 10 80 55 00
        E 0 80 61 00
        E 155 90 3c 64
        E 0 90 4a 64
        E 0 90 49 64
        E 0 90 57 64
        E 0 90 55 64
        E 0 90 63 64
        E 0 90 61 64
        E 10 80 3c 00
        E 0 80 4a 00
        E 0 80 49 00
        E 0 80 57 00
        E 0 80 55 00
        E 0 80 63 00
        E 0 80 61 00
        E 470 90 3c 64
        E 0 90 4a 64
        E 0 90 49 64
        E 0 90 57 64
        E 0 90 55 64
        E 0 90 63 64
        E 0 90 61 64
        E 10 80 3c 00
        E 0 80 4a 00
        E 0 80 49 00
        E 0 80 57 00
        E 0 80 55 00
        E 0 80 63 00
        E 0 80 61 00
        E 470 90 3c 64
        E 0 90 4a 64
        E 0 90 49 64
        E 0 90 57 64
        E 0 90 55 64
        E 0 90 63 64
        E 0 90 61 64
        E 10 80 3c 00
        E 0 80 4a 00
        E 0 80 49 00
        E 0 80 57 00
        E 0 80 55 00
        E 0 80 63 00
        E 0 80 61 00
        E 470 90 3c 64
        E 0 90 4a 64
        E 0 90 49 64
        E 0 90 57 64
        E 0 90 55 64
        E 0 90 63 64
        E 0 90 61 64
        E 10 80 3c 00
        E 0 80 4a 00
        E 0 80 49 00
        E 0 80 57 00
        E 0 80 55 00
        E 0 80 63 00
        E 0 80 61 00
        E 470 90 3c 64
        E 0 90 4a 64
        E 0 90 49 64
        E 0 90 57 64
        E 0 90 55 64
        E 0 90 63 64
        E 0 90 61 64
        E 10 80 3c 00
        E 0 80 4a 00
        E 0 80 49 00
        E 0 80 57 00
        E 0 80 55 00
        E 0 80 63 00
        E 0 80 61 00
        E 470 90 3c 64
        E 0 90 4a 64
        E 0 90 49 64
        E 0 90 57 64
        E 0 90 55 64
        E 0 90 63 64
        E 0 90 61 64
        E 10 80 3c 00
        E 0 80 4a 00
        E 0 80 49 00
        E 0 80 57 00
        E 0 80 55 00
        E 0 80 63 00
        E 0 80 61 00
        E 305 90 55 64
        E 0 90 61 64
        E 10 80 55 00
        E 0 80 61 00
        E 155 90 3c 64
        E 0 90 4a 64
        E 0 90 49 64
        E 0 90 57 64
        E 0 90 55 64
        E 0 90 63 64
        E 0 90 61 64
        E 10 80 3c 00
        E 0 80 4a 00
        E 0 80 49 00
        E 0 80 57 00
        E 0 80 55 00
        E 0 80 63 00
        E 0 80 61 00
        E 305 90 55 64
        E 0 90 61 64
        E 10 80 55 00
        E 0 80 61 00
        E 155 90 3c 64
        E 0 90 4a 64
        E 0 90 49 64
        E 0 90 57 64
        E 0 90 55 64
        E 0 90 63 64
        E 0 90 61 64
        E 10 80 3c 00
        E 0 80 4a 00
        E 0 80 49 00
        E 0 80 57 00
        E 0 80 55 00
        E 0 80 63 00
        E 0 80 61 00
        E 207 80 46 00
        E 0 90 45 64
        E 0 80 52 00
        E 0 90 51 64
        E 0 80 5e 00
        E 0 90 5d 64
        E 0 80 6a 00
        E 0 90 69 64
        E 98 90 55 64
        E 0 90 61 64
        E 10 80 55 00
        E 0 80 61 00
        E 155 90 3c 64
        E 0 90 49 64
        E 0 90 4a 64
        E 0 90 55 64
        E 0 90 57 64
        E 0 90 61 64
        E 0 90 63 64
        E 10 80 3c 00
        E 0 80 49 00
        E 0 80 4a 00
        E 0 80 55 00
        E 0 80 57 00
        E 0 80 61 00
        E 0 80 63 00
        E 470 90 3c 64
        E 0 90 49 64
        E 0 90 4a 64
        E 0 90 55 64
        E 0 90 57 64
        E 0 90 61 64
        E 0 90 63 64
        E 10 80 3c 00
        E 0 80 49 00
        E 0 80 4a 00
        E 0 80 55 00
        E 0 80 57 00
        E 0 80 61 00
        E 0 80 63 00
        E 470 90 3d 64
        E 0 90 4a 64
        E 0 90 56 64
        E 0 90 58 64
        E 0 90 62 64
        E 0 90 64 64
        E 10 80 3d 00
        E 0 80 4a 00
        E 0 80 56 00
        E 0 80 58 00
        E 0 80 62 00
        E 0 80 64 00
        E 470 90 3d 64
        E 0 90 4a 64
        E 0 90 56 64
        E 0 90 58 64
        E 0 90 62 64
        E 0 90 64 64
        E 10 80 3d 00
        E 0 80 4a 00
        E 0 80 56 00
        E 0 80 58 00
        E 0 80 62 00
        E 0 80 64 00
        E 305 90 57 64
        E 0 90 63 64
        E 10 80 57 00
        E 0 80 63 00
        E 155 90 3e 64
        E 0 90 4b 64
        E 0 90 4a 64
        E 0 90 58 64
        E 0 90 57 64
        E 0 90 64 64
        E 0 90 63 64
        E 10 80 3e 00
        E 0 80 4b 00
        E 0 80 4a 00
        E 0 80 58 00
        E 0 80 57 00
        E 0 80 64 00
        E 0 80 63 00
        E 470 90 3e 64
        E 0 90 4b 64
        E 0 90 4a 64
        E 0 90 58 64
        E 0 90 57 64
        E 0 90 64 64
        E 0 90 63 64
        E 10 80 3e 00
        E 0 80 4b 00
        E 0 80 4a 00
        E 0 80 58 00
        E 0 80 57 00
        E 0 80 64 00
        E 0 80 63 00
        E 305 90 57 64
        E 0 90 63 64
        E 10 80 57 00
        E 0 80 63 00
        E 155 90 3c 64
        E 0 90 4a 64
        E 0 90 49 64
        E 0 90 57 64
        E 0 90 55 64
        E 0 90 63 64
        E 0 90 61 64
        E 10 80 3c 00
        E 0 80 4a 00
        E 0 80 49 00
        E 0 80 57 00
        E 0 80 55 00
        E 0 80 63 00
        E 0 80 61 00
        E 470 90 3c 64
        E 0 90 4a 64
        E 0 90 49 64
        E 0 90 57 64
        E 0 90 55 64
        E 0 90 63 64
        E 0 90 61 64
        E 10 80 3c 00
        E 0 80 4a 00
        E 0 80 49 00
        E 0 80 57 00
        E 0 80 55 00
        E 0 80 63 00
        E 0 80 61 00
        E 470 90 3c 64
        E 0 90 4a 64
        E 0 90 49 64
        E 0 90 57 64
        E 0 90 55 64
        E 0 90 63 64
        E 0 90 61 64
        E 10 80 3c 00
        E 0 80 4a 00
        E 0 80 49 00
        E 0 80 57 00
        E 0 80 55 00
        E 0 80 63 00
        E 0 80 61 00
        E 470 90 3c 64
        E 0 90 4a 64
        E 0 90 49 64
        E 0 90 57 64
        E 0 90 55 64
        E 0 90 63 64
        E 0 90 61 64
        E 10 80 3c 00
        E 0 80 4a 00
        E 0 80 49 00
        E 470 90 3d 64
        E 0 90 49 64
        E 0 90 4b 64
        E 0 80 57 00
        E 0 80 55 00
        E 0 90 56 64
        E 0 90 57 64
        E 0 80 63 00
        E 0 80 61 00
        E 0 90 62 64
        E 0 90 63 64
        E 10 80 3d 00
        E 0 80 49 00
        E 0 80 4b 00
        E 0 80 56 00
        E 0 80 57 00
        E 0 80 62 00
        E 0 80 63 00
        E 470 90 3d 64
        E 0 90 49 64
        E 0 90 4b 64
        E 0 90 56 64
        E 0 90 57 64
        E 0 90 62 64
        E 0 90 63 64
        E 10 80 3d 00
        E 0 80 49 00
        E 0 80 4b 00
        E 0 80 56 00
        E 0 80 57 00
        E 0 80 62 00
        E 0 80 63 00
        E 470 90 3e 64
        E 0 90 4a 64
        E 0 90 56 64
        E 0 90 58 64
        E 0 90 62 64
        E 0 90 64 64
        E 10 80 3e 00
        E 0 80 4a 00
        E 0 80 56 00
        E 0 80 58 00
        E 0 80 62 00
        E 0 80 64 00
        E 470 90 3e 64
        E 0 90 4a 64
        E 0 90 56 64
        E 0 90 58 64
        E 0 90 62 64
        E 0 90 64 64
        E 10 80 3e 00
        E 0 80 4a 00
        E 0 80 56 00
        E 0 80 58 00
        E 0 80 62 00
        E 0 80 64 00
        E 470 90 3e 64
        E 0 90 4a 64
        E 0 90 56 64
        E 0 90 58 64
        E 0 90 62 64
        E 0 90 64 64
        E 10 80 3e 00
        E 0 80 4a 00
        E 0 80 56 00
        E 0 80 58 00
        E 0 80 62 00
        E 0 80 64 00
        E 470 90 3e 64
        E 0 90 4a 64
        E 0 90 56 64
        E 0 90 58 64
        E 0 90 62 64
        E 0 90 64 64
        E 10 80 3e 00
        E 0 80 4a 00
        E 0 80 56 00
        E 0 80 58 00
        E 0 80 62 00
        E 0 80 64 00
        E 207 80 45 00
        E 0 90 46 64
        E 0 80 51 00
        E 0 90 52 64
        E 0 80 5d 00
        E 0 90 5e 64
        E 0 80 69 00
        E 0 90 6a 64
        E 98 90 55 64
        E 0 90 61 64
        E 10 80 55 00
        E 0 80 61 00
        E 155 90 3d 64
        E 0 90 49 64
        E 0 90 55 64
        E 0 90 56 64
        E 0 90 61 64
        E 0 90 62 64
        E 10 80 3d 00
        E 0 80 49 00
        E 0 80 55 00
        E 0 80 56 00
        E 0 80 61 00
        E 0 80 62 00
        E 470 90 3d 64
        E 0 90 49 64
        E 0 90 55 64
        E 0 90 56 64
        E 0 90 61 64
        E 0 90 62 64
        E 10 80 3d 00
        E 0 80 49 00
        E 0 80 55 00
        E 0 80 56 00
        E 0 80 61 00
        E 0 80 62 00
        E 470 90 3c 64
        E 0 90 48 64
        E 0 90 4a 64
        E 0 90 54 64
        E 0 90 56 64
        E 0 90 60 64
        E 0 90 62 64
        E 10 80 3c 00
        E 0 80 48 00
        E 0 80 4a 00
        E 0 80 54 00
        E 0 80 56 00
        E 0 80 60 00
        E 0 80 62 00
        E 470 90 3c 64
        E 0 90 48 64
        E 0 90 4a 64
        E 0 90 54 64
        E 0 90 56 64
        E 0 90 60 64
        E 0 90 62 64
        E 10 80 3c 00
        E 0 80 48 00
        E 0 80 4a 00
        E 0 80 54 00
        E 0 80 56 00
        E 0 80 60 00
        E 0 80 62 00
        E 470 90 3d 64
        E 0 90 48 64
        E 0 90 49 64
        E 0 90 54 64
        E 0 90 55 64
        E 0 90 60 64
        E 0 90 61 64
        E 10 80 3d 00
        E 0 80 48 00
        E 0 80 49 00
        E 0 80 54 00
        E 0 80 55 00
        E 0 80 60 00
        E 0 80 61 00
        E 470 90 3d 64
        E 0 90 48 64
        E 0 90 49 64
        E 0 90 54 64
        E 0 90 55 64
        E 0 90 60 64
        E 0 90 61 64
        E 10 80 3d 00
        E 0 80 48 00
        E 0 80 49 00
        E 0 80 54 00
        E 0 80 55 00
        E 0 80 60 00
        E 0 80 61 00
        E 305 90 55 64
        E 0 90 61 64
        E 10 80 55 00
        E 0 80 61 00
        E 155 90 3e 64
        E 0 90 49 64
        E 0 90 55 64
        E 0 90 56 64
        E 0 90 61 64
        E 0 90 62 64
        E 10 80 3e 00
        E 0 80 49 00
        E 0 80 55 00
        E 0 80 56 00
        E 0 80 61 00
        E 0 80 62 00
        E 470 90 3e 64
        E 0 90 49 64
        E 0 90 55 64
        E 0 90 56 64
        E 0 90 61 64
        E 0 90 62 64
        E 10 80 3e 00
        E 0 80 49 00
        E 0 80 55 00
        E 0 80 56 00
        E 0 80 61 00
        E 0 80 62 00
        E 470 90 3c 64
        E 0 90 49 64
        E 0 90 4a 64
        E 0 90 55 64
        E 0 90 57 64
        E 0 90 61 64
        E 0 90 63 64
        E 10 80 3c 00
        E 0 80 49 00
        E 0 80 4a 00
        E 0 80 55 00
        E 0 80 57 00
        E 0 80 61 00
        E 0 80 63 00
        E 470 90 3c 64
        E 0 90 49 64
        E 0 90 4a 64
        E 0 90 55 64
        E 0 90 57 64
        E 0 90 61 64
        E 0 90 63 64
        E 10 80 3c 00
        E 0 80 49 00
        E 0 80 4a 00
        E 0 80 55 00
        E 0 80 57 00
        E 0 80 61 00
        E 0 80 63 00
        E 470 90 3c 64
        E 0 90 49 64
        E 0 90 4a 64
        E 0 90 55 64
        E 0 90 57 64
        E 0 90 61 64
        E 0 90 63 64
        E 10 80 3c 00
        E 0 80 49 00
        E 0 80 4a 00
        E 0 80 55 00
        E 0 80 57 00
        E 0 80 61 00
        E 0 80 63 00
        E 470 90 3c 64
        E 0 90 49 64
        E 0 90 4a 64
        E 0 90 55 64
        E 0 90 57 64
        E 0 90 61 64
        E 0 90 63 64
        E 10 80 3c 00
        E 0 80 49 00
        E 0 80 4a 00
        E 0 80 55 00
        E 0 80 57 00
        E 0 80 61 00
        E 0 80 63 00
        E 470 90 3d 64
        E 0 90 49 64
        E 0 90 55 64
        E 0 90 56 64
        E 0 90 61 64
        E 0 90 62 64
        E 10 80 3d 00
        E 0 80 49 00
        E 0 80 55 00
        E 0 80 56 00
        E 0 80 61 00
        E 0 80 62 00
        E 470 90 3d 64
        E 0 90 49 64
        E 0 90 55 64
        E 0 90 56 64
        E 0 90 61 64
        E 0 90 62 64
        E 10 80 3d 00
        E 0 80 49 00
        E 0 80 55 00
        E 0 80 56 00
        E 0 80 61 00
        E 0 80 62 00
        E 470 90 3e 64
        E 0 90 48 64
        E 0 90 49 64
        E 0 90 54 64
        E 0 90 55 64
        E 0 90 60 64
        E 0 90 61 64
        E 10 80 3e 00
        E 0 80 48 00
        E 0 80 49 00
        E 0 80 54 00
        E 0 80 55 00
        E 0 80 60 00
        E 0 80 61 00
        E 470 90 3e 64
        E 0 90 48 64
        E 0 90 49 64
        E 0 90 54 64
        E 0 90 55 64
        E 0 90 60 64
        E 0 90 61 64
        E 10 80 3e 00
        E 0 80 48 00
        E 0 80 49 00
        E 0 80 54 00
        E 0 80 55 00
        E 0 80 60 00
        E 0 80 61 00
        E 447 90 45 64
        E 0 90 43 64
        E 0 90 51 64
        E 0 90 4f 64
        E 0 90 5d 64
        E 0 90 5b 64
        E 0 90 69 64
        E 0 90 67 64
        E 23 90 3c 64
        E 0 90 49 64
        E 0 90 4a 64
        E 0 90 55 64
        E 0 90 57 64
        E 0 90 61 64
        E 0 90 63 64
        E 10 80 3c 00
        E 0 80 49 00
        E 0 80 4a 00
        E 0 80 55 00
        E 0 80 57 00
        E 0 80 61 00
        E 0 80 63 00
        E 470 90 3c 64
        E 0 90 49 64
        E 0 90 4a 64
        E 0 90 55 64
        E 0 90 57 64
        E 0 90 61 64
        E 0 90 63 64
        E 10 80 3c 00
        E 0 80 49 00
        E 0 80 4a 00
        E 0 80 55 00
        E 0 80 57 00
        E 0 80 61 00
        E 0 80 63 00
        E 305 90 56 64
        E 0 90 62 64
        E 10 80 56 00
        E 0 80 62 00
        E 155 90 3d 64
        E 0 90 4a 64
        E 0 90 56 64
        E 0 90 58 64
        E 0 90 62 64
        E 0 90 64 64
        E 10 80 3d 00
        E 0 80 4a 00
        E 0 80 56 00
        E 0 80 58 00
        E 0 80 62 00
        E 0 80 64 00
        E 470 90 3d 64
        E 0 90 4a 64
        E 0 90 56 64
        E 0 90 58 64
        E 0 90 62 64
        E 0 90 64 64
        E 10 80 3d 00
        E 0 80 4a 00
        E 0 80 56 00
        E 0 80 58 00
        E 0 80 62 00
        E 0 80 64 00
        E 305 90 57 64
        E 0 90 63 64
        E 10 80 57 00
        E 0 80 63 00
        E 155 90 3e 64
        E 0 90 4b 64
        E 0 90 4a 64
        E 0 90 58 64
        E 0 90 57 64
        E 0 90 64 64
        E 0 90 63 64
        E 10 80 3e 00
        E 0 80 4b 00
        E 0 80 4a 00
        E 0 80 58 00
        E 0 80 57 00
        E 0 80 64 00
        E 0 80 63 00
        E 470 90 3e 64
        E 0 90 4b 64
        E 0 90 4a 64
        E 0 90 58 64
        E 0 90 57 64
        E 0 90 64 64
        E 0 90 63 64
        E 10 80 3e 00
        E 0 80 4b 00
        E 0 80 4a 00
        E 0 80 58 00
        E 0 80 57 00
        E 0 80 64 00
        E 0 80 63 00
        E 207 80 43 00
        E 0 80 4f 00
        E 0 80 5b 00
        E 0 80 67 00
        E 98 90 57 64
        E 0 90 63 64
        E 10 80 57 00
        E 0 80 63 00
        E 155 90 3c 64
        E 0 90 4a 64
        E 0 90 49 64
        E 0 90 57 64
        E 0 90 55 64
        E 0 90 63 64
        E 0 90 61 64
        E 10 80 3c 00
        E 0 80 4a 00
        E 0 80 49 00
        E 0 80 57 00
        E 0 80 55 00
        E 0 80 63 00
        E 0 80 61 00
        E 470 90 3c 64
        E 0 90 4a 64
        E 0 90 49 64
        E 0 90 57 64
        E 0 90 55 64
        E 0 90 63 64
        E 0 90 61 64
        E 10 80 3c 00
        E 0 80 4a 00
        E 0 80 49 00
        E 0 80 57 00
        E 0 80 55 00
        E 0 80 63 00
        E 0 80 61 00
        E 305 90 55 64
        E 0 90 61 64
        E 10 80 55 00
        E 0 80 61 00
        E 155 90 3c 64
        E 0 90 4a 64
        E 0 90 49 64
        E 0 90 57 64
        E 0 90 55 64
        E 0 90 63 64
        E 0 90 61 64
        E 10 80 3c 00
        E 0 80 4a 00
        E 0 80 49 00
        E 0 80 57 00
        E 0 80 55 00
        E 0 80 63 00
        E 0 80 61 00
        E 470 90 3c 64
        E 0 90 4a 64
        E 0 90 49 64
        E 0 90 57 64
        E 0 90 55 64
        E 0 90 63 64
        E 0 90 61 64
        E 10 80 3c 00
        E 0 80 4a 00
        E 0 80 49 00
        E 0 80 57 00
        E 0 80 55 00
        E 0 80 63 00
        E 0 80 61 00
        E 470 90 3d 64
        E 0 90 49 64
        E 0 90 4b 64
        E 0 90 56 64
        E 0 90 57 64
        E 0 90 62 64
        E 0 90 63 64
        E 10 80 3d 00
        E 0 80 49 00
        E 0 80 4b 00
        E 0 80 56 00
        E 0 80 57 00
        E 0 80 62 00
        E 0 80 63 00
        E 470 90 3d 64
        E 0 90 49 64
        E 0 90 4b 64
        E 0 90 56 64
        E 0 90 57 64
        E 0 90 62 64
        E 0 90 63 64
        E 10 80 3d 00
        E 0 80 49 00
        E 0 80 4b 00
        E 0 80 56 00
        E 0 80 57 00
        E 0 80 62 00
        E 0 80 63 00
        E 305 90 56 64
        E 0 90 62 64
        E 10 80 56 00
        E 0 80 62 00
        E 155 90 3e 64
        E 0 90 4a 64
        E 0 90 56 64
        E 0 90 58 64
        E 0 90 62 64
        E 0 90 64 64
        E 10 80 3e 00
        E 0 80 4a 00
        E 0 80 56 00
        E 0 80 58 00
        E 0 80 62 00
        E 0 80 64 00
        E 470 90 3e 64
        E 0 90 4a 64
        E 0 90 56 64
        E 0 90 58 64
        E 0 90 62 64
        E 0 90 64 64
        E 10 80 3e 00
        E 0 80 4a 00
        E 0 80 56 00
        E 0 80 58 00
        E 0 80 62 00
        E 0 80 64 00
        E 470 90 3e 64
        E 0 90 4a 64
        E 0 90 56 64
        E 0 90 58 64
        E 0 90 62 64
        E 0 90 64 64
        E 10 80 3e 00
        E 0 80 4a 00
        E 0 80 56 00
        E 0 80 58 00
        E 0 80 62 00
        E 0 80 64 00
        E 305 90 56 64
        E 0 90 62 64
        E 10 80 56 00
        E 0 80 62 00
        E 155 90 3e 64
        E 0 90 4a 64
        E 0 90 56 64
        E 0 90 58 64
        E 0 90 62 64
        E 0 90 64 64
        E 10 80 3e 00
        E 0 80 4a 00
        E 0 80 56 00
        E 0 80 58 00
        E 0 80 62 00
        E 0 80 64 00
        E 207 80 46 00
        E 0 80 52 00
        E 0 80 5e 00
        E 0 80 6a 00
        E 98 90 55 64
        E 0 90 61 64
        E 10 80 55 00
        E 0 80 61 00
        E 155 90 3d 64
        E 0 90 49 64
        E 0 90 55 64
        E 0 90 56 64
        E 0 90 61 64
        E 0 90 62 64
        E 10 80 3d 00
        E 0 80 49 00
        E 0 80 55 00
        E 0 80 56 00
        E 0 80 61 00
        E 0 80 62 00
        E 470 90 3d 64
        E 0 90 49 64
        E 0 90 55 64
        E 0 90 56 64
        E 0 90 61 64
        E 0 90 62 64
        E 10 80 3d 00
        E 0 80 49 00
        E 0 80 55 00
        E 0 80 56 00
        E 0 80 61 00
        E 0 80 62 00
        E 305 90 54 64
        E 0 90 60 64
        E 10 80 54 00
        E 0 80 60 00
        E 155 90 3c 64
        E 0 90 48 64
        E 0 90 4a 64
        E 0 90 54 64
        E 0 90 56 64
        E 0 90 60 64
        E 0 90 62 64
        E 10 80 3c 00
        E 0 80 48 00
        E 0 80 4a 00
        E 0 80 54 00
        E 0 80 56 00
        E 0 80 60 00
        E 0 80 62 00
        E 470 90 3c 64
        E 0 90 48 64
        E 0 90 4a 64
        E 0 90 54 64
        E 0 90 56 64
        E 0 90 60 64
        E 0 90 62 64
        E 10 80 3c 00
        E 0 80 48 00
        E 0 80 4a 00
        E 0 80 54 00
        E 0 80 56 00
        E 0 80 60 00
        E 0 80 62 00
        E 207 80 45 00
        E 0 90 46 64
        E 0 80 51 00
        E 0 90 52 64
        E 0 80 5d 00
        E 0 90 5e 64
        E 0 80 69 00
        E 0 90 6a 64
        E 98 90 54 64
        E 0 90 60 64
        E 10 80 54 00
        E 0 80 60 00
        E 155 90 3d 64
        E 0 90 48 64
        E 0 90 49 64
        E 0 90 54 64
        E 0 90 55 64
        E 0 90 60 64
        E 0 90 61 64
        E 10 80 3d 00
        E 0 80 48 00
        E 0 80 49 00
        E 0 80 54 00
        E 0 80 55 00
        E 0 80 60 00
        E 0 80 61 00
        E 470 90 3d 64
        E 0 90 48 64
        E 0 90 49 64
        E 0 90 54 64
        E 0 90 55 64
        E 0 90 60 64
        E 0 90 61 64
        E 10 80 3d 00
        E 0 80 48 00
        E 0 80 49 00
        E 0 80 54 00
        E 0 80 55 00
        E 0 80 60 00
        E 0 80 61 00
        E 305 90 55 64
        E 0 90 61 64
        E 10 80 55 00
        E 0 80 61 00
        E 155 90 3e 64
        E 0 90 49 64
        E 0 90 55 64
        E 0 90 56 64
        E 0 90 61 64
        E 0 90 62 64
        E 10 80 3e 00
        E 0 80 49 00
        E 0 80 55 00
        E 0 80 56 00
        E 0 80 61 00
        E 0 80 62 00
        E 470 90 3e 64
        E 0 90 49 64
        E 0 90 55 64
        E 0 90 56 64
        E 0 90 61 64
        E 0 90 62 64
        E 10 80 3e 00
        E 0 80 49 00
        E 0 80 55 00
        E 0 80 56 00
        E 0 80 61 00
        E 0 80 62 00
        E 207 90 45 64
        E 0 90 51 64
        E 0 90 5d 64
        E 0 90 69 64
        E 98 90 55 64
        E 0 90 61 64
        E 10 80 55 00
        E 0 80 61 00
        E 155 90 3e 64
        E 0 90 49 64
        E 0 90 4b 64
        E 0 90 55 64
        E 0 90 58 64
        E 0 90 61 64
        E 0 90 64 64
        E 10 80 3e 00
        E 0 80 49 00
        E 0 80 4b 00
        E 0 80 55 00
        E 0 80 58 00
        E 0 80 61 00
        E 0 80 64 00
        E 470 90 3d 64
        E 0 90 49 64
        E 0 90 4a 64
        E 0 90 55 64
        E 0 90 57 64
        E 0 90 61 64
        E 0 90 63 64
        E 10 80 3d 00
        E 0 80 49 00
        E 0 80 4a 00
        E 0 80 55 00
        E 0 80 57 00
        E 0 80 61 00
        E 0 80 63 00
        E 470 90 3e 64
        E 0 90 49 64
        E 0 90 4b 64
        E 0 90 55 64
        E 0 90 58 64
        E 0 90 61 64
        E 0 90 64 64
        E 10 80 3e 00
        E 0 80 49 00
        E 0 80 4b 00
        E 0 80 55 00
        E 0 80 58 00
        E 0 80 61 00
        E 0 80 64 00
        E 470 90 3e 64
        E 0 90 49 64
        E 0 90 4b 64
        E 0 90 55 64
        E 0 90 58 64
        E 0 90 61 64
        E 0 90 64 64
        E 10 80 3e 00
        E 0 80 49 00
        E 0 80 4b 00
        E 0 80 55 00
        E 0 80 58 00
        E 0 80 61 00
        E 0 80 64 00
        E 305 90 55 64
        E 0 90 61 64
        E 10 80 55 00
        E 0 80 61 00
        E 155 90 3e 64
        E 0 90 49 64
        E 0 90 4b 64
        E 0 90 55 64
        E 0 90 58 64
        E 0 90 61 64
        E 0 90 64 64
        E 10 80 3e 00
        E 0 80 49 00
        E 0 80 4b 00
        E 0 80 55 00
        E 0 80 58 00
        E 0 80 61 00
        E 0 80 64 00
        E 470 90 3e 64
        E 0 90 49 64
        E 0 90 4b 64
        E 0 90 55 64
        E 0 90 58 64
        E 0 90 61 64
        E 0 90 64 64
        E 10 80 3e 00
        E 0 80 49 00
        E 0 80 4b 00
        E 0 80 55 00
        E 0 80 58 00
        E 0 80 61 00
        E 0 80 64 00
        E 305 90 55 64
        E 0 90 61 64
        E 10 80 55 00
        E 0 80 61 00
        E 132 90 43 64
        E 0 90 4f 64
        E 0 90 5b 64
        E 0 90 67 64
        E 23 90 3d 64
        E 0 90 49 64
        E 0 90 4a 64
        E 0 90 55 64
        E 0 90 57 64
        E 0 90 61 64
        E 0 90 63 64
        E 10 80 3d 00
        E 0 80 49 00
        E 0 80 4a 00
        E 0 80 55 00
        E 0 80 57 00
        E 0 80 61 00
        E 0 80 63 00
        E 470 90 3d 64
        E 0 90 49 64
        E 0 90 4a 64
        E 0 90 55 64
        E 0 90 57 64
        E 0 90 61 64
        E 0 90 63 64
        E 10 80 3d 00
        <X 470 0 0 0 1 [idle]
          /wFbaWRsZV0=
        >
        <X 0 0 0 0 1 [idle]
          /wFbaWRsZV0=
        >
        <X 0 0 0 0 1 [idle]
          /wFbaWRsZV0=
        >
        <X 0 0 0 0 1 [idle]
          /wFbaWRsZV0=
        >
        E 120 80 49 00
        E 0 80 4a 00
        E 0 80 55 00
        E 0 80 57 00
        E 0 80 61 00
        E 0 80 63 00
        E 97 80 46 00
        E 0 80 45 00
        E 0 80 43 00
        E 0 80 52 00
        E 0 80 51 00
        E 0 80 4f 00
        E 0 80 5e 00
        E 0 80 5d 00
        E 0 80 5b 00
        E 0 80 6a 00
        E 0 80 69 00
        E 0 80 67 00
        E 1680 90 45 64
        E 0 90 51 64
        E 0 90 5d 64
        E 0 90 69 64
        <X 23 0 0 0 1 [play]
          /wFbcGxheV0=
        >
        <X 0 0 0 0 1 [play]
          /wFbcGxheV0=
        >
        <X 0 0 0 0 1 [play]
          /wFbcGxheV0=
        >
        <X 0 0 0 0 1 [play]
          /wFbcGxheV0=
        >
        E 0 90 3e 64
        E 0 90 4a 64
        E 0 90 56 64
        E 0 90 58 64
        E 0 90 62 64
        E 0 90 64 64
        E 10 80 3e 00
        E 0 80 4a 00
        E 0 80 56 00
        E 0 80 58 00
        E 0 80 62 00
        E 0 80 64 00
        E 470 90 3e 64
        E 0 90 4a 64
        E 0 90 56 64
        E 0 90 58 64
        E 0 90 62 64
        E 0 90 64 64
        E 10 80 3e 00
        E 0 80 4a 00
        E 0 80 56 00
        E 0 80 58 00
        E 0 80 62 00
        E 0 80 64 00
        E 305 90 55 64
        E 0 90 61 64
        E 10 80 55 00
        E 0 80 61 00
        E 155 90 3d 64
        E 0 90 49 64
        E 0 90 55 64
        E 0 90 56 64
        E 0 90 61 64
        E 0 90 62 64
        E 10 80 3d 00
        E 0 80 49 00
        E 0 80 55 00
        E 0 80 56 00
        E 0 80 61 00
        E 0 80 62 00
        E 470 90 3d 64
        E 0 90 49 64
        E 0 90 55 64
        E 0 90 56 64
        E 0 90 61 64
        E 0 90 62 64
        E 10 80 3d 00
        E 0 80 49 00
        E 0 80 55 00
        E 0 80 56 00
        E 0 80 61 00
        E 0 80 62 00
        E 305 90 54 64
        E 0 90 60 64
        E 10 80 54 00
        E 0 80 60 00
        E 155 90 3c 64
        E 0 90 48 64
        E 0 90 4a 64
        E 0 90 54 64
        E 0 90 56 64
        E 0 90 60 64
        E 0 90 62 64
        E 10 80 3c 00
        E 0 80 48 00
        E 0 80 4a 00
        E 0 80 54 00
        E 0 80 56 00
        E 0 80 60 00
        E 0 80 62 00
        E 470 90 3c 64
        E 0 90 48 64
        E 0 90 4a 64
        E 0 90 54 64
        E 0 90 56 64
        E 0 90 60 64
        E 0 90 62 64
        E 10 80 3c 00
        E 0 80 48 00
        E 0 80 4a 00
        E 0 80 54 00
        E 0 80 56 00
        E 0 80 60 00
        E 0 80 62 00
        E 305 90 54 64
        E 0 90 60 64
        E 10 80 54 00
        E 0 80 60 00
        E 155 90 3d 64
        E 0 90 49 64
        E 0 90 55 64
        E 0 90 56 64
        E 0 90 61 64
        E 0 90 62 64
        E 10 80 3d 00
        E 0 80 49 00
        E 0 80 55 00
        E 0 80 56 00
        E 0 80 61 00
        E 0 80 62 00
        E 470 90 3d 64
        E 0 90 49 64
        E 0 90 55 64
        E 0 90 56 64
        E 0 90 61 64
        E 0 90 62 64
        E 10 80 3d 00
        E 0 80 49 00
        E 0 80 55 00
        E 0 80 56 00
        E 0 80 61 00
        E 0 80 62 00
        E 305 90 56 64
        E 0 90 62 64
        E 10 80 56 00
        E 0 80 62 00
        E 132 80 45 00
        E 0 90 46 64
        E 0 80 51 00
        E 0 90 52 64
        E 0 80 5d 00
        E 0 90 5e 64
        E 0 80 69 00
        E 0 90 6a 64
        E 23 90 3e 64
        E 0 90 4a 64
        E 0 90 58 64
        E 0 90 56 64
        E 0 90 64 64
        E 0 90 62 64
        E 10 80 3e 00
        E 0 80 4a 00
        E 0 80 58 00
        E 0 80 56 00
        E 0 80 64 00
        E 0 80 62 00
        E 470 90 3e 64
        E 0 90 4a 64
        E 0 90 58 64
        E 0 90 56 64
        E 0 90 64 64
        E 0 90 62 64
        E 10 80 3e 00
        E 0 80 4a 00
        E 0 80 58 00
        E 0 80 56 00
        E 0 80 64 00
        E 0 80 62 00
        E 305 90 55 64
        E 0 90 61 64
        E 10 80 55 00
        E 0 80 61 00
        E 155 90 3c 64
        E 0 90 48 64
        E 0 90 49 64
        E 0 90 54 64
        E 0 90 55 64
        E 0 90 60 64
        E 0 90 61 64
        E 10 80 3c 00
        E 0 80 48 00
        E 0 80 49 00
        E 0 80 54 00
        E 0 80 55 00
        E 0 80 60 00
        E 0 80 61 00
        E 470 90 3c 64
        E 0 90 48 64
        E 0 90 49 64
        E 0 90 54 64
        E 0 90 55 64
        E 0 90 60 64
        E 0 90 61 64
        E 10 80 3c 00
        E 0 80 48 00
        E 0 80 49 00
        E 0 80 54 00
        E 0 80 55 00
        E 0 80 60 00
        E 0 80 61 00
        E 305 90 54 64
        E 0 90 60 64
        E 10 80 54 00
        E 0 80 60 00
        E 155 90 3d 64
        E 0 90 4a 64
        E 0 90 48 64
        E 0 90 54 64
        E 0 90 56 64
        E 0 90 60 64
        E 0 90 62 64
        E 10 80 3d 00
        E 0 80 4a 00
        E 0 80 48 00
        E 0 80 54 00
        E 0 80 56 00
        E 0 80 60 00
        E 0 80 62 00
        E 470 90 3d 64
        E 0 90 4a 64
        E 0 90 48 64
        E 0 90 54 64
        E 0 90 56 64
        E 0 90 60 64
        E 0 90 62 64
        E 10 80 3d 00
        E 0 80 4a 00
        E 0 80 48 00
        E 0 80 54 00
        E 0 80 56 00
        E 0 80 60 00
        E 0 80 62 00
        E 305 90 55 64
        E 0 90 61 64
        E 10 80 55 00
        E 0 80 61 00
        E 155 90 3e 64
        E 0 90 49 64
        E 0 90 55 64
        E 0 90 56 64
        E 0 90 61 64
        E 0 90 62 64
        E 10 80 3e 00
        E 0 80 49 00
        E 0 80 55 00
        E 0 80 56 00
        E 0 80 61 00
        E 0 80 62 00
        E 470 90 3e 64
        E 0 90 49 64
        E 0 90 55 64
        E 0 90 56 64
        E 0 90 61 64
        E 0 90 62 64
        E 10 80 3e 00
        E 0 80 49 00
        E 0 80 55 00
        E 0 80 56 00
        E 0 80 61 00
        E 0 80 62 00
        E 305 90 56 64
        E 0 90 62 64
        E 10 80 56 00
        E 0 80 62 00
        E 132 80 46 00
        E 0 90 45 64
        E 0 80 52 00
        E 0 90 51 64
        E 0 80 5e 00
        E 0 90 5d 64
        E 0 80 6a 00
        E 0 90 69 64
        E 23 90 3e 64
        E 0 90 4a 64
        E 0 90 56 64
        E 0 90 58 64
        E 0 90 62 64
        E 0 90 64 64
        E 10 80 3e 00
        E 0 80 4a 00
        E 0 80 56 00
        E 0 80 58 00
        E 0 80 62 00
        E 0 80 64 00
        E 470 90 3e 64
        E 0 90 4a 64
        E 0 90 56 64
        E 0 90 58 64
        E 0 90 62 64
        E 0 90 64 64
        E 10 80 3e 00
        E 0 80 4a 00
        E 0 80 56 00
        E 0 80 58 00
        E 0 80 62 00
        E 0 80 64 00
        E 470 90 3c 64
        E 0 90 48 64
        E 0 90 49 64
        E 0 90 54 64
        E 0 90 55 64
        E 0 90 60 64
        E 0 90 61 64
        E 10 80 3c 00
        E 0 80 48 00
        E 0 80 49 00
        E 0 80 54 00
        E 0 80 55 00
        E 0 80 60 00
        E 0 80 61 00
        E 470 90 3c 64
        E 0 90 48 64
        E 0 90 49 64
        E 0 90 54 64
        E 0 90 55 64
        E 0 90 60 64
        E 0 90 61 64
        E 10 80 3c 00
        E 0 80 48 00
        E 0 80 49 00
        E 0 80 54 00
        E 0 80 55 00
        E 0 80 60 00
        E 0 80 61 00
        E 305 90 55 64
        E 0 90 61 64
        E 10 80 55 00
        E 0 80 61 00
        E 155 90 3d 64
        E 0 90 49 64
        E 0 90 4a 64
        E 0 90 55 64
        E 0 90 57 64
        E 0 90 61 64
        E 0 90 63 64
        E 10 80 3d 00
        E 0 80 49 00
        E 0 80 4a 00
        E 0 80 55 00
        E 0 80 57 00
        E 0 80 61 00
        E 0 80 63 00
        E 470 90 3d 64
        E 0 90 49 64
        E 0 90 4a 64
        E 0 90 55 64
        E 0 90 57 64
        E 0 90 61 64
        E 0 90 63 64
        E 10 80 3d 00
        E 0 80 49 00
        E 0 80 4a 00
        E 0 80 55 00
        E 0 80 57 00
        E 0 80 61 00
        E 0 80 63 00
        E 305 90 54 64
        E 0 90 60 64
        E 10 80 54 00
        E 0 80 60 00
        E 155 90 3c 64
        E 0 90 48 64
        E 0 90 49 64
        E 0 90 54 64
        E 0 90 55 64
        E 0 90 60 64
        E 0 90 61 64
        E 10 80 3c 00
        E 0 80 48 00
        E 0 80 49 00
        E 0 80 54 00
        E 0 80 55 00
        E 0 80 60 00
        E 0 80 61 00
        E 470 90 3c 64
        E 0 90 48 64
        E 0 90 49 64
        E 0 90 54 64
        E 0 90 55 64
        E 0 90 60 64
        E 0 90 61 64
        E 10 80 3c 00
        E 0 80 48 00
        E 0 80 49 00
        E 0 80 54 00
        E 0 80 55 00
        E 0 80 60 00
        E 0 80 61 00
        E 447 90 46 64
        E 0 90 43 64
        E 0 90 52 64
        E 0 90 4f 64
        E 0 90 5e 64
        E 0 90 5b 64
        E 0 90 6a 64
        E 0 90 67 64
        E 23 90 3d 64
        E 0 90 49 64
        E 0 90 55 64
        E 0 90 56 64
        E 0 90 61 64
        E 0 90 62 64
        E 3337 80 43 00
        E 0 80 4f 00
        E 0 80 5b 00
        E 0 80 67 00
        E 23 80 3d 00
        E 0 90 3d 64
        E 0 80 49 00
        E 0 90 49 64
        E 0 80 55 00
        E 0 80 56 00
        E 0 90 55 64
        E 0 80 61 00
        E 0 80 62 00
        E 0 90 61 64
        E 10 80 3d 00
        E 0 80 49 00
        E 0 80 55 00
        E 0 80 61 00
        E 447 80 45 00
        E 0 80 51 00
        E 0 80 5d 00
        E 0 80 69 00
        E 23 90 3c 64
        E 0 90 49 64
        E 0 90 4a 64
        E 0 90 55 64
        E 0 90 57 64
        E 0 90 61 64
        E 0 90 63 64
        E 10 80 3c 00
        E 0 80 49 00
        E 0 80 4a 00
        E 0 80 55 00
        E 0 80 57 00
        E 0 80 61 00
        E 0 80 63 00
        E 470 90 3c 64
        E 0 90 49 64
        E 0 90 4a 64
        E 0 90 55 64
        E 0 90 57 64
        E 0 90 61 64
        E 0 90 63 64
        E 10 80 3c 00
        E 0 80 49 00
        E 0 80 4a 00
        E 0 80 55 00
        E 0 80 57 00
        E 0 80 61 00
        E 0 80 63 00
        E 305 90 56 64
        E 0 90 62 64
        E 10 80 56 00
        E 0 80 62 00
        E 155 90 3d 64
        E 0 90 4a 64
        E 0 90 56 64
        E 0 90 58 64
        E 0 90 62 64
        E 0 90 64 64
        E 10 80 3d 00
        E 0 80 4a 00
        E 0 80 56 00
        E 0 80 58 00
        E 0 80 62 00
        E 0 80 64 00
        E 470 90 3d 64
        E 0 90 4a 64
        E 0 90 56 64
        E 0 90 58 64
        E 0 90 62 64
        E 0 90 64 64
        E 10 80 3d 00
        E 0 80 4a 00
        E 0 80 56 00
        E 0 80 58 00
        E 0 80 62 00
        E 0 80 64 00
        E 305 90 57 64
        E 0 90 63 64
        E 10 80 57 00
        E 0 80 63 00
        E 155 90 3e 64
        E 0 90 4b 64
        E 0 90 4a 64
        E 0 90 58 64
        E 0 90 57 64
        E 0 90 64 64
        E 0 90 63 64
        E 10 80 3e 00
        E 0 80 4b 00
        E 0 80 4a 00
        E 0 80 58 00
        E 0 80 57 00
        E 0 80 64 00
        E 0 80 63 00
        E 470 90 3e 64
        E 0 90 4b 64
        E 0 90 4a 64
        E 0 90 58 64
        E 0 90 57 64
        E 0 90 64 64
        E 0 90 63 64
        E 10 80 3e 00
        E 0 80 4b 00
        E 0 80 4a 00
        E 0 80 58 00
        E 0 80 57 00
        E 0 80 64 00
        E 0 80 63 00
        E 305 90 57 64
        E 0 90 63 64
        E 10 80 57 00
        E 0 80 63 00
        E 155 90 3c 64
        E 0 90 4a 64
        E 0 90 49 64
        E 0 90 57 64
        E 0 90 55 64
        E 0 90 63 64
        E 0 90 61 64
        E 10 80 3c 00
        E 0 80 4a 00
        E 0 80 49 00
        E 0 80 57 00
        E 0 80 55 00
        E 0 80 63 00
        E 0 80 61 00
        E 470 90 3c 64
        E 0 90 4a 64
        E 0 90 49 64
        E 0 90 57 64
        E 0 90 55 64
        E 0 90 63 64
        E 0 90 61 64
        E 10 80 3c 00
        E 0 80 4a 00
        E 0 80 49 00
        E 0 80 57 00
        E 0 80 55 00
        E 0 80 63 00
        E 0 80 61 00
        E 447 80 46 00
        E 0 90 45 64
        E 0 80 52 00
        E 0 90 51 64
        E 0 80 5e 00
        E 0 90 5d 64
        E 0 80 6a 00
        E 0 90 69 64
        E 23 90 3c 64
        E 0 90 4a 64
        E 0 90 49 64
        E 0 90 57 64
        E 0 90 55 64
        E 0 90 63 64
        E 0 90 61 64
        E 10 80 3c 00
        E 0 80 4a 00
        E 0 80 49 00
        E 0 80 57 00
        E 0 80 55 00
        E 0 80 63 00
        E 0 80 61 00
        E 470 90 3c 64
        E 0 90 4a 64
        E 0 90 49 64
        E 0 90 57 64
        E 0 90 55 64
        E 0 90 63 64
        E 0 90 61 64
        E 10 80 3c 00
        E 0 80 4a 00
        E 0 80 49 00
        E 0 80 57 00
        E 0 80 55 00
        E 0 80 63 00
        E 0 80 61 00
        E 305 90 56 64
        E 0 90 62 64
        E 10 80 56 00
        E 0 80 62 00
        E 155 90 3d 64
        E 0 90 49 64
        E 0 90 4b 64
        E 0 90 56 64
        E 0 90 57 64
        E 0 90 62 64
        E 0 90 63 64
        E 10 80 3d 00
        E 0 80 49 00
        E 0 80 4b 00
        E 0 80 56 00
        E 0 80 57 00
        E 0 80 62 00
        E 0 80 63 00
        E 470 90 3d 64
        E 0 90 49 64
        E 0 90 4b 64
        E 0 90 56 64
        E 0 90 57 64
        E 0 90 62 64
        E 0 90 63 64
        E 10 80 3d 00
        E 0 80 49 00
        E 0 80 4b 00
        E 0 80 56 00
        E 0 80 57 00
        E 0 80 62 00
        E 0 80 63 00
        E 305 90 56 64
        E 0 90 62 64
        E 10 80 56 00
        E 0 80 62 00
        E 155 90 3e 64
        E 0 90 4a 64
        E 0 90 56 64
        E 0 90 58 64
        E 0 90 62 64
        E 0 90 64 64
        E 10 80 3e 00
        E 0 80 4a 00
        E 0 80 56 00
        E 0 80 58 00
        E 0 80 62 00
        E 0 80 64 00
        E 470 90 3e 64
        E 0 90 4a 64
        E 0 90 56 64
        E 0 90 58 64
        E 0 90 62 64
        E 0 90 64 64
        E 10 80 3e 00
        E 0 80 4a 00
        E 0 80 56 00
        E 0 80 58 00
        E 0 80 62 00
        E 0 80 64 00
        E 470 90 3e 64
        E 0 90 4a 64
        E 0 90 56 64
        E 0 90 58 64
        E 0 90 62 64
        E 0 90 64 64
        E 10 80 3e 00
        E 0 80 4a 00
        E 0 80 56 00
        E 0 80 58 00
        E 0 80 62 00
        E 0 80 64 00
        E 470 90 3e 64
        E 0 90 4a 64
        E 0 90 56 64
        E 0 90 58 64
        E 0 90 62 64
        E 0 90 64 64
        E 10 80 3e 00
        E 0 80 4a 00
        E 0 80 56 00
        E 0 80 58 00
        E 0 80 62 00
        E 0 80 64 00
        E 207 80 45 00
        E 0 90 46 64
        E 0 80 51 00
        E 0 90 52 64
        E 0 80 5d 00
        E 0 90 5e 64
        E 0 80 69 00
        E 0 90 6a 64
        E 98 90 55 64
        E 0 90 61 64
        E 10 80 55 00
        E 0 80 61 00
        E 155 90 3d 64
        E 0 90 49 64
        E 0 90 55 64
        E 0 90 56 64
        E 0 90 61 64
        E 0 90 62 64
        E 10 80 3d 00
        E 0 80 49 00
        E 0 80 55 00
        E 0 80 56 00
        E 0 80 61 00
        E 0 80 62 00
        E 470 90 3d 64
        E 0 90 49 64
        E 0 90 55 64
        E 0 90 56 64
        E 0 90 61 64
        E 0 90 62 64
        E 10 80 3d 00
        E 0 80 49 00
        E 0 80 55 00
        E 0 80 56 00
        E 0 80 61 00
        E 0 80 62 00
        E 305 90 54 64
        E 0 90 60 64
        E 10 80 54 00
        E 0 80 60 00
        E 155 90 3c 64
        E 0 90 48 64
        E 0 90 4a 64
        E 0 90 54 64
        E 0 90 56 64
        E 0 90 60 64
        E 0 90 62 64
        E 10 80 3c 00
        E 0 80 48 00
        E 0 80 4a 00
        E 0 80 54 00
        E 0 80 56 00
        E 0 80 60 00
        E 0 80 62 00
        E 470 90 3c 64
        E 0 90 48 64
        E 0 90 4a 64
        E 0 90 54 64
        E 0 90 56 64
        E 0 90 60 64
        E 0 90 62 64
        E 10 80 3c 00
        E 0 80 48 00
        E 0 80 4a 00
        E 0 80 54 00
        E 0 80 56 00
        E 0 80 60 00
        E 0 80 62 00
        E 447 90 43 64
        E 0 90 45 64
        E 0 90 4f 64
        E 0 90 51 64
        E 0 90 5b 64
        E 0 90 5d 64
        E 0 90 67 64
        E 0 90 69 64
        E 23 90 3d 64
        E 0 90 48 64
        E 0 90 49 64
        E 0 90 54 64
        E 0 90 55 64
        E 0 90 60 64
        E 0 90 61 64
        E 10 80 3d 00
        E 0 80 48 00
        E 0 80 49 00
        E 0 80 54 00
        E 0 80 55 00
        E 0 80 60 00
        E 0 80 61 00
        E 470 90 54 64
        E 0 90 60 64
        E 10 80 54 00
        E 0 80 60 00
        E 305 90 3e 64
        E 0 90 48 64
        E 0 90 4a 64
        E 0 90 54 64
        E 0 90 56 64
        E 0 90 60 64
        E 0 90 62 64
        E 2542 80 43 00
        E 0 80 4f 00
        E 0 80 5b 00
        E 0 80 67 00
        E 18 80 3e 00
        E 0 80 48 00
        E 0 80 4a 00
        E 0 80 54 00
        E 0 80 56 00
        E 0 80 60 00
        E 0 80 62 00
        E 485 90 3e 64
        E 0 90 49 64
        E 0 90 4b 64
        E 0 90 55 64
        E 0 90 58 64
        E 0 90 61 64
        E 0 90 64 64
        E 10 80 3e 00
        E 0 80 49 00
        E 0 80 4b 00
        E 0 80 55 00
        E 0 80 58 00
        E 0 80 61 00
        E 0 80 64 00
        E 470 90 3d 64
        E 0 90 49 64
        E 0 90 4a 64
        E 0 90 55 64
        E 0 90 57 64
        E 0 90 61 64
        E 0 90 63 64
        E 10 80 3d 00
        E 0 80 49 00
        E 0 80 4a 00
        E 0 80 55 00
        E 0 80 57 00
        E 0 80 61 00
        E 0 80 63 00
        E 470 90 3e 64
        E 0 90 49 64
        E 0 90 4b 64
        E 0 90 55 64
        E 0 90 58 64
        E 0 90 61 64
        E 0 90 64 64
        E 10 80 3e 00
        E 0 80 49 00
        E 0 80 4b 00
        E 0 80 55 00
        E 0 80 58 00
        E 0 80 61 00
        E 0 80 64 00
        E 470 90 3e 64
        E 0 90 49 64
        E 0 90 4b 64
        E 0 90 55 64
        E 0 90 58 64
        E 0 90 61 64
        E 0 90 64 64
        E 10 80 3e 00
        E 0 80 49 00
        E 0 80 4b 00
        E 0 80 55 00
        E 0 80 58 00
        E 0 80 61 00
        E 0 80 64 00
        E 305 90 55 64
        E 0 90 61 64
        E 10 80 55 00
        E 0 80 61 00
        E 155 90 3e 64
        E 0 90 49 64
        E 0 90 4b 64
        E 0 90 55 64
        E 0 90 58 64
        E 0 90 61 64
        E 0 90 64 64
        E 10 80 3e 00
        E 0 80 49 00
        E 0 80 4b 00
        E 0 80 55 00
        E 0 80 58 00
        E 0 80 61 00
        E 0 80 64 00
        E 470 90 3e 64
        E 0 90 49 64
        E 0 90 4b 64
        E 0 90 55 64
        E 0 90 58 64
        E 0 90 61 64
        E 0 90 64 64
        E 10 80 3e 00
        E 0 80 49 00
        E 0 80 4b 00
        E 0 80 55 00
        E 0 80 58 00
        E 0 80 61 00
        E 0 80 64 00
        E 305 90 55 64
        E 0 90 61 64
        E 10 80 55 00
        E 0 80 61 00
        E 155 90 3d 64
        E 0 90 49 64
        E 0 90 4a 64
        E 0 90 55 64
        E 0 90 57 64
        E 0 90 61 64
        E 0 90 63 64
        E 10 80 3d 00
        E 0 80 49 00
        E 0 80 4a 00
        E 0 80 55 00
        E 0 80 57 00
        E 0 80 61 00
        E 0 80 63 00
        E 470 90 3d 64
        E 0 90 49 64
        E 0 90 4a 64
        E 0 90 55 64
        E 0 90 57 64
        E 0 90 61 64
        E 0 90 63 64
        E 10 80 3d 00
        E 0 80 49 00
        E 0 80 4a 00
        E 0 80 55 00
        E 0 80 57 00
        E 0 80 61 00
        E 0 80 63 00
        E 447 80 46 00
        E 0 80 52 00
        E 0 80 5e 00
        E 0 80 6a 00
        E 23 90 3d 64
        E 0 90 4a 64
        E 0 90 57 64
        E 0 90 63 64
        E 10 80 3d 00
        E 0 80 4a 00
        E 0 80 57 00
        E 0 80 63 00
        E 305 90 4a 64
        E 0 90 57 64
        E 0 90 63 64
        E 10 80 4a 00
        E 0 80 57 00
        E 0 80 63 00
        E 155 90 3e 64
        E 0 90 4b 64
        E 0 90 58 64
        E 0 90 64 64
        E 10 80 3e 00
        E 0 80 4b 00
        E 0 80 58 00
        E 0 80 64 00
        E 305 90 4a 64
        E 0 90 57 64
        E 0 90 63 64
        E 10 80 4a 00
        E 0 80 57 00
        E 0 80 63 00
        <X 155 0 0 0 1 [solo_on]
          /wFbc29sb19vbl0=
        >
        <X 0 0 0 0 1 [solo_on]
          /wFbc29sb19vbl0=
        >
        <X 0 0 0 0 1 [solo_on]
          /wFbc29sb19vbl0=
        >
        <X 0 0 0 0 1 [solo_on]
          /wFbc29sb19vbl0=
        >
        E 0 90 3e 64
        E 0 90 4b 64
        E 0 90 58 64
        E 0 90 64 64
        E 10 80 3e 00
        E 0 80 4b 00
        E 0 80 58 00
        E 0 80 64 00
        E 470 90 3d 64
        E 0 90 4b 64
        E 0 90 57 64
        E 0 90 63 64
        E 10 80 3d 00
        E 0 80 4b 00
        E 0 80 57 00
        E 0 80 63 00
        E 155 90 56 64
        E 0 90 62 64
        E 10 80 56 00
        E 0 80 62 00
        E 140 90 55 64
        E 0 90 61 64
        E 10 80 55 00
        E 0 80 61 00
        E 155 90 3c 64
        E 0 90 4a 64
        E 0 90 56 64
        E 0 90 62 64
        E 10 80 3c 00
        E 950 90 3e 64
        E 0 80 4a 00
        E 0 90 4b 64
        E 0 80 56 00
        E 0 90 57 64
        E 0 80 62 00
        E 0 90 63 64
        E 10 80 3e 00
        E 0 80 4b 00
        E 0 80 57 00
        E 0 80 63 00
        E 155 90 56 64
        E 0 90 62 64
        E 10 80 56 00
        E 0 80 62 00
        E 140 90 55 64
        E 0 90 61 64
        E 10 80 55 00
        E 0 80 61 00
        E 155 90 3d 64
        E 0 90 4a 64
        E 0 90 56 64
        E 0 90 62 64
        E 10 80 3d 00
        E 0 80 4a 00
        E 0 80 56 00
        E 0 80 62 00
        E 155 90 49 64
        E 0 90 55 64
        E 0 90 61 64
        E 10 80 49 00
        E 0 80 55 00
        E 0 80 61 00
        E 305 90 3c 64
        E 0 90 48 64
        E 0 90 54 64
        E 0 90 60 64
        E 10 80 3c 00
        E 0 80 48 00
        E 0 80 54 00
        E 0 80 60 00
        E 470 90 56 64
        E 0 90 62 64
        E 10 80 56 00
        E 0 80 62 00
        E 447 80 45 00
        E 0 90 46 64
        E 0 80 51 00
        E 0 90 52 64
        E 0 80 5d 00
        E 0 90 5e 64
        E 0 80 69 00
        E 0 90 6a 64
        E 23 90 3c 64
        E 0 90 48 64
        E 0 90 54 64
        E 0 90 60 64
        E 10 80 3c 00
        E 0 80 48 00
        E 0 80 54 00
        E 0 80 60 00
        E 155 90 61 64
        E 10 80 61 00
        E 140 90 55 64
        E 0 90 62 64
        E 10 80 55 00
        E 0 80 62 00
        E 155 90 3d 64
        E 0 90 49 64
        E 0 90 54 64
        E 0 90 61 64
        E 10 80 3d 00
        E 0 80 49 00
        E 0 80 54 00
        E 0 80 61 00
        E 155 90 55 64
        E 0 90 62 64
        E 10 80 55 00
        E 0 80 62 00
        E 140 90 56 64
        E 0 90 63 64
        E 10 80 56 00
        E 0 80 63 00
        E 155 90 3e 64
        E 0 90 4a 64
        E 0 90 55 64
        E 0 90 62 64
        E 10 80 3e 00
        E 0 80 4a 00
        E 0 80 55 00
        E 0 80 62 00
        E 155 90 56 64
        E 0 90 63 64
        E 10 80 56 00
        E 0 80 63 00
        E 140 90 57 64
        E 0 90 64 64
        E 10 80 57 00
        E 0 80 64 00
        E 155 90 3d 64
        E 0 90 49 64
        E 0 90 55 64
        E 0 90 61 64
        E 10 80 3d 00
        E 0 80 49 00
        E 0 80 55 00
        E 0 80 61 00
        E 155 90 56 64
        E 0 90 62 64
        E 10 80 56 00
        E 0 80 62 00
        E 140 90 57 64
        E 0 90 63 64
        E 10 80 57 00
        E 0 80 63 00
        E 155 90 3e 64
        E 0 90 4b 64
        E 0 90 58 64
        E 0 90 64 64
        E 10 80 3e 00
        E 830 80 4b 00
        E 0 80 58 00
        E 0 80 64 00
        E 97 90 43 64
        E 0 90 4f 64
        E 0 90 5b 64
        E 0 90 67 64
        E 23 90 3e 64
        E 0 90 4b 64
        E 0 90 57 64
        E 0 90 63 64
        E 10 80 57 00
        E 0 80 63 00
        E 230 90 58 64
        E 0 90 64 64
        E 937 80 5b 00
        E 0 80 67 00
        E 23 80 58 00
        E 0 90 57 64
        E 0 80 64 00
        E 0 90 63 64
        E 10 80 57 00
        E 0 80 63 00
        E 207 80 43 00
        E 0 80 4f 00
        E 23 80 3e 00
        E 0 90 3e 64
        E 0 80 4b 00
        E 0 90 4a 64
        E 0 90 58 64
        E 0 90 64 64
        E 10 80 3e 00
        E 0 80 4a 00
        E 0 80 58 00
        E 0 80 64 00
        E 155 90 57 64
        E 0 90 63 64
        E 10 80 57 00
        E 0 80 63 00
        E 140 90 56 64
        E 0 90 62 64
        E 10 80 56 00
        E 0 80 62 00
        E 155 90 3d 64
        E 0 90 49 64
        E 0 90 57 64
        E 0 90 63 64
        E 10 80 3d 00
        E 0 80 49 00
        E 0 80 57 00
        E 0 80 63 00
        E 470 90 4b 64
        E 0 90 58 64
        E 0 90 64 64
        E 10 80 4b 00
        E 0 80 58 00
        E 0 80 64 00
        E 207 80 46 00
        E 0 90 45 64
        E 0 80 52 00
        E 0 90 51 64
        E 0 80 5e 00
        E 0 90 5d 64
        E 0 80 6a 00
        E 0 90 69 64
        E 98 90 4a 64
        E 0 90 56 64
        E 0 90 62 64
        E 10 80 4a 00
        E 0 80 56 00
        E 0 80 62 00
        E 155 90 3e 64
        E 0 90 4b 64
        E 0 90 57 64
        E 0 90 63 64
        E 10 80 3e 00
        E 0 80 4b 00
        E 0 80 57 00
        E 0 80 63 00
        E 305 90 56 64
        E 0 90 62 64
        E 10 80 56 00
        E 0 80 62 00
        E 155 90 3d 64
        E 0 90 49 64
        E 0 90 55 64
        E 0 90 61 64
        E 10 80 3d 00
        E 0 80 49 00
        E 0 80 55 00
        E 0 80 61 00
        E 305 90 3e 64
        E 0 90 4a 64
        E 0 90 56 64
        E 0 90 62 64
        E 600 80 3e 00
        E 0 80 4a 00
        E 0 80 56 00
        E 0 80 62 00
        E 45 90 3e 64
        E 0 90 4a 64
        E 0 90 56 64
        E 0 90 62 64
        E 10 80 3e 00
        E 0 80 4a 00
        E 0 80 56 00
        E 0 80 62 00
        E 207 80 45 00
        E 0 90 46 64
        E 0 80 51 00
        E 0 90 52 64
        E 0 80 5d 00
        E 0 90 5e 64
        E 0 80 69 00
        E 0 90 6a 64
        E 98 90 48 64
        E 0 90 54 64
        E 0 90 60 64
        E 10 80 48 00
        E 0 80 54 00
        E 0 80 60 00
        E 155 90 3c 64
        E 0 90 48 64
        E 0 90 55 64
        E 0 90 61 64
        E 10 80 3c 00
        E 0 80 48 00
        E 0 80 55 00
        E 0 80 61 00
        E 155 90 56 64
        E 0 90 62 64
        E 10 80 56 00
        E 0 80 62 00
        E 140 90 57 64
        E 0 90 63 64
        E 10 80 57 00
        E 0 80 63 00
        E 155 90 3d 64
        E 0 90 49 64
        E 0 90 62 64
        E 10 80 3d 00
        E 0 80 49 00
        E 0 80 62 00
        E 155 90 57 64
        E 0 90 63 64
        E 10 80 57 00
        E 0 80 63 00
        E 140 90 56 64
        E 0 90 62 64
        E 10 80 56 00
        E 0 80 62 00
        E 155 90 3e 64
        E 0 90 4a 64
        E 0 90 57 64
        E 0 90 63 64
        E 10 80 3e 00
        E 0 80 4a 00
        E 0 80 57 00
        E 0 80 63 00
        E 305 90 4b 64
        E 0 90 58 64
        E 0 90 64 64
        E 10 80 4b 00
        E 0 80 58 00
        E 0 80 64 00
        E 155 90 3d 64
        E 0 90 4a 64
        E 0 90 57 64
        E 0 90 63 64
        E 10 80 3d 00
        E 0 80 4a 00
        E 0 80 57 00
        E 0 80 63 00
        E 155 90 56 64
        E 0 90 62 64
        E 10 80 56 00
        E 0 80 62 00
        E 140 90 55 64
        E 0 90 61 64
        E 10 80 55 00
        E 0 80 61 00
        E 132 90 43 64
        E 0 90 4f 64
        E 0 90 5b 64
        E 0 90 67 64
        E 23 90 3d 64
        E 0 90 49 64
        E 0 90 4b 64
        E 0 90 56 64
        E 0 90 57 64
        E 0 90 62 64
        E 0 90 63 64
        E 10 80 3d 00
        E 0 80 49 00
        E 0 80 4b 00
        E 0 80 56 00
        E 0 80 57 00
        E 0 80 62 00
        E 0 80 63 00
        E 470 90 3d 64
        E 0 90 49 64
        E 0 90 4b 64
        E 0 90 56 64
        E 0 90 57 64
        E 0 90 62 64
        E 0 90 63 64
        E 10 80 3d 00
        E 0 80 49 00
        E 0 80 4b 00
        E 0 80 56 00
        E 0 80 57 00
        E 0 80 62 00
        E 0 80 63 00
        E 305 90 55 64
        E 0 90 61 64
        E 10 80 55 00
        E 0 80 61 00
        E 155 90 3c 64
        E 0 90 49 64
        E 0 90 55 64
        E 0 90 56 64
        E 0 90 61 64
        E 0 90 62 64
        E 10 80 3c 00
        E 0 80 49 00
        E 0 80 55 00
        E 0 80 56 00
        E 0 80 61 00
        E 0 80 62 00
        E 305 90 55 64
        E 0 90 61 64
        E 10 80 55 00
        E 0 80 61 00
        E 155 90 3c 64
        E 0 90 49 64
        E 0 90 55 64
        E 0 90 56 64
        E 0 90 61 64
        E 0 90 62 64
        E 10 80 3c 00
        E 0 80 49 00
        E 0 80 55 00
        E 0 80 56 00
        E 0 80 61 00
        E 0 80 62 00
        E 87 80 43 00
        E 0 80 4f 00
        E 0 80 5b 00
        E 0 80 67 00
        E 120 80 46 00
        E 0 90 45 64
        E 0 80 52 00
        E 0 90 51 64
        E 0 80 5e 00
        E 0 90 5d 64
        E 0 80 6a 00
        E 0 90 69 64
        E 98 90 54 64
        E 0 90 60 64
        E 10 80 54 00
        E 0 80 60 00
        E 155 90 3d 64
        E 0 90 48 64
        E 0 90 54 64
        E 0 90 62 64
        E 0 90 60 64
        E 10 80 3d 00
        E 0 80 48 00
        E 0 80 54 00
        E 0 80 62 00
        E 0 80 60 00
        E 155 90 49 64
        E 0 90 55 64
        E 0 90 62 64
        E 0 90 61 64
        E 10 80 49 00
        E 0 80 55 00
        E 0 80 62 00
        E 0 80 61 00
        E 140 90 55 64
        E 0 90 62 64
        E 0 90 61 64
        E 10 80 55 00
        E 0 80 62 00
        E 0 80 61 00
        E 155 90 3d 64
        E 0 90 48 64
        E 0 90 54 64
        E 0 90 62 64
        E 0 90 60 64
        E 10 80 3d 00
        E 0 80 48 00
        E 0 80 54 00
        E 0 80 62 00
        E 0 80 60 00
        E 155 90 49 64
        E 0 90 55 64
        E 0 90 62 64
        E 0 90 61 64
        E 10 80 49 00
        E 0 80 55 00
        E 0 80 62 00
        E 0 80 61 00
        E 140 90 55 64
        E 0 90 62 64
        E 0 90 61 64
        E 10 80 55 00
        E 0 80 62 00
        E 0 80 61 00
        E 132 80 45 00
        E 0 90 46 64
        E 0 80 51 00
        E 0 90 52 64
        E 0 80 5d 00
        E 0 90 5e 64
        E 0 80 69 00
        E 0 90 6a 64
        E 23 90 3d 64
        E 0 90 48 64
        E 0 90 54 64
        E 0 90 62 64
        E 0 90 60 64
        E 10 80 3d 00
        E 0 80 48 00
        E 0 80 54 00
        E 0 80 62 00
        E 0 80 60 00
        E 155 90 49 64
        E 0 90 55 64
        E 0 90 62 64
        E 0 90 61 64
        E 10 80 49 00
        E 0 80 55 00
        E 0 80 62 00
        E 0 80 61 00
        E 140 90 55 64
        E 0 90 62 64
        E 0 90 61 64
        E 10 80 55 00
        E 0 80 62 00
        E 0 80 61 00
        E 155 90 3d 64
        E 0 90 48 64
        E 0 90 54 64
        E 0 90 62 64
        E 0 90 60 64
        E 10 80 3d 00
        E 0 80 48 00
        E 0 80 54 00
        E 0 80 62 00
        E 0 80 60 00
        E 155 90 49 64
        E 0 90 55 64
        E 0 90 62 64
        E 0 90 61 64
        E 10 80 49 00
        E 0 80 55 00
        E 0 80 62 00
        E 0 80 61 00
        E 140 90 55 64
        E 0 90 62 64
        E 0 90 61 64
        E 10 80 55 00
        E 0 80 62 00
        E 0 80 61 00
        E 132 80 46 00
        E 0 90 45 64
        E 0 80 52 00
        E 0 90 51 64
        E 0 80 5e 00
        E 0 90 5d 64
        E 0 80 6a 00
        E 0 90 69 64
        E 23 90 3d 64
        E 0 90 48 64
        E 0 90 54 64
        E 0 90 62 64
        E 0 90 60 64
        E 10 80 3d 00
        E 0 80 48 00
        E 0 80 54 00
        E 0 80 62 00
        E 0 80 60 00
        E 155 90 49 64
        E 0 90 55 64
        E 0 90 62 64
        E 0 90 61 64
        E 10 80 49 00
        E 0 80 55 00
        E 0 80 62 00
        E 0 80 61 00
        E 140 90 55 64
        E 0 90 62 64
        E 0 90 61 64
        E 10 80 55 00
        E 0 80 62 00
        E 0 80 61 00
        E 155 90 3d 64
        E 0 90 48 64
        E 0 90 54 64
        E 0 90 62 64
        E 0 90 60 64
        E 10 80 3d 00
        E 0 80 48 00
        E 0 80 54 00
        E 0 80 62 00
        E 0 80 60 00
        E 155 90 49 64
        E 0 90 55 64
        E 0 90 62 64
        E 0 90 61 64
        E 10 80 49 00
        E 0 80 55 00
        E 0 80 62 00
        E 0 80 61 00
        E 140 90 55 64
        E 0 90 62 64
        E 0 90 61 64
        E 10 80 55 00
        E 0 80 62 00
        E 0 80 61 00
        E 132 80 45 00
        E 0 90 46 64
        E 0 80 51 00
        E 0 90 52 64
        E 0 80 5d 00
        E 0 90 5e 64
        E 0 80 69 00
        E 0 90 6a 64
        E 23 90 3d 64
        E 0 90 48 64
        E 0 90 54 64
        E 0 90 60 64
        E 0 90 62 64
        E 10 80 3d 00
        E 0 80 48 00
        E 0 80 54 00
        E 0 80 60 00
        E 0 80 62 00
        E 155 90 49 64
        E 0 90 55 64
        E 0 90 61 64
        E 0 90 62 64
        E 10 80 49 00
        E 0 80 55 00
        E 0 80 61 00
        E 0 80 62 00
        E 140 90 63 64
        E 10 80 63 00
        E 155 90 3e 64
        E 0 90 4a 64
        E 0 90 56 64
        E 0 90 62 64
        E 0 90 61 64
        E 10 80 3e 00
        E 0 80 4a 00
        E 0 80 56 00
        E 0 80 62 00
        E 0 80 61 00
        E 155 90 55 64
        E 0 90 60 64
        E 0 90 62 64
        E 10 80 55 00
        E 0 80 60 00
        E 0 80 62 00
        E 140 90 60 64
        E 10 80 60 00
        E 132 80 46 00
        E 0 90 45 64
        E 0 80 52 00
        E 0 90 51 64
        E 0 80 5e 00
        E 0 90 5d 64
        E 0 80 6a 00
        E 0 90 69 64
        E 23 90 3c 64
        E 0 90 48 64
        E 0 90 54 64
        E 0 90 60 64
        E 10 80 3c 00
        E 0 80 48 00
        E 0 80 54 00
        E 0 80 60 00
        E 155 90 55 64
        E 0 90 61 64
        E 10 80 55 00
        E 0 80 61 00
        E 140 90 56 64
        E 0 90 62 64
        E 10 80 56 00
        E 0 80 62 00
        E 155 90 3d 64
        E 0 90 49 64
        E 0 90 57 64
        E 0 90 63 64
        E 10 80 3d 00
        E 0 80 49 00
        E 0 80 57 00
        E 0 80 63 00
        E 155 90 62 64
        E 10 80 62 00
        E 42 80 45 00
        E 0 90 46 64
        E 0 80 51 00
        E 0 90 52 64
        E 0 80 5d 00
        E 0 90 5e 64
        E 0 80 69 00
        E 0 90 6a 64
        E 98 90 60 64
        E 10 80 60 00
        E 155 90 3c 64
        E 0 90 48 64
        E 0 90 55 64
        E 0 90 61 64
        E 10 80 3c 00
        E 0 80 48 00
        E 0 80 55 00
        E 0 80 61 00
        E 155 90 56 64
        E 0 90 62 64
        E 10 80 56 00
        E 0 80 62 00
        E 140 90 57 64
        E 0 90 63 64
        E 10 80 57 00
        E 0 80 63 00
        E 155 90 3e 64
        E 0 90 4a 64
        E 0 90 58 64
        E 0 90 64 64
        E 10 80 3e 00
        E 0 80 4a 00
        E 0 80 58 00
        E 0 80 64 00
        E 155 90 63 64
        E 10 80 63 00
        E 42 80 46 00
        E 0 90 45 64
        E 0 80 52 00
        E 0 90 51 64
        E 0 80 5e 00
        E 0 90 5d 64
        E 0 80 6a 00
        E 0 90 69 64
        E 98 90 49 64
        E 0 90 55 64
        E 0 90 61 64
        E 10 80 49 00
        E 0 80 55 00
        E 0 80 61 00
        E 132 90 43 64
        E 0 90 4f 64
        E 0 90 5b 64
        E 0 90 67 64
        E 23 90 3d 64
        E 0 90 56 64
        E 0 90 62 64
        E 10 80 3d 00
        E 0 80 56 00
        E 0 80 62 00
        E 155 90 57 64
        E 0 90 63 64
        E 10 80 57 00
        E 0 80 63 00
        E 140 90 3e 64
        E 0 90 4b 64
        E 0 90 58 64
        E 0 90 64 64
        E 10 80 3e 00
        E 0 80 4b 00
        E 0 80 58 00
        E 0 80 64 00
        E 155 90 63 64
        E 10 80 63 00
        E 155 90 56 64
        E 0 90 62 64
        E 10 80 56 00
        E 0 80 62 00
        E 140 90 61 64
        E 10 80 61 00
        E 132 80 45 00
        E 0 90 46 64
        E 0 80 51 00
        E 0 90 52 64
        E 0 80 5d 00
        E 0 90 5e 64
        E 0 80 69 00
        E 0 90 6a 64
        E 23 90 3d 64
        E 0 90 49 64
        E 0 90 57 64
        E 0 90 63 64
        E 10 80 3d 00
        E 0 80 49 00
        E 0 80 57 00
        E 0 80 63 00
        E 155 90 56 64
        E 0 90 62 64
        E 10 80 56 00
        E 0 80 62 00
        E 140 90 55 64
        E 0 90 61 64
        E 10 80 55 00
        E 0 80 61 00
        E 155 90 3c 64
        E 0 90 48 64
        E 0 90 54 64
        E 0 90 60 64
        E 10 80 3c 00
        E 0 80 48 00
        E 0 80 54 00
        E 0 80 60 00
        E 207 80 43 00
        E 0 80 4f 00
        E 0 80 5b 00
        E 0 80 67 00
        E 240 80 46 00
        E 0 90 45 64
        E 0 80 52 00
        E 0 90 51 64
        E 0 80 5e 00
        E 0 90 5d 64
        E 0 80 6a 00
        E 0 90 69 64
        E 23 90 3d 64
        E 0 90 49 64
        E 0 90 55 64
        E 0 90 61 64
        E 10 80 3d 00
        E 0 80 49 00
        E 0 80 55 00
        E 0 80 61 00
        E 230 90 4a 64
        E 0 90 56 64
        E 0 90 62 64
        E 480 80 4a 00
        E 0 80 56 00
        E 0 80 62 00
        E 75 90 55 64
        E 0 90 61 64
        E 10 80 55 00
        E 0 80 61 00
        E 155 90 3e 64
        E 0 90 4b 64
        E 0 90 58 64
        E 0 90 64 64
        E 10 80 3e 00
        E 0 80 4b 00
        E 0 80 58 00
        E 0 80 64 00
        E 110 90 63 64
        E 10 80 63 00
        E 110 90 57 64
        E 0 90 62 64
        E 10 80 57 00
        E 0 80 62 00
        E 110 90 63 64
        E 10 80 63 00
        E 110 90 49 64
        E 0 90 56 64
        E 0 90 62 64
        E 10 80 49 00
        E 0 80 56 00
        E 0 80 62 00
        E 110 90 61 64
        E 10 80 61 00
        E 110 90 57 64
        E 0 90 62 64
        E 10 80 57 00
        E 0 80 62 00
        E 110 90 61 64
        E 10 80 61 00
        E 87 80 45 00
        E 0 90 46 64
        E 0 80 51 00
        E 0 90 52 64
        E 0 80 5d 00
        E 0 90 5e 64
        E 0 80 69 00
        E 0 90 6a 64
        E 23 90 3d 64
        E 0 90 4a 64
        E 0 90 56 64
        E 0 90 60 64
        E 10 80 3d 00
        E 0 80 4a 00
        E 0 80 56 00
        E 0 80 60 00
        E 110 90 61 64
        E 10 80 61 00
        E 110 90 55 64
        E 0 90 62 64
        E 10 80 55 00
        E 0 80 62 00
        E 110 90 63 64
        E 10 80 63 00
        E 110 90 49 64
        E 0 90 56 64
        E 0 90 62 64
        E 10 80 49 00
        E 0 80 56 00
        E 0 80 62 00
        E 110 90 61 64
        E 10 80 61 00
        E 110 90 55 64
        E 0 90 60 64
        E 10 80 55 00
        E 0 80 60 00
        E 110 90 61 64
        E 10 80 61 00
        E 110 90 3c 64
        E 0 90 48 64
        E 0 90 54 64
        E 0 90 62 64
        E 10 80 3c 00
        E 0 80 48 00
        E 0 80 54 00
        E 0 80 62 00
        E 155 90 61 64
        E 10 80 61 00
        E 140 90 3e 64
        E 0 90 4a 64
        E 0 90 56 64
        E 0 90 62 64
        E 10 80 3e 00
        E 470 80 4a 00
        E 0 80 56 00
        E 0 80 62 00
        E 142 80 46 00
        E 0 90 45 64
        E 0 80 52 00
        E 0 90 51 64
        E 0 80 5e 00
        E 0 90 5d 64
        E 0 80 6a 00
        E 0 90 69 64
        E 23 90 55 64
        E 0 90 61 64
        E 10 80 55 00
        E 0 80 61 00
        E 155 90 3e 64
        E 0 90 4b 64
        E 0 90 58 64
        E 0 90 64 64
        E 480 80 64 00
        E 75 90 63 64
        E 10 80 63 00
        E 35 80 3e 00
        E 0 80 4b 00
        E 0 80 58 00
        E 195 90 3e 64
        E 0 90 4b 64
        E 0 90 57 64
        E 0 90 63 64
        E 10 80 3e 00
        E 0 80 4b 00
        E 0 80 57 00
        E 0 80 63 00
        E 155 90 56 64
        E 0 90 62 64
        E 10 80 56 00
        E 0 80 62 00
        E 140 90 55 64
        E 0 90 61 64
        E 10 80 55 00
        E 0 80 61 00
        E 155 90 3d 64
        E 0 90 4a 64
        E 0 90 56 64
        E 0 90 62 64
        E 10 80 3d 00
        E 0 80 4a 00
        E 0 80 56 00
        E 0 80 62 00
        E 155 90 55 64
        E 0 90 61 64
        E 10 80 55 00
        E 0 80 61 00
        E 140 90 54 64
        E 0 90 60 64
        E 10 80 54 00
        E 0 80 60 00
        E 132 80 45 00
        E 0 90 46 64
        E 0 80 51 00
        E 0 90 52 64
        E 0 80 5d 00
        E 0 90 5e 64
        E 0 80 69 00
        E 0 90 6a 64
        E 23 90 3c 64
        E 0 90 49 64
        E 0 90 56 64
        E 0 90 62 64
        E 10 80 3c 00
        E 0 80 49 00
        E 0 80 56 00
        E 0 80 62 00
        E 155 90 55 64
        E 0 90 61 64
        E 10 80 55 00
        E 0 80 61 00
        E 140 90 54 64
        E 0 90 60 64
        E 10 80 54 00
        E 0 80 60 00
        E 155 90 3e 64
        E 0 90 4a 64
        E 0 90 56 64
        E 0 90 62 64
        E 10 80 3e 00
        E 0 80 4a 00
        E 0 80 56 00
        E 0 80 62 00
        E 305 90 3d 64
        E 0 90 49 64
        E 0 90 55 64
        E 0 90 61 64
        E 1080 80 3d 00
        E 0 80 49 00
        E 0 80 55 00
        E 0 80 61 00
        E 22 80 46 00
        E 0 90 45 64
        E 0 80 52 00
        E 0 90 51 64
        E 0 80 5e 00
        E 0 90 5d 64
        E 0 80 6a 00
        E 0 90 69 64
        E 23 90 3e 64
        E 0 90 4a 64
        E 0 90 57 64
        E 0 90 63 64
        E 10 80 3e 00
        E 0 80 4a 00
        E 927 80 45 00
        E 0 90 46 64
        E 0 80 51 00
        E 0 90 52 64
        E 0 80 5d 00
        E 0 90 5e 64
        E 0 80 69 00
        E 0 90 6a 64
        E 23 90 3c 64
        E 0 90 48 64
        E 0 80 57 00
        E 0 90 55 64
        E 0 80 63 00
        E 0 90 61 64
        E 10 80 3c 00
        E 0 80 48 00
        E 927 90 45 64
        E 0 90 51 64
        E 0 90 5d 64
        E 0 90 69 64
        <X 23 0 0 0 1 [solo_off]
          /wFbc29sb19vZmZd
        >
        <X 0 0 0 0 1 [solo_off]
          /wFbc29sb19vZmZd
        >
        <X 0 0 0 0 1 [solo_off]
          /wFbc29sb19vZmZd
        >
        <X 0 0 0 0 1 [solo_off]
          /wFbc29sb19vZmZd
        >
        E 0 90 3e 64
        E 0 90 4a 64
        E 0 80 55 00
        E 0 90 56 64
        E 0 90 58 64
        E 0 80 61 00
        E 0 90 62 64
        E 0 90 64 64
        E 10 80 3e 00
        E 0 80 4a 00
        E 0 80 56 00
        E 0 80 58 00
        E 0 80 62 00
        E 0 80 64 00
        E 470 90 3e 64
        E 0 90 4a 64
        E 0 90 56 64
        E 0 90 58 64
        E 0 90 62 64
        E 0 90 64 64
        E 10 80 3e 00
        E 0 80 4a 00
        E 0 80 56 00
        E 0 80 58 00
        E 0 80 62 00
        E 0 80 64 00
        E 305 90 55 64
        E 0 90 61 64
        E 10 80 55 00
        E 0 80 61 00
        E 155 90 3d 64
        E 0 90 49 64
        E 0 90 55 64
        E 0 90 56 64
        E 0 90 61 64
        E 0 90 62 64
        E 10 80 3d 00
        E 0 80 49 00
        E 0 80 55 00
        E 0 80 56 00
        E 0 80 61 00
        E 0 80 62 00
        E 470 90 3d 64
        E 0 90 49 64
        E 0 90 55 64
        E 0 90 56 64
        E 0 90 61 64
        E 0 90 62 64
        E 10 80 3d 00
        E 0 80 49 00
        E 0 80 55 00
        E 0 80 56 00
        E 0 80 61 00
        E 0 80 62 00
        E 305 90 54 64
        E 0 90 60 64
        E 10 80 54 00
        E 0 80 60 00
        E 155 90 3c 64
        E 0 90 48 64
        E 0 90 4a 64
        E 0 90 54 64
        E 0 90 56 64
        E 0 90 60 64
        E 0 90 62 64
        E 10 80 3c 00
        E 0 80 48 00
        E 0 80 4a 00
        E 0 80 54 00
        E 0 80 56 00
        E 0 80 60 00
        E 0 80 62 00
        E 470 90 3c 64
        E 0 90 48 64
        E 0 90 4a 64
        E 0 90 54 64
        E 0 90 56 64
        E 0 90 60 64
        E 0 90 62 64
        E 10 80 3c 00
        E 0 80 48 00
        E 0 80 4a 00
        E 0 80 54 00
        E 0 80 56 00
        E 0 80 60 00
        E 0 80 62 00
        E 470 90 3d 64
        E 0 90 49 64
        E 0 90 55 64
        E 0 90 56 64
        E 0 90 61 64
        E 0 90 62 64
        E 10 80 3d 00
        E 0 80 49 00
        E 0 80 55 00
        E 0 80 56 00
        E 0 80 61 00
        E 0 80 62 00
        E 470 90 3d 64
        E 0 90 49 64
        E 0 90 55 64
        E 0 90 56 64
        E 0 90 61 64
        E 0 90 62 64
        E 10 80 3d 00
        E 0 80 49 00
        E 0 80 55 00
        E 0 80 56 00
        E 0 80 61 00
        E 0 80 62 00
        E 470 90 3e 64
        E 0 90 4a 64
        E 0 90 58 64
        E 0 90 56 64
        E 0 90 64 64
        E 0 90 62 64
        E 10 80 3e 00
        E 0 80 4a 00
        E 0 80 58 00
        E 0 80 56 00
        E 0 80 64 00
        E 0 80 62 00
        E 470 90 3e 64
        E 0 90 4a 64
        E 0 90 58 64
        E 0 90 56 64
        E 0 90 64 64
        E 0 90 62 64
        E 10 80 3e 00
        E 0 80 4a 00
        E 0 80 58 00
        E 0 80 56 00
        E 0 80 64 00
        E 0 80 62 00
        E 305 90 55 64
        E 0 90 61 64
        E 10 80 55 00
        E 0 80 61 00
        E 155 90 3d 64
        E 0 90 48 64
        E 0 90 49 64
        E 0 90 54 64
        E 0 90 55 64
        E 0 90 60 64
        E 0 90 61 64
        E 10 80 3d 00
        E 0 80 48 00
        E 0 80 49 00
        E 0 80 54 00
        E 0 80 55 00
        E 0 80 60 00
        E 0 80 61 00
        E 470 90 3d 64
        E 0 90 48 64
        E 0 90 49 64
        E 0 90 54 64
        E 0 90 55 64
        E 0 90 60 64
        E 0 90 61 64
        E 10 80 3d 00
        E 0 80 48 00
        E 0 80 49 00
        E 0 80 54 00
        E 0 80 55 00
        E 0 80 60 00
        E 0 80 61 00
        E 447 90 43 64
        E 0 90 4f 64
        E 0 90 5b 64
        E 0 90 67 64
        E 23 90 3c 64
        E 0 90 48 64
        E 0 90 4a 64
        E 0 90 54 64
        E 0 90 56 64
        E 0 90 60 64
        E 0 90 62 64
        E 10 80 3c 00
        E 0 80 48 00
        E 0 80 4a 00
        E 0 80 54 00
        E 0 80 56 00
        E 0 80 60 00
        E 0 80 62 00
        E 305 90 3c 64
        E 0 90 48 64
        E 0 90 4a 64
        E 0 90 54 64
        E 0 90 56 64
        E 0 90 60 64
        E 0 90 62 64
        E 10 80 3c 00
        E 0 80 48 00
        E 0 80 4a 00
        E 0 80 54 00
        E 0 80 56 00
        E 0 80 60 00
        E 0 80 62 00
        E 320 90 3c 64
        E 0 90 48 64
        E 0 90 4a 64
        E 0 90 54 64
        E 0 90 56 64
        E 0 90 60 64
        E 0 90 62 64
        E 10 80 3c 00
        E 0 80 48 00
        E 0 80 4a 00
        E 0 80 54 00
        E 0 80 56 00
        E 0 80 60 00
        E 0 80 62 00
        E 305 90 3d 64
        E 0 90 49 64
        E 0 90 55 64
        E 0 90 56 64
        E 0 90 61 64
        E 0 90 62 64
        E 10 80 3d 00
        E 0 80 49 00
        E 0 80 55 00
        E 0 80 56 00
        E 0 80 61 00
        E 0 80 62 00
        E 305 90 3d 64
        E 0 90 49 64
        E 0 90 55 64
        E 0 90 56 64
        E 0 90 61 64
        E 0 90 62 64
        E 10 80 3d 00
        E 0 80 49 00
        E 0 80 55 00
        E 0 80 56 00
        E 0 80 61 00
        E 0 80 62 00
        E 320 90 3d 64
        E 0 90 49 64
        E 0 90 55 64
        E 0 90 56 64
        E 0 90 61 64
        E 0 90 62 64
        E 10 80 3d 00
        E 0 80 49 00
        E 0 80 55 00
        E 0 80 56 00
        E 0 80 61 00
        E 0 80 62 00
        E 162 80 43 00
        E 0 80 4f 00
        E 0 80 5b 00
        E 0 80 67 00
        E 143 90 3e 64
        E 0 90 4a 64
        E 0 90 56 64
        E 0 90 58 64
        E 0 90 62 64
        E 0 90 64 64
        E 10 80 3e 00
        E 0 80 4a 00
        E 0 80 56 00
        E 0 80 58 00
        E 0 80 62 00
        E 0 80 64 00
        E 470 90 3e 64
        E 0 90 4a 64
        E 0 90 56 64
        E 0 90 58 64
        E 0 90 62 64
        E 0 90 64 64
        E 10 80 3e 00
        E 0 80 4a 00
        E 0 80 56 00
        E 0 80 58 00
        E 0 80 62 00
        E 0 80 64 00
        E 305 90 55 64
        E 0 90 61 64
        E 10 80 55 00
        E 0 80 61 00
        E 155 90 3c 64
        E 0 90 48 64
        E 0 90 49 64
        E 0 90 54 64
        E 0 90 55 64
        E 0 90 60 64
        E 0 90 61 64
        E 10 80 3c 00
        E 0 80 48 00
        E 0 80 49 00
        E 0 80 54 00
        E 0 80 55 00
        E 0 80 60 00
        E 0 80 61 00
        E 470 90 3c 64
        E 0 90 48 64
        E 0 90 49 64
        E 0 90 54 64
        E 0 90 55 64
        E 0 90 60 64
        E 0 90 61 64
        E 10 80 3c 00
        E 0 80 48 00
        E 0 80 49 00
        E 0 80 54 00
        E 0 80 55 00
        E 0 80 60 00
        E 0 80 61 00
        E 470 90 3d 64
        E 0 90 49 64
        E 0 90 4a 64
        E 0 90 55 64
        E 0 90 57 64
        E 0 90 61 64
        E 0 90 63 64
        E 10 80 3d 00
        E 0 80 49 00
        E 0 80 4a 00
        E 0 80 55 00
        E 0 80 57 00
        E 0 80 61 00
        E 0 80 63 00
        E 470 90 3d 64
        E 0 90 49 64
        E 0 90 4a 64
        E 0 90 55 64
        E 0 90 57 64
        E 0 90 61 64
        E 0 90 63 64
        E 10 80 3d 00
        E 0 80 49 00
        E 0 80 4a 00
        E 0 80 55 00
        E 0 80 57 00
        E 0 80 61 00
        E 0 80 63 00
        E 305 90 54 64
        E 0 90 60 64
        E 10 80 54 00
        E 0 80 60 00
        E 155 90 3c 64
        E 0 90 48 64
        E 0 90 49 64
        E 0 90 54 64
        E 0 90 55 64
        E 0 90 60 64
        E 0 90 61 64
        E 10 80 3c 00
        E 0 80 48 00
        E 0 80 49 00
        E 0 80 54 00
        E 0 80 55 00
        E 0 80 60 00
        E 0 80 61 00
        E 470 90 3c 64
        E 0 90 48 64
        E 0 90 49 64
        E 0 90 54 64
        E 0 90 55 64
        E 0 90 60 64
        E 0 90 61 64
        E 10 80 3c 00
        E 0 80 48 00
        E 0 80 49 00
        E 0 80 54 00
        E 0 80 55 00
        E 0 80 60 00
        E 0 80 61 00
        E 207 90 5b 64
        E 0 90 67 64
        E 98 90 55 64
        E 0 90 61 64
        E 10 80 55 00
        E 0 80 61 00
        E 132 90 43 64
        E 0 90 4f 64
        E 23 90 3d 64
        E 0 90 49 64
        E 0 90 55 64
        E 0 90 56 64
        E 0 90 61 64
        E 0 90 62 64
        E 3840 80 3d 00
        E 0 90 3d 64
        E 0 80 49 00
        E 0 90 49 64
        E 0 80 55 00
        E 0 80 56 00
        E 0 90 55 64
        E 0 90 56 64
        E 0 80 61 00
        E 0 80 62 00
        E 0 90 61 64
        E 0 90 62 64
        E 3817 80 46 00
        E 0 80 45 00
        E 0 80 52 00
        E 0 80 51 00
        E 0 80 5e 00
        E 0 80 5d 00
        E 0 80 6a 00
        E 0 80 69 00
        <X 23 0 0 0 1 [idle]
          /wFbaWRsZV0=
        >
        <X 0 0 0 0 1 [idle]
          /wFbaWRsZV0=
        >
        <X 0 0 0 0 1 [idle]
          /wFbaWRsZV0=
        >
        <X 0 0 0 0 1 [idle]
          /wFbaWRsZV0=
        >
        E 0 80 3d 00
        E 0 80 49 00
        E 0 80 55 00
        E 0 80 56 00
        E 0 80 61 00
        E 0 80 62 00
        E 97 80 43 00
        E 0 80 4f 00
        E 0 80 5b 00
        E 0 80 67 00
        E 6600 90 45 64
        E 0 90 51 64
        E 0 90 5d 64
        E 0 90 69 64
        E 23 90 3d 64
        E 0 90 4b 64
        E 0 90 58 64
        E 0 90 64 64
        E 10 80 3d 00
        E 0 80 4b 00
        <X 950 0 0 0 1 [play]
          /wFbcGxheV0=
        >
        <X 0 0 0 0 1 [play]
          /wFbcGxheV0=
        >
        <X 0 0 0 0 1 [play]
          /wFbcGxheV0=
        >
        <X 0 0 0 0 1 [play]
          /wFbcGxheV0=
        >
        E 0 90 3e 64
        E 0 90 4a 64
        E 0 80 58 00
        E 0 90 56 64
        E 0 80 64 00
        E 0 90 62 64
        E 10 80 3e 00
        E 927 80 45 00
        E 0 90 46 64
        E 0 80 51 00
        E 0 90 52 64
        E 0 80 5d 00
        E 0 90 5e 64
        E 0 80 69 00
        E 0 90 6a 64
        E 23 90 3d 64
        E 0 80 4a 00
        E 0 90 49 64
        E 0 80 56 00
        E 0 90 55 64
        E 0 80 62 00
        E 0 90 61 64
        E 10 80 3d 00
        E 950 90 3c 64
        E 0 80 49 00
        E 0 90 48 64
        E 0 80 55 00
        E 0 90 54 64
        E 0 80 61 00
        E 0 90 60 64
        E 10 80 3c 00
        E 687 90 43 64
        E 0 90 45 64
        E 0 90 4f 64
        E 0 90 51 64
        E 0 90 5b 64
        E 0 90 5d 64
        E 0 90 67 64
        E 0 90 69 64
        E 23 80 48 00
        E 0 80 54 00
        E 0 80 60 00
        E 75 90 3c 64
        E 0 90 48 64
        E 0 90 4a 64
        E 0 90 54 64
        E 0 90 56 64
        E 0 90 60 64
        E 0 90 62 64
        E 3720 80 3c 00
        E 0 80 48 00
        E 0 80 4a 00
        E 0 80 54 00
        E 0 80 56 00
        E 0 80 60 00
        E 0 80 62 00
        E 22 80 43 00
        E 0 80 4f 00
        E 0 80 5b 00
        E 0 80 67 00
        E 263 90 3e 64
        E 0 90 49 64
        E 0 90 4b 64
        E 0 90 55 64
        E 0 90 58 64
        E 0 90 61 64
        E 0 90 64 64
        E 10 80 3e 00
        E 0 80 49 00
        E 0 80 4b 00
        E 0 80 55 00
        E 0 80 58 00
        E 0 80 61 00
        E 0 80 64 00
        E 470 90 3d 64
        E 0 90 49 64
        E 0 90 4a 64
        E 0 90 55 64
        E 0 90 57 64
        E 0 90 61 64
        E 0 90 63 64
        E 10 80 3d 00
        E 0 80 49 00
        E 0 80 4a 00
        E 0 80 55 00
        E 0 80 57 00
        E 0 80 61 00
        E 0 80 63 00
        E 470 90 3e 64
        E 0 90 49 64
        E 0 90 4b 64
        E 0 90 55 64
        E 0 90 58 64
        E 0 90 61 64
        E 0 90 64 64
        E 10 80 3e 00
        E 0 80 49 00
        E 0 80 4b 00
        E 0 80 55 00
        E 0 80 58 00
        E 0 80 61 00
        E 0 80 64 00
        E 470 90 3e 64
        E 0 90 49 64
        E 0 90 4b 64
        E 0 90 55 64
        E 0 90 58 64
        E 0 90 61 64
        E 0 90 64 64
        E 10 80 3e 00
        E 0 80 49 00
        E 0 80 4b 00
        E 0 80 55 00
        E 0 80 58 00
        E 0 80 61 00
        E 0 80 64 00
        E 305 90 55 64
        E 0 90 61 64
        E 10 80 55 00
        E 0 80 61 00
        E 155 90 3e 64
        E 0 90 49 64
        E 0 90 4b 64
        E 0 90 55 64
        E 0 90 58 64
        E 0 90 61 64
        E 0 90 64 64
        E 10 80 3e 00
        E 0 80 49 00
        E 0 80 4b 00
        E 0 80 55 00
        E 0 80 58 00
        E 0 80 61 00
        E 0 80 64 00
        E 470 90 3e 64
        E 0 90 49 64
        E 0 90 4b 64
        E 0 90 55 64
        E 0 90 58 64
        E 0 90 61 64
        E 0 90 64 64
        E 10 80 3e 00
        E 0 80 49 00
        E 0 80 4b 00
        E 0 80 55 00
        E 0 80 58 00
        E 0 80 61 00
        E 0 80 64 00
        E 305 90 55 64
        E 0 90 61 64
        E 10 80 55 00
        E 0 80 61 00
        <X 155 0 0 0 1 [wail_on]
          /wFbd2FpbF9vbl0=
        >
        <X 0 0 0 0 1 [wail_on]
          /wFbd2FpbF9vbl0=
        >
        <X 0 0 0 0 1 [wail_on]
          /wFbd2FpbF9vbl0=
        >
        <X 0 0 0 0 1 [wail_on]
          /wFbd2FpbF9vbl0=
        >
        E 0 90 3d 64
        E 0 90 49 64
        E 0 90 4a 64
        E 0 90 55 64
        E 0 90 57 64
        E 0 90 61 64
        E 0 90 63 64
        E 10 80 3d 00
        E 0 80 49 00
        E 0 80 4a 00
        E 0 80 55 00
        E 0 80 57 00
        E 0 80 61 00
        E 0 80 63 00
        E 470 90 3d 64
        E 0 90 49 64
        E 0 90 4a 64
        E 0 90 55 64
        E 0 90 57 64
        E 0 90 61 64
        E 0 90 63 64
        E 10 80 3d 00
        E 0 80 49 00
        E 0 80 4a 00
        E 0 80 55 00
        E 0 80 57 00
        E 0 80 61 00
        E 0 80 63 00
        E 447 80 46 00
        E 0 80 45 00
        E 0 90 46 64
        E 0 80 52 00
        E 0 80 51 00
        E 0 90 52 64
        E 0 80 5e 00
        E 0 80 5d 00
        E 0 90 5e 64
        E 0 80 6a 00
        E 0 80 69 00
        E 0 90 6a 64
        E 23 90 3c 64
        E 0 90 48 64
        E 0 90 49 64
        E 0 90 54 64
        E 0 90 55 64
        E 0 90 60 64
        E 0 90 61 64
        E 10 80 3c 00
        E 0 80 48 00
        E 0 80 49 00
        E 0 80 54 00
        E 0 80 55 00
        E 0 80 60 00
        E 0 80 61 00
        E 470 90 3c 64
        E 0 90 48 64
        E 0 90 49 64
        E 0 90 54 64
        E 0 90 55 64
        E 0 90 60 64
        E 0 90 61 64
        E 10 80 3c 00
        E 0 80 48 00
        E 0 80 49 00
        E 0 80 54 00
        E 0 80 55 00
        E 0 80 60 00
        E 0 80 61 00
        E 447 80 46 00
        E 0 90 45 64
        E 0 80 52 00
        E 0 90 51 64
        E 0 80 5e 00
        E 0 90 5d 64
        E 0 80 6a 00
        E 0 90 69 64
        E 23 90 3d 64
        E 0 90 48 64
        E 0 90 4a 64
        E 0 90 54 64
        E 0 90 56 64
        E 0 90 60 64
        E 0 90 62 64
        E 10 80 3d 00
        E 0 80 48 00
        E 0 80 4a 00
        E 0 80 54 00
        E 0 80 56 00
        E 0 80 60 00
        E 0 80 62 00
        E 470 90 3d 64
        E 0 90 48 64
        E 0 90 4a 64
        E 0 90 54 64
        E 0 90 56 64
        E 0 90 60 64
        E 0 90 62 64
        E 10 80 3d 00
        E 0 80 48 00
        E 0 80 4a 00
        E 0 80 54 00
        E 0 80 56 00
        E 0 80 60 00
        E 0 80 62 00
        E 207 80 45 00
        E 0 90 46 64
        E 0 80 51 00
        E 0 90 52 64
        E 0 80 5d 00
        E 0 90 5e 64
        E 0 80 69 00
        E 0 90 6a 64
        E 98 90 55 64
        E 0 90 61 64
        E 10 80 55 00
        E 0 80 61 00
        E 155 90 3e 64
        E 0 90 49 64
        E 0 90 56 64
        E 0 90 55 64
        E 0 90 62 64
        E 0 90 61 64
        E 10 80 3e 00
        E 0 80 49 00
        E 0 80 56 00
        E 0 80 55 00
        E 0 80 62 00
        E 0 80 61 00
        E 470 90 3e 64
        E 0 90 49 64
        E 0 90 56 64
        E 0 90 55 64
        E 0 90 62 64
        E 0 90 61 64
        E 10 80 3e 00
        E 0 80 49 00
        E 0 80 56 00
        E 0 80 55 00
        E 0 80 62 00
        E 0 80 61 00
        E 207 80 46 00
        E 0 90 45 64
        E 0 80 52 00
        E 0 90 51 64
        E 0 80 5e 00
        E 0 90 5d 64
        E 0 80 6a 00
        E 0 90 69 64
        E 263 90 3c 64
        E 0 90 48 64
        E 0 90 49 64
        E 0 90 54 64
        E 0 90 55 64
        E 0 90 60 64
        E 0 90 61 64
        E 10 80 3c 00
        E 0 80 48 00
        E 0 80 49 00
        E 0 80 54 00
        E 0 80 55 00
        E 0 80 60 00
        E 0 80 61 00
        E 470 90 3c 64
        E 0 90 48 64
        E 0 90 49 64
        E 0 90 54 64
        E 0 90 55 64
        E 0 90 60 64
        E 0 90 61 64
        E 10 80 3c 00
        E 0 80 48 00
        E 0 80 49 00
        E 0 80 54 00
        E 0 80 55 00
        E 0 80 60 00
        E 0 80 61 00
        E 207 80 45 00
        E 0 90 46 64
        E 0 80 51 00
        E 0 90 52 64
        E 0 80 5d 00
        E 0 90 5e 64
        E 0 80 69 00
        E 0 90 6a 64
        E 263 90 3e 64
        E 0 90 4a 64
        E 0 90 49 64
        E 0 90 57 64
        E 0 90 55 64
        E 0 90 63 64
        E 0 90 61 64
        E 10 80 3e 00
        E 0 80 4a 00
        E 0 80 49 00
        E 0 80 57 00
        E 0 80 55 00
        E 0 80 63 00
        E 0 80 61 00
        E 470 90 3e 64
        E 0 90 4a 64
        E 0 90 49 64
        E 0 90 57 64
        E 0 90 55 64
        E 0 90 63 64
        E 0 90 61 64
        E 10 80 3e 00
        E 0 80 4a 00
        E 0 80 49 00
        E 0 80 57 00
        E 0 80 55 00
        E 0 80 63 00
        E 0 80 61 00
        E 207 80 46 00
        E 0 90 45 64
        E 0 80 52 00
        E 0 90 51 64
        E 0 80 5e 00
        E 0 90 5d 64
        E 0 80 6a 00
        E 0 90 69 64
        E 263 90 3d 64
        E 0 90 49 64
        E 0 90 55 64
        E 0 90 56 64
        E 0 90 61 64
        E 0 90 62 64
        E 10 80 3d 00
        E 0 80 49 00
        E 0 80 55 00
        E 0 80 56 00
        E 0 80 61 00
        E 0 80 62 00
        E 470 90 3d 64
        E 0 90 49 64
        E 0 90 55 64
        E 0 90 56 64
        E 0 90 61 64
        E 0 90 62 64
        E 10 80 3d 00
        E 0 80 49 00
        E 0 80 55 00
        E 0 80 56 00
        E 0 80 61 00
        E 0 80 62 00
        E 207 80 45 00
        E 0 90 46 64
        E 0 80 51 00
        E 0 90 52 64
        E 0 80 5d 00
        E 0 90 5e 64
        E 0 80 69 00
        E 0 90 6a 64
        E 263 90 3c 64
        E 0 90 48 64
        E 0 90 49 64
        E 0 90 54 64
        E 0 90 55 64
        E 0 90 60 64
        E 0 90 61 64
        E 10 80 3c 00
        E 0 80 48 00
        E 0 80 49 00
        E 0 80 54 00
        E 0 80 55 00
        E 0 80 60 00
        E 0 80 61 00
        E 470 90 3c 64
        E 0 90 48 64
        E 0 90 49 64
        E 0 90 54 64
        E 0 90 55 64
        E 0 90 60 64
        E 0 90 61 64
        E 10 80 3c 00
        E 0 80 48 00
        E 0 80 49 00
        E 0 80 54 00
        E 0 80 55 00
        E 0 80 60 00
        E 0 80 61 00
        E 207 80 46 00
        E 0 90 45 64
        E 0 80 52 00
        E 0 90 51 64
        E 0 80 5e 00
        E 0 90 5d 64
        E 0 80 6a 00
        E 0 90 69 64
        E 98 90 54 64
        E 0 90 60 64
        E 10 80 54 00
        E 0 80 60 00
        E 155 90 3d 64
        E 0 90 48 64
        E 0 90 4a 64
        E 0 90 54 64
        E 0 90 56 64
        E 0 90 60 64
        E 0 90 62 64
        E 10 80 3d 00
        E 0 80 48 00
        E 0 80 4a 00
        E 0 80 54 00
        E 0 80 56 00
        E 0 80 60 00
        E 0 80 62 00
        E 470 90 3d 64
        E 0 90 48 64
        E 0 90 4a 64
        E 0 90 54 64
        E 0 90 56 64
        E 0 90 60 64
        E 0 90 62 64
        E 10 80 3d 00
        E 0 80 48 00
        E 0 80 4a 00
        E 0 80 54 00
        E 0 80 56 00
        E 0 80 60 00
        E 0 80 62 00
        E 207 80 45 00
        E 0 90 46 64
        E 0 80 51 00
        E 0 90 52 64
        E 0 80 5d 00
        E 0 90 5e 64
        E 0 80 69 00
        E 0 90 6a 64
        E 98 90 54 64
        E 0 90 60 64
        E 10 80 54 00
        E 0 80 60 00
        E 155 90 3c 64
        E 0 90 49 64
        E 0 90 48 64
        E 0 90 55 64
        E 0 90 54 64
        E 0 90 61 64
        E 0 90 60 64
        E 10 80 3c 00
        E 0 80 49 00
        E 0 80 48 00
        E 0 80 55 00
        E 0 80 54 00
        E 0 80 61 00
        E 0 80 60 00
        E 470 90 3c 64
        E 0 90 49 64
        E 0 90 48 64
        E 0 90 55 64
        E 0 90 54 64
        E 0 90 61 64
        E 0 90 60 64
        E 10 80 3c 00
        E 0 80 49 00
        E 0 80 48 00
        E 0 80 55 00
        E 0 80 54 00
        E 0 80 61 00
        E 0 80 60 00
        E 207 80 46 00
        E 0 90 45 64
        E 0 80 52 00
        E 0 90 51 64
        E 0 80 5e 00
        E 0 90 5d 64
        E 0 80 6a 00
        E 0 90 69 64
        E 263 90 3d 64
        E 0 90 4a 64
        E 0 90 48 64
        E 0 90 56 64
        E 0 90 54 64
        E 0 90 62 64
        E 0 90 60 64
        E 10 80 3d 00
        E 0 80 4a 00
        E 0 80 48 00
        E 0 80 56 00
        E 0 80 54 00
        E 0 80 62 00
        E 0 80 60 00
        E 470 90 3d 64
        E 0 90 4a 64
        E 0 90 48 64
        E 0 90 56 64
        E 0 90 54 64
        E 0 90 62 64
        E 0 90 60 64
        E 10 80 3d 00
        E 0 80 4a 00
        E 0 80 48 00
        E 0 80 56 00
        E 0 80 54 00
        E 0 80 62 00
        E 0 80 60 00
        E 207 80 45 00
        E 0 90 46 64
        E 0 80 51 00
        E 0 90 52 64
        E 0 80 5d 00
        E 0 90 5e 64
        E 0 80 69 00
        E 0 90 6a 64
        E 263 90 3e 64
        E 0 90 49 64
        E 0 90 55 64
        E 0 90 56 64
        E 0 90 61 64
        E 0 90 62 64
        E 10 80 3e 00
        E 0 80 49 00
        E 0 80 55 00
        E 0 80 56 00
        E 0 80 61 00
        E 0 80 62 00
        E 470 90 3e 64
        E 0 90 49 64
        E 0 90 55 64
        E 0 90 56 64
        E 0 90 61 64
        E 0 90 62 64
        E 10 80 3e 00
        E 0 80 49 00
        E 0 80 55 00
        E 0 80 56 00
        E 0 80 61 00
        E 0 80 62 00
        E 207 80 46 00
        E 0 90 45 64
        E 0 80 52 00
        E 0 90 51 64
        E 0 80 5e 00
        E 0 90 5d 64
        E 0 80 6a 00
        E 0 90 69 64
        E 263 90 3c 64
        E 0 90 48 64
        E 0 90 49 64
        E 0 90 54 64
        E 0 90 55 64
        E 0 90 60 64
        E 0 90 61 64
        E 10 80 3c 00
        E 0 80 48 00
        E 0 80 49 00
        E 0 80 54 00
        E 0 80 55 00
        E 0 80 60 00
        E 0 80 61 00
        E 470 90 3c 64
        E 0 90 48 64
        E 0 90 49 64
        E 0 90 54 64
        E 0 90 55 64
        E 0 90 60 64
        E 0 90 61 64
        E 10 80 3c 00
        E 0 80 48 00
        E 0 80 49 00
        E 0 80 54 00
        E 0 80 55 00
        E 0 80 60 00
        E 0 80 61 00
        E 207 80 45 00
        E 0 90 46 64
        E 0 80 51 00
        E 0 90 52 64
        E 0 80 5d 00
        E 0 90 5e 64
        E 0 80 69 00
        E 0 90 6a 64
        E 263 90 3e 64
        E 0 90 4a 64
        E 0 90 49 64
        E 0 90 57 64
        E 0 90 55 64
        E 0 90 63 64
        E 0 90 61 64
        E 10 80 3e 00
        E 0 80 4a 00
        E 0 80 49 00
        E 0 80 57 00
        E 0 80 55 00
        E 0 80 63 00
        E 0 80 61 00
        E 470 90 3e 64
        E 0 90 4a 64
        E 0 90 49 64
        E 0 90 57 64
        E 0 90 55 64
        E 0 90 63 64
        E 0 90 61 64
        E 10 80 3e 00
        E 0 80 4a 00
        E 0 80 49 00
        E 0 80 57 00
        E 0 80 55 00
        E 0 80 63 00
        E 0 80 61 00
        E 207 80 46 00
        E 0 90 45 64
        E 0 80 52 00
        E 0 90 51 64
        E 0 80 5e 00
        E 0 90 5d 64
        E 0 80 6a 00
        E 0 90 69 64
        E 263 90 3d 64
        E 0 90 49 64
        E 0 90 55 64
        E 0 90 56 64
        E 0 90 61 64
        E 0 90 62 64
        E 10 80 3d 00
        E 0 80 49 00
        E 0 80 55 00
        E 0 80 56 00
        E 0 80 61 00
        E 0 80 62 00
        E 470 90 3d 64
        E 0 90 49 64
        E 0 90 55 64
        E 0 90 56 64
        E 0 90 61 64
        E 0 90 62 64
        E 10 80 3d 00
        E 0 80 49 00
        E 0 80 55 00
        E 0 80 56 00
        E 0 80 61 00
        E 0 80 62 00
        E 207 80 45 00
        E 0 90 46 64
        E 0 80 51 00
        E 0 90 52 64
        E 0 80 5d 00
        E 0 90 5e 64
        E 0 80 69 00
        E 0 90 6a 64
        E 98 90 54 64
        E 0 90 60 64
        E 10 80 54 00
        E 0 80 60 00
        E 155 90 3c 64
        E 0 90 48 64
        E 0 90 49 64
        E 0 90 54 64
        E 0 90 55 64
        E 0 90 60 64
        E 0 90 61 64
        E 10 80 3c 00
        E 0 80 48 00
        E 0 80 49 00
        E 0 80 54 00
        E 0 80 55 00
        E 0 80 60 00
        E 0 80 61 00
        E 470 90 3c 64
        E 0 90 48 64
        E 0 90 49 64
        E 0 90 54 64
        E 0 90 55 64
        E 0 90 60 64
        E 0 90 61 64
        E 10 80 3c 00
        E 0 80 48 00
        E 0 80 49 00
        E 0 80 54 00
        E 0 80 55 00
        E 0 80 60 00
        E 0 80 61 00
        E 207 80 46 00
        E 0 90 45 64
        E 0 80 52 00
        E 0 90 51 64
        E 0 80 5e 00
        E 0 90 5d 64
        E 0 80 6a 00
        E 0 90 69 64
        E 263 90 3d 64
        E 0 90 48 64
        E 0 90 4a 64
        E 0 90 54 64
        E 0 90 56 64
        E 0 90 60 64
        E 0 90 62 64
        E 10 80 3d 00
        E 0 80 48 00
        E 0 80 4a 00
        E 0 80 54 00
        E 0 80 56 00
        E 0 80 60 00
        E 0 80 62 00
        E 470 90 3d 64
        E 0 90 48 64
        E 0 90 4a 64
        E 0 90 54 64
        E 0 90 56 64
        E 0 90 60 64
        E 0 90 62 64
        E 10 80 3d 00
        E 0 80 48 00
        E 0 80 4a 00
        E 0 80 54 00
        E 0 80 56 00
        E 0 80 60 00
        E 0 80 62 00
        E 207 80 45 00
        E 0 90 46 64
        E 0 80 51 00
        E 0 90 52 64
        E 0 80 5d 00
        E 0 90 5e 64
        E 0 80 69 00
        E 0 90 6a 64
        E 98 90 54 64
        E 0 90 60 64
        E 10 80 54 00
        E 0 80 60 00
        E 155 90 3c 64
        E 0 90 49 64
        E 0 90 48 64
        E 0 90 55 64
        E 0 90 54 64
        E 0 90 61 64
        E 0 90 60 64
        E 10 80 3c 00
        E 0 80 49 00
        E 0 80 48 00
        E 0 80 55 00
        E 0 80 54 00
        E 0 80 61 00
        E 0 80 60 00
        E 470 90 3c 64
        E 0 90 49 64
        E 0 90 48 64
        E 0 90 55 64
        E 0 90 54 64
        E 0 90 61 64
        E 0 90 60 64
        E 10 80 3c 00
        E 0 80 49 00
        E 0 80 48 00
        E 0 80 55 00
        E 0 80 54 00
        E 0 80 61 00
        E 0 80 60 00
        E 207 80 46 00
        E 0 90 45 64
        E 0 80 52 00
        E 0 90 51 64
        E 0 80 5e 00
        E 0 90 5d 64
        E 0 80 6a 00
        E 0 90 69 64
        E 98 90 54 64
        E 0 90 60 64
        E 10 80 54 00
        E 0 80 60 00
        E 155 90 3d 64
        E 0 90 4a 64
        E 0 90 48 64
        E 0 90 56 64
        E 0 90 54 64
        E 0 90 62 64
        E 0 90 60 64
        E 10 80 3d 00
        E 0 80 4a 00
        E 0 80 48 00
        E 0 80 56 00
        E 0 80 54 00
        E 0 80 62 00
        E 0 80 60 00
        E 470 90 3d 64
        E 0 90 4a 64
        E 0 90 48 64
        E 0 90 56 64
        E 0 90 54 64
        E 0 90 62 64
        E 0 90 60 64
        E 10 80 3d 00
        E 0 80 4a 00
        E 0 80 48 00
        E 0 80 56 00
        E 0 80 54 00
        E 0 80 62 00
        E 0 80 60 00
        E 207 80 45 00
        E 0 90 46 64
        E 0 80 51 00
        E 0 90 52 64
        E 0 80 5d 00
        E 0 90 5e 64
        E 0 80 69 00
        E 0 90 6a 64
        E 98 90 55 64
        E 0 90 61 64
        E 10 80 55 00
        E 0 80 61 00
        E 155 90 3e 64
        E 0 90 49 64
        E 0 90 55 64
        E 0 90 56 64
        E 0 90 61 64
        E 0 90 62 64
        E 10 80 3e 00
        E 0 80 49 00
        E 0 80 55 00
        E 0 80 56 00
        E 0 80 61 00
        E 0 80 62 00
        E 470 90 3e 64
        E 0 90 49 64
        E 0 90 55 64
        E 0 90 56 64
        E 0 90 61 64
        E 0 90 62 64
        E 10 80 3e 00
        E 0 80 49 00
        E 0 80 55 00
        E 0 80 56 00
        E 0 80 61 00
        E 0 80 62 00
        E 207 80 46 00
        E 0 90 45 64
        E 0 80 52 00
        E 0 90 51 64
        E 0 80 5e 00
        E 0 90 5d 64
        E 0 80 6a 00
        E 0 90 69 64
        E 98 90 54 64
        E 0 90 60 64
        E 10 80 54 00
        E 0 80 60 00
        E 155 90 3c 64
        E 0 90 48 64
        E 0 90 49 64
        E 0 90 54 64
        E 0 90 55 64
        E 0 90 60 64
        E 0 90 61 64
        E 10 80 3c 00
        E 0 80 48 00
        E 0 80 49 00
        E 0 80 54 00
        E 0 80 55 00
        E 0 80 60 00
        E 0 80 61 00
        E 470 90 3c 64
        E 0 90 48 64
        E 0 90 49 64
        E 0 90 54 64
        E 0 90 55 64
        E 0 90 60 64
        E 0 90 61 64
        E 10 80 3c 00
        E 0 80 48 00
        E 0 80 49 00
        E 0 80 54 00
        E 0 80 55 00
        E 0 80 60 00
        E 0 80 61 00
        E 207 80 45 00
        E 0 90 46 64
        E 0 80 51 00
        E 0 90 52 64
        E 0 80 5d 00
        E 0 90 5e 64
        E 0 80 69 00
        E 0 90 6a 64
        E 263 90 3e 64
        E 0 90 4a 64
        E 0 90 49 64
        E 0 90 57 64
        E 0 90 55 64
        E 0 90 63 64
        E 0 90 61 64
        E 10 80 3e 00
        E 0 80 4a 00
        E 0 80 49 00
        E 0 80 57 00
        E 0 80 55 00
        E 0 80 63 00
        E 0 80 61 00
        E 470 90 3e 64
        E 0 90 4a 64
        E 0 90 49 64
        E 0 90 57 64
        E 0 90 55 64
        E 0 90 63 64
        E 0 90 61 64
        E 10 80 3e 00
        E 0 80 4a 00
        E 0 80 49 00
        E 0 80 57 00
        E 0 80 55 00
        E 0 80 63 00
        E 0 80 61 00
        E 207 80 46 00
        E 0 90 45 64
        E 0 80 52 00
        E 0 90 51 64
        E 0 80 5e 00
        E 0 90 5d 64
        E 0 80 6a 00
        E 0 90 69 64
        E 263 90 3d 64
        E 0 90 49 64
        E 0 90 55 64
        E 0 90 56 64
        E 0 90 61 64
        E 0 90 62 64
        E 10 80 3d 00
        E 0 80 49 00
        E 0 80 55 00
        E 0 80 56 00
        E 0 80 61 00
        E 0 80 62 00
        E 470 90 3d 64
        E 0 90 49 64
        E 0 90 55 64
        E 0 90 56 64
        E 0 90 61 64
        E 0 90 62 64
        E 10 80 3d 00
        E 0 80 49 00
        E 0 80 55 00
        E 0 80 56 00
        E 0 80 61 00
        E 0 80 62 00
        E 207 80 45 00
        E 0 90 46 64
        E 0 80 51 00
        E 0 90 52 64
        E 0 80 5d 00
        E 0 90 5e 64
        E 0 80 69 00
        E 0 90 6a 64
        E 263 90 3c 64
        E 0 90 48 64
        E 0 90 49 64
        E 0 90 54 64
        E 0 90 55 64
        E 0 90 60 64
        E 0 90 61 64
        E 10 80 3c 00
        E 0 80 48 00
        E 0 80 49 00
        E 0 80 54 00
        E 0 80 55 00
        E 0 80 60 00
        E 0 80 61 00
        E 470 90 3c 64
        E 0 90 48 64
        E 0 90 49 64
        E 0 90 54 64
        E 0 90 55 64
        E 0 90 60 64
        E 0 90 61 64
        E 10 80 3c 00
        E 0 80 48 00
        E 0 80 49 00
        E 0 80 54 00
        E 0 80 55 00
        E 0 80 60 00
        E 0 80 61 00
        E 207 80 46 00
        E 0 90 45 64
        E 0 80 52 00
        E 0 90 51 64
        E 0 80 5e 00
        E 0 90 5d 64
        E 0 80 6a 00
        E 0 90 69 64
        E 263 90 3d 64
        E 0 90 48 64
        E 0 90 4a 64
        E 0 90 54 64
        E 0 90 56 64
        E 0 90 60 64
        E 0 90 62 64
        E 10 80 3d 00
        E 0 80 48 00
        E 0 80 4a 00
        E 0 80 54 00
        E 0 80 56 00
        E 0 80 60 00
        E 0 80 62 00
        E 470 90 3d 64
        E 0 90 48 64
        E 0 90 4a 64
        E 0 90 54 64
        E 0 90 56 64
        E 0 90 60 64
        E 0 90 62 64
        E 10 80 3d 00
        E 0 80 48 00
        E 0 80 4a 00
        E 0 80 54 00
        E 0 80 56 00
        E 0 80 60 00
        E 0 80 62 00
        E 207 80 45 00
        E 0 90 46 64
        E 0 80 51 00
        E 0 90 52 64
        E 0 80 5d 00
        E 0 90 5e 64
        E 0 80 69 00
        E 0 90 6a 64
        E 263 90 3c 64
        E 0 90 49 64
        E 0 90 48 64
        E 0 90 55 64
        E 0 90 54 64
        E 0 90 61 64
        E 0 90 60 64
        E 10 80 3c 00
        E 0 80 49 00
        E 0 80 48 00
        E 0 80 55 00
        E 0 80 54 00
        E 0 80 61 00
        E 0 80 60 00
        E 470 90 3c 64
        E 0 90 49 64
        E 0 90 48 64
        E 0 90 55 64
        E 0 90 54 64
        E 0 90 61 64
        E 0 90 60 64
        E 10 80 3c 00
        E 0 80 49 00
        E 0 80 48 00
        E 0 80 55 00
        E 0 80 54 00
        E 0 80 61 00
        E 0 80 60 00
        E 207 80 46 00
        E 0 90 45 64
        E 0 80 52 00
        E 0 90 51 64
        E 0 80 5e 00
        E 0 90 5d 64
        E 0 80 6a 00
        E 0 90 69 64
        E 98 90 54 64
        E 0 90 60 64
        E 10 80 54 00
        E 0 80 60 00
        E 155 90 3d 64
        E 0 90 4a 64
        E 0 90 48 64
        E 0 90 56 64
        E 0 90 54 64
        E 0 90 62 64
        E 0 90 60 64
        E 10 80 3d 00
        E 0 80 4a 00
        E 0 80 48 00
        E 0 80 56 00
        E 0 80 54 00
        E 0 80 62 00
        E 0 80 60 00
        E 470 90 3d 64
        E 0 90 4a 64
        E 0 90 48 64
        E 0 90 56 64
        E 0 90 54 64
        E 0 90 62 64
        E 0 90 60 64
        E 10 80 3d 00
        E 0 80 4a 00
        E 0 80 48 00
        E 0 80 56 00
        E 0 80 54 00
        E 0 80 62 00
        E 0 80 60 00
        E 207 80 45 00
        E 0 90 46 64
        E 0 80 51 00
        E 0 90 52 64
        E 0 80 5d 00
        E 0 90 5e 64
        E 0 80 69 00
        E 0 90 6a 64
        E 98 90 55 64
        E 0 90 61 64
        E 10 80 55 00
        E 0 80 61 00
        E 155 90 3e 64
        E 0 90 49 64
        E 0 90 55 64
        E 0 90 56 64
        E 0 90 61 64
        E 0 90 62 64
        E 10 80 3e 00
        E 0 80 49 00
        E 0 80 55 00
        E 0 80 56 00
        E 0 80 61 00
        E 0 80 62 00
        E 470 90 3e 64
        E 0 90 49 64
        E 0 90 55 64
        E 0 90 56 64
        E 0 90 61 64
        E 0 90 62 64
        E 10 80 3e 00
        E 0 80 49 00
        E 0 80 55 00
        E 0 80 56 00
        E 0 80 61 00
        E 0 80 62 00
        E 207 80 46 00
        E 0 90 45 64
        E 0 80 52 00
        E 0 90 51 64
        E 0 80 5e 00
        E 0 90 5d 64
        E 0 80 6a 00
        E 0 90 69 64
        E 263 90 3c 64
        E 0 90 48 64
        E 0 90 49 64
        E 0 90 54 64
        E 0 90 55 64
        E 0 90 60 64
        E 0 90 61 64
        E 10 80 3c 00
        E 0 80 48 00
        E 0 80 49 00
        E 0 80 54 00
        E 0 80 55 00
        E 0 80 60 00
        E 0 80 61 00
        E 470 90 3c 64
        E 0 90 48 64
        E 0 90 49 64
        E 0 90 54 64
        E 0 90 55 64
        E 0 90 60 64
        E 0 90 61 64
        E 10 80 3c 00
        E 0 80 48 00
        E 0 80 49 00
        E 0 80 54 00
        E 0 80 55 00
        E 0 80 60 00
        E 0 80 61 00
        E 207 90 46 64
        E 0 90 52 64
        E 0 90 5e 64
        E 0 90 6a 64
        E 263 90 3e 64
        E 0 90 49 64
        E 0 90 4b 64
        E 0 90 55 64
        E 0 90 58 64
        E 0 90 61 64
        E 0 90 64 64
        E 10 80 3e 00
        E 0 80 49 00
        E 0 80 4b 00
        E 0 80 55 00
        E 0 80 58 00
        E 0 80 61 00
        E 0 80 64 00
        E 470 90 3d 64
        E 0 90 49 64
        E 0 90 4a 64
        E 0 90 55 64
        E 0 90 57 64
        E 0 90 61 64
        E 0 90 63 64
        E 10 80 3d 00
        E 0 80 49 00
        E 0 80 4a 00
        E 0 80 55 00
        E 0 80 57 00
        E 0 80 61 00
        E 0 80 63 00
        E 470 90 3e 64
        E 0 90 49 64
        E 0 90 4b 64
        E 0 90 55 64
        E 0 90 58 64
        E 0 90 61 64
        E 0 90 64 64
        E 10 80 3e 00
        E 0 80 49 00
        E 0 80 4b 00
        E 0 80 55 00
        E 0 80 58 00
        E 0 80 61 00
        E 0 80 64 00
        E 470 90 3e 64
        E 0 90 49 64
        E 0 90 4b 64
        E 0 90 55 64
        E 0 90 58 64
        E 0 90 61 64
        E 0 90 64 64
        E 10 80 3e 00
        E 0 80 49 00
        E 0 80 4b 00
        E 0 80 55 00
        E 0 80 58 00
        E 0 80 61 00
        E 0 80 64 00
        E 230 90 55 64
        E 0 90 61 64
        E 10 80 55 00
        E 0 80 61 00
        E 230 90 3e 64
        E 0 90 49 64
        E 0 90 4b 64
        E 0 90 55 64
        E 0 90 58 64
        E 0 90 61 64
        E 0 90 64 64
        E 10 80 3e 00
        E 0 80 49 00
        E 0 80 4b 00
        E 0 80 55 00
        E 0 80 58 00
        E 0 80 61 00
        E 0 80 64 00
        E 470 90 3e 64
        E 0 90 49 64
        E 0 90 4b 64
        E 0 90 55 64
        E 0 90 58 64
        E 0 90 61 64
        E 0 90 64 64
        E 10 80 3e 00
        E 0 80 49 00
        E 0 80 4b 00
        E 0 80 55 00
        E 0 80 58 00
        E 0 80 61 00
        E 0 80 64 00
        E 230 90 55 64
        E 0 90 61 64
        E 10 80 55 00
        E 0 80 61 00
        E 230 90 3d 64
        E 0 90 49 64
        E 0 90 4a 64
        E 0 90 55 64
        E 0 90 57 64
        E 0 90 61 64
        E 0 90 63 64
        E 10 80 3d 00
        E 0 80 49 00
        E 0 80 4a 00
        E 0 80 55 00
        E 0 80 57 00
        E 0 80 61 00
        E 0 80 63 00
        E 950 90 3e 64
        E 0 90 4b 64
        E 0 90 58 64
        E 0 90 64 64
        E 480 80 4b 00
        E 0 80 64 00
        E 120 80 58 00
        E 0 90 62 64
        E 10 80 62 00
        E 35 90 58 64
        E 10 80 58 00
        E 65 90 4b 64
        E 0 90 64 64
        E 10 80 4b 00
        E 0 80 64 00
        E 65 90 57 64
        E 10 80 57 00
        E 35 90 63 64
        E 10 80 63 00
        E 110 90 58 64
        E 0 90 62 64
        E 10 80 58 00
        E 0 80 62 00
        E 110 90 4b 64
        E 0 90 64 64
        E 10 80 4b 00
        E 0 80 64 00
        E 35 90 57 64
        E 10 80 57 00
        E 65 90 63 64
        E 10 80 63 00
        E 65 90 58 64
        E 10 80 58 00
        E 35 90 62 64
        E 10 80 62 00
        E 110 90 4b 64
        E 0 90 57 64
        E 0 90 64 64
        E 10 80 4b 00
        E 0 80 57 00
        E 0 80 64 00
        E 110 90 63 64
        E 10 80 63 00
        E 35 90 58 64
        E 10 80 58 00
        E 65 90 62 64
        E 10 80 62 00
        E 65 90 57 64
        E 10 80 57 00
        E 35 90 4b 64
        E 0 90 64 64
        E 10 80 4b 00
        E 0 80 64 00
        E 110 90 58 64
        E 0 90 63 64
        E 10 80 58 00
        E 0 80 63 00
        E 110 80 3e 00
        E 0 90 62 64
        E 10 80 62 00
        E 35 90 57 64
        E 10 80 57 00
        E 65 90 3d 64
        E 0 90 4a 64
        E 0 90 63 64
        E 10 80 4a 00
        E 0 80 63 00
        E 65 90 56 64
        E 10 80 56 00
        E 35 90 62 64
        E 10 80 62 00
        E 110 90 55 64
        E 0 90 61 64
        E 10 80 55 00
        E 0 80 61 00
        E 110 90 60 64
        E 10 80 60 00
        E 110 90 4a 64
        E 0 90 57 64
        E 0 90 63 64
        E 10 80 4a 00
        E 0 80 57 00
        E 0 80 63 00
        E 155 90 63 64
        E 10 80 63 00
        E 140 90 49 64
        E 0 90 56 64
        E 0 90 62 64
        E 10 80 49 00
        E 0 80 56 00
        E 0 80 62 00
        E 155 90 63 64
        E 10 80 63 00
        E 155 90 58 64
        E 0 90 64 64
        E 10 80 58 00
        E 0 80 64 00
        E 140 90 4a 64
        E 0 90 57 64
        E 0 90 63 64
        E 10 80 4a 00
        E 0 80 57 00
        E 0 80 63 00
        E 155 90 56 64
        E 0 90 62 64
        E 10 80 56 00
        E 0 80 62 00
        E 155 90 49 64
        E 0 90 55 64
        E 0 90 61 64
        E 10 80 49 00
        E 0 80 55 00
        E 0 80 61 00
        E 65 80 3d 00
        E 165 90 3c 64
        E 0 90 49 64
        E 0 90 55 64
        E 0 90 61 64
        E 3600 80 3c 00
        E 0 80 49 00
        E 0 80 55 00
        E 0 80 61 00
        <X 75 0 0 0 1 [idle]
          /wFbaWRsZV0=
        >
        <X 0 0 0 0 1 [wail_off]
          /wFbd2FpbF9vZmZd
        >
        <X 0 0 0 0 1 [idle]
          /wFbaWRsZV0=
        >
        <X 0 0 0 0 1 [wail_off]
          /wFbd2FpbF9vZmZd
        >
        <X 0 0 0 0 1 [idle]
          /wFbaWRsZV0=
        >
        <X 0 0 0 0 1 [wail_off]
          /wFbd2FpbF9vZmZd
        >
        <X 0 0 0 0 1 [idle]
          /wFbaWRsZV0=
        >
        <X 0 0 0 0 1 [wail_off]
          /wFbd2FpbF9vZmZd
        >
        E 0 90 3c 64
        E 0 90 49 64
        E 0 90 4a 64
        E 0 90 55 64
        E 0 90 57 64
        E 0 90 61 64
        E 0 90 63 64
        E 10 80 3c 00
        E 0 80 49 00
        E 0 80 4a 00
        E 0 80 55 00
        E 0 80 57 00
        E 0 80 61 00
        E 0 80 63 00
        E 207 80 45 00
        E 0 80 46 00
        E 0 80 51 00
        E 0 80 52 00
        E 0 80 5d 00
        E 0 80 5e 00
        E 0 80 69 00
        E 0 80 6a 00
        E 263 b0 7b 00
        CCINTERP 32
        CHASE_CC_TAKEOFFS 1
        GUID {494D1E38-B69F-4396-8C9D-2B04E81ECE84}
        IGNTEMPO 0 120 4 4
        SRCCOLOR 13
        VELLANE -1 100 0
        CFGEDITVIEW 0 0.003519 50 12 0 -1 0 0 0 0.5
        KEYSNAP 0
        TRACKSEL 0
        EVTFILTER 0 -1 -1 -1 -1 0 0 0 0 -1 -1 -1 -1 0 -1 0 -1 -1
        CFGEDIT 1 1 0 1 0 4 1 1 1 1 1 0.125 1266 109 2185 1353 0 0 0 0 0 0 0 0 0 0.5 0 0 1 64
      >
    >
  >
  <TRACK {C80400D6-EEF5-414D-8759-2610BE9C9CA1}
    NAME "PART BASS"
    PEAKCOL 16576
    BEAT -1
    AUTOMODE 0
    VOLPAN 1 0 -1 -1 1
    MUTESOLO 0 0 0
    IPHASE 0
    PLAYOFFS 0 1
    ISBUS 0 0
    BUSCOMP 0 0 0 0 0
    SHOWINMIX 1 0.6667 0.5 1 0.5 -1 -1 -1
    FREEMODE 0
    SEL 0
    REC 0 0 1 0 0 0 0
    VU 2
    TRACKHEIGHT 0 0 0 0 0 0
    INQ 0 0 0 0.5 100 0 0 100
    NCHAN 2
    FX 1
    TRACKID {C80400D6-EEF5-414D-8759-2610BE9C9CA1}
    PERF 0
    MIDIOUT -1
    MAINSEND 1 0
    <ITEM
      POSITION 0
      SNAPOFFS 0
      LENGTH 154.53395768125
      LOOP 1
      ALLTAKES 0
      FADEIN 1 0 0 1 0 0 0
      FADEOUT 1 0 0 1 0 0 0
      MUTE 0 0
      SEL 0
      IGUID {A497A38A-8745-4590-ADE7-CEB2C4FA7B4C}
      IID 2
      NAME "PART BASS - allofthis.mid"
      VOLPAN 1 0 1 -1
      SOFFS 0 0
      PLAYRATE 1 1 0 -1 0 0.0025
      CHANMODE 0
      GUID {AC71C4BD-6323-40CF-B399-BD90C5E88448}
      <SOURCE MIDI
        HASDATA 1 480 QN
        CCINTERP 32
        POOLEDEVTS {6F22098E-40B8-429B-AEAA-C26EE2E76E4C}
        <X 0 0 0 0 3 "PART BASS"
          /wNQQVJUIEJBU1M=
        >
        <X 19200 0 0 0 1 [play]
          /wFbcGxheV0=
        >
        E 0 90 3c 64
        E 0 90 48 64
        E 0 90 55 64
        E 0 90 61 64
        E 10 80 3c 00
        E 0 80 48 00
        E 0 80 55 00
        E 0 80 61 00
        E 470 90 48 64
        E 0 90 55 64
        E 0 90 61 64
        E 10 80 48 00
        E 0 80 55 00
        E 0 80 61 00
        E 470 90 3d 64
        E 0 90 4a 64
        E 0 90 57 64
        E 0 90 63 64
        E 10 80 3d 00
        E 0 80 4a 00
        E 0 80 57 00
        E 0 80 63 00
        E 470 90 4a 64
        E 0 90 57 64
        E 0 90 63 64
        E 10 80 4a 00
        E 0 80 57 00
        E 0 80 63 00
        E 470 90 3e 64
        E 0 90 4b 64
        E 0 90 58 64
        E 0 90 64 64
        E 10 80 3e 00
        E 0 80 4b 00
        E 0 80 58 00
        E 0 80 64 00
        E 470 90 4b 64
        E 0 90 58 64
        E 0 90 64 64
        E 10 80 4b 00
        E 0 80 58 00
        E 0 80 64 00
        E 470 90 3c 64
        E 0 90 48 64
        E 0 90 55 64
        E 0 90 61 64
        E 10 80 3c 00
        E 0 80 48 00
        E 0 80 55 00
        E 0 80 61 00
        E 470 90 48 64
        E 0 90 55 64
        E 0 90 61 64
        E 10 80 48 00
        E 0 80 55 00
        E 0 80 61 00
        E 310 90 60 64
        E 10 80 60 00
        E 150 90 3c 64
        E 0 90 48 64
        E 0 90 55 64
        E 0 90 61 64
        E 10 80 3c 00
        E 0 80 48 00
        E 0 80 55 00
        E 0 80 61 00
        E 470 90 48 64
        E 0 90 55 64
        E 0 90 61 64
        E 10 80 48 00
        E 0 80 55 00
        E 0 80 61 00
        E 470 90 3d 64
        E 0 90 49 64
        E 0 90 56 64
        E 0 90 62 64
        E 10 80 3d 00
        E 0 80 49 00
        E 0 80 56 00
        E 0 80 62 00
        E 470 90 49 64
        E 0 90 56 64
        E 0 90 62 64
        E 10 80 49 00
        E 0 80 56 00
        E 0 80 62 00
        E 470 90 3e 64
        E 0 90 4a 64
        E 0 90 57 64
        E 0 90 63 64
        E 10 80 3e 00
        E 0 80 4a 00
        E 0 80 57 00
        E 0 80 63 00
        E 470 90 4a 64
        E 0 90 57 64
        E 0 90 63 64
        E 10 80 4a 00
        E 0 80 57 00
        E 0 80 63 00
        E 470 90 3e 64
        E 0 90 4a 64
        E 0 90 57 64
        E 0 90 63 64
        E 10 80 3e 00
        E 0 80 4a 00
        E 0 80 57 00
        E 0 80 63 00
        E 470 90 4a 64
        E 0 90 57 64
        E 0 90 63 64
        E 10 80 4a 00
        E 0 80 57 00
        E 0 80 63 00
        E 470 90 3d 64
        E 0 90 49 64
        E 0 90 56 64
        E 0 90 62 64
        E 10 80 3d 00
        E 0 80 49 00
        E 0 80 56 00
        E 0 80 62 00
        E 470 90 49 64
        E 0 90 56 64
        E 0 90 62 64
        E 10 80 49 00
        E 0 80 56 00
        E 0 80 62 00
        E 470 90 3c 64
        E 0 90 48 64
        E 0 90 55 64
        E 0 90 61 64
        E 10 80 3c 00
        E 0 80 48 00
        E 0 80 55 00
        E 0 80 61 00
        E 470 90 48 64
        E 0 90 55 64
        E 0 90 61 64
        E 10 80 48 00
        E 0 80 55 00
        E 0 80 61 00
        E 470 90 3c 64
        E 0 90 48 64
        E 0 90 54 64
        E 0 90 60 64
        E 10 80 3c 00
        E 0 80 48 00
        E 0 80 54 00
        E 0 80 60 00
        E 470 90 48 64
        E 0 90 54 64
        E 0 90 60 64
        E 10 80 48 00
        E 0 80 54 00
        E 0 80 60 00
        E 470 90 3d 64
        E 0 90 49 64
        E 0 90 55 64
        E 0 90 61 64
        E 10 80 3d 00
        E 0 80 49 00
        E 350 80 55 00
        E 0 80 61 00
        E 120 90 49 64
        E 0 90 55 64
        E 0 90 61 64
        E 10 80 49 00
        E 0 80 55 00
        E 0 80 61 00
        E 462 90 43 64
        E 0 90 4f 64
        E 0 90 5b 64
        E 0 90 67 64
        E 8 90 3e 64
        E 0 90 4a 64
        E 0 90 56 64
        E 0 90 62 64
        E 10 80 3e 00
        E 0 80 4a 00
        E 350 80 56 00
        E 0 80 62 00
        E 120 90 4a 64
        E 0 90 56 64
        E 0 90 62 64
        E 10 80 4a 00
        E 0 80 56 00
        E 0 80 62 00
        E 470 90 3e 64
        E 0 90 4a 64
        E 0 90 56 64
        E 0 90 62 64
        E 10 80 3e 00
        E 0 80 4a 00
        E 350 80 56 00
        E 0 80 62 00
        E 120 90 4a 64
        E 0 90 56 64
        E 0 90 62 64
        E 10 80 4a 00
        E 0 80 56 00
        E 0 80 62 00
        E 470 90 3d 64
        E 0 90 49 64
        E 0 90 55 64
        E 0 90 61 64
        E 10 80 3d 00
        E 0 80 49 00
        E 350 80 55 00
        E 0 80 61 00
        E 120 90 49 64
        E 0 90 55 64
        E 0 90 61 64
        E 10 80 49 00
        E 0 80 55 00
        E 0 80 61 00
        E 470 90 3c 64
        E 0 90 48 64
        E 0 90 54 64
        E 0 90 60 64
        E 10 80 3c 00
        E 0 80 48 00
        E 0 80 54 00
        E 0 80 60 00
        E 310 90 54 64
        E 0 90 60 64
        E 10 80 54 00
        E 0 80 60 00
        E 150 90 48 64
        E 0 90 54 64
        E 0 90 60 64
        E 10 80 48 00
        E 0 80 54 00
        E 0 80 60 00
        E 310 90 60 64
        E 10 80 60 00
        E 142 80 43 00
        E 0 80 4f 00
        E 0 80 5b 00
        E 0 80 67 00
        E 8 90 3c 64
        E 0 90 48 64
        E 0 90 55 64
        E 0 90 61 64
        E 10 80 3c 00
        E 0 80 48 00
        E 0 80 55 00
        E 0 80 61 00
        E 470 90 48 64
        E 0 90 55 64
        E 0 90 61 64
        E 10 80 48 00
        E 0 80 55 00
        E 0 80 61 00
        E 470 90 3d 64
        E 0 90 4a 64
        E 0 90 57 64
        E 0 90 63 64
        E 10 80 3d 00
        E 0 80 4a 00
        E 0 80 57 00
        E 0 80 63 00
        E 470 90 4a 64
        E 0 90 57 64
        E 0 90 63 64
        E 10 80 4a 00
        E 0 80 57 00
        E 0 80 63 00
        E 470 90 3e 64
        E 0 90 4b 64
        E 0 90 58 64
        E 0 90 64 64
        E 10 80 3e 00
        E 0 80 4b 00
        E 0 80 58 00
        E 0 80 64 00
        E 470 90 4b 64
        E 0 90 58 64
        E 0 90 64 64
        E 10 80 4b 00
        E 0 80 58 00
        E 0 80 64 00
        E 470 90 3c 64
        E 0 90 48 64
        E 0 90 55 64
        E 0 90 61 64
        E 10 80 3c 00
        E 0 80 48 00
        E 0 80 55 00
        E 0 80 61 00
        E 470 90 48 64
        E 0 90 55 64
        E 0 90 61 64
        E 10 80 48 00
        E 0 80 55 00
        E 0 80 61 00
        E 470 90 3c 64
        E 0 90 48 64
        E 0 90 55 64
        E 0 90 61 64
        E 10 80 3c 00
        E 0 80 48 00
        E 0 80 55 00
        E 0 80 61 00
        E 470 90 48 64
        E 0 90 55 64
        E 0 90 61 64
        E 10 80 48 00
        E 0 80 55 00
        E 0 80 61 00
        E 470 90 3d 64
        E 0 90 49 64
        E 0 90 56 64
        E 0 90 62 64
        E 10 80 3d 00
        E 0 80 49 00
        E 0 80 56 00
        E 0 80 62 00
        E 470 90 49 64
        E 0 90 56 64
        E 0 90 62 64
        E 10 80 49 00
        E 0 80 56 00
        E 0 80 62 00
        E 462 90 43 64
        E 0 90 4f 64
        E 0 90 5b 64
        E 0 90 67 64
        E 8 90 3e 64
        E 0 90 4a 64
        E 0 90 57 64
        E 0 90 63 64
        E 10 80 3e 00
        E 0 80 4a 00
        E 0 80 57 00
        E 0 80 63 00
        E 470 90 4a 64
        E 0 90 57 64
        E 0 90 63 64
        E 10 80 4a 00
        E 0 80 57 00
        E 0 80 63 00
        E 310 90 57 64
        E 0 90 63 64
        E 10 80 57 00
        E 0 80 63 00
        E 150 90 3e 64
        E 0 90 4a 64
        E 0 90 57 64
        E 0 90 63 64
        E 10 80 3e 00
        E 0 80 4a 00
        E 0 80 57 00
        E 0 80 63 00
        E 310 90 63 64
        E 10 80 63 00
        E 150 90 3d 64
        E 0 90 49 64
        E 0 90 56 64
        E 0 90 62 64
        E 10 80 3d 00
        E 0 80 49 00
        E 350 80 56 00
        E 0 80 62 00
        E 112 80 43 00
        E 0 80 4f 00
        E 0 80 5b 00
        E 0 80 67 00
        E 8 90 3c 64
        E 0 90 48 64
        E 0 90 55 64
        E 0 90 61 64
        E 10 80 3c 00
        E 0 80 48 00
        E 0 80 55 00
        E 0 80 61 00
        E 470 90 48 64
        E 0 90 55 64
        E 0 90 61 64
        E 10 80 48 00
        E 0 80 55 00
        E 0 80 61 00
        E 470 90 3d 64
        E 0 90 49 64
        E 0 90 56 64
        E 0 90 62 64
        E 10 80 3d 00
        E 0 80 49 00
        E 0 80 56 00
        E 0 80 62 00
        E 470 90 49 64
        E 0 90 56 64
        E 0 90 62 64
        E 10 80 49 00
        E 0 80 56 00
        E 0 80 62 00
        E 470 90 3c 64
        E 0 90 48 64
        E 0 90 54 64
        E 0 90 60 64
        E 10 80 3c 00
        E 0 80 48 00
        E 0 80 54 00
        E 0 80 60 00
        E 470 90 48 64
        E 0 90 54 64
        E 0 90 60 64
        E 10 80 48 00
        E 0 80 54 00
        E 0 80 60 00
        E 470 90 3e 64
        E 0 90 4a 64
        E 0 90 57 64
        E 0 90 63 64
        E 10 80 3e 00
        E 0 80 4a 00
        E 0 80 57 00
        E 0 80 63 00
        E 470 90 4a 64
        E 0 90 57 64
        E 0 90 63 64
        E 10 80 4a 00
        E 0 80 57 00
        E 0 80 63 00
        E 470 90 3d 64
        E 0 90 49 64
        E 0 90 55 64
        E 0 90 61 64
        E 10 80 3d 00
        E 0 80 49 00
        E 0 80 55 00
        E 0 80 61 00
        E 470 90 49 64
        E 0 90 55 64
        E 0 90 61 64
        E 10 80 49 00
        E 0 80 55 00
        E 0 80 61 00
        E 470 90 3c 64
        E 0 90 48 64
        E 0 90 54 64
        E 0 90 60 64
        E 10 80 3c 00
        E 0 80 48 00
        E 0 80 54 00
        E 0 80 60 00
        E 470 90 48 64
        E 0 90 54 64
        E 0 90 60 64
        E 10 80 48 00
        E 0 80 54 00
        E 0 80 60 00
        E 470 90 3c 64
        E 0 90 48 64
        E 0 90 54 64
        E 0 90 60 64
        E 10 80 3c 00
        E 0 80 48 00
        E 0 80 54 00
        E 0 80 60 00
        E 470 90 48 64
        E 0 90 54 64
        E 0 90 60 64
        E 10 80 48 00
        E 0 80 54 00
        E 0 80 60 00
        E 470 90 3d 64
        E 0 90 49 64
        E 0 90 55 64
        E 0 90 61 64
        E 10 80 3d 00
        E 0 80 49 00
        E 0 80 55 00
        E 0 80 61 00
        E 470 90 49 64
        E 0 90 55 64
        E 0 90 61 64
        E 10 80 49 00
        E 0 80 55 00
        E 0 80 61 00
        <X 470 0 0 0 1 [idle]
          /wFbaWRsZV0=
        >
        <X 1920 0 0 0 1 [play]
          /wFbcGxheV0=
        >
        E 0 90 3e 64
        E 0 90 4a 64
        E 0 90 57 64
        E 0 90 63 64
        E 10 80 3e 00
        E 0 80 4a 00
        E 0 80 57 00
        E 0 80 63 00
        E 470 90 4a 64
        E 0 90 57 64
        E 0 90 63 64
        E 10 80 4a 00
        E 0 80 57 00
        E 0 80 63 00
        E 470 90 3d 64
        E 0 90 49 64
        E 0 90 56 64
        E 0 90 62 64
        E 10 80 3d 00
        E 0 80 49 00
        E 0 80 56 00
        E 0 80 62 00
        E 470 90 49 64
        E 0 90 56 64
        E 0 90 62 64
        E 10 80 49 00
        E 0 80 56 00
        E 0 80 62 00
        E 470 90 3c 64
        E 0 90 48 64
        E 0 90 54 64
        E 0 90 60 64
        E 10 80 3c 00
        E 0 80 48 00
        E 0 80 54 00
        E 0 80 60 00
        E 470 90 48 64
        E 0 90 54 64
        E 0 90 60 64
        E 10 80 48 00
        E 0 80 54 00
        E 0 80 60 00
        E 470 90 3d 64
        E 0 90 49 64
        E 0 90 55 64
        E 0 90 61 64
        E 10 80 3d 00
        E 0 80 49 00
        E 0 80 55 00
        E 0 80 61 00
        E 470 90 49 64
        E 0 90 55 64
        E 0 90 61 64
        E 10 80 49 00
        E 0 80 55 00
        E 0 80 61 00
        E 470 90 3d 64
        E 0 90 4a 64
        E 0 90 57 64
        E 0 90 63 64
        E 10 80 3d 00
        E 0 80 4a 00
        E 0 80 57 00
        E 0 80 63 00
        E 470 90 4a 64
        E 0 90 57 64
        E 0 90 63 64
        E 10 80 4a 00
        E 0 80 57 00
        E 0 80 63 00
        E 470 90 3e 64
        E 0 90 4b 64
        E 0 90 58 64
        E 0 90 64 64
        E 10 80 3e 00
        E 0 80 4b 00
        E 0 80 58 00
        E 0 80 64 00
        E 470 90 4b 64
        E 0 90 58 64
        E 0 90 64 64
        E 10 80 4b 00
        E 0 80 58 00
        E 0 80 64 00
        E 470 90 3c 64
        E 0 90 48 64
        E 0 90 54 64
        E 0 90 60 64
        E 10 80 3c 00
        E 0 80 48 00
        E 0 80 54 00
        E 0 80 60 00
        E 470 90 48 64
        E 0 90 54 64
        E 0 90 60 64
        E 10 80 48 00
        E 0 80 54 00
        E 0 80 60 00
        E 470 90 3d 64
        E 0 90 49 64
        E 0 90 55 64
        E 0 90 61 64
        E 10 80 3d 00
        E 0 80 49 00
        E 0 80 55 00
        E 0 80 61 00
        E 470 90 49 64
        E 0 90 55 64
        E 0 90 61 64
        E 10 80 49 00
        E 0 80 55 00
        E 0 80 61 00
        E 470 90 3d 64
        E 0 90 4a 64
        E 0 90 57 64
        E 0 90 63 64
        E 10 80 3d 00
        E 0 80 4a 00
        E 0 80 57 00
        E 0 80 63 00
        E 470 90 4a 64
        E 0 90 57 64
        E 0 90 63 64
        E 10 80 4a 00
        E 0 80 57 00
        E 0 80 63 00
        E 470 90 3e 64
        E 0 90 4b 64
        E 0 90 58 64
        E 0 90 64 64
        E 10 80 3e 00
        E 0 80 4b 00
        E 0 80 58 00
        E 0 80 64 00
        E 470 90 4b 64
        E 0 90 58 64
        E 0 90 64 64
        E 10 80 4b 00
        E 350 80 58 00
        E 0 80 64 00
        E 120 90 3d 64
        E 0 90 49 64
        E 0 90 56 64
        E 0 90 62 64
        E 10 80 3d 00
        E 0 80 49 00
        E 0 80 56 00
        E 0 80 62 00
        E 470 90 49 64
        E 0 90 56 64
        E 0 90 62 64
        E 10 80 49 00
        E 0 80 56 00
        E 0 80 62 00
        E 470 90 3c 64
        E 0 90 48 64
        E 0 90 54 64
        E 0 90 60 64
        E 10 80 3c 00
        E 0 80 48 00
        E 0 80 54 00
        E 0 80 60 00
        E 470 90 48 64
        E 0 90 54 64
        E 0 90 60 64
        E 10 80 48 00
        E 0 80 54 00
        E 0 80 60 00
        E 462 90 43 64
        E 0 90 4f 64
        E 0 90 5b 64
        E 0 90 67 64
        E 8 90 3d 64
        E 0 90 49 64
        E 0 90 55 64
        E 0 90 61 64
        E 840 80 3d 00
        E 120 80 49 00
        E 120 80 55 00
        E 0 80 61 00
        E 120 90 61 64
        E 10 80 61 00
        E 230 90 3e 64
        E 0 90 4b 64
        E 0 90 58 64
        E 0 90 64 64
        E 10 80 3e 00
        E 0 80 4b 00
        E 350 80 58 00
        E 0 80 64 00
        E 120 90 3e 64
        E 0 90 4b 64
        E 0 90 58 64
        E 0 90 64 64
        E 1440 80 3e 00
        E 120 80 4b 00
        E 120 80 58 00
        E 0 80 64 00
        E 232 80 43 00
        E 0 80 4f 00
        E 0 80 5b 00
        E 0 80 67 00
        E 8 90 3c 64
        E 0 90 48 64
        E 0 90 55 64
        E 0 90 61 64
        E 10 80 3c 00
        E 0 80 48 00
        E 0 80 55 00
        E 0 80 61 00
        E 470 90 48 64
        E 0 90 55 64
        E 0 90 61 64
        E 10 80 48 00
        E 0 80 55 00
        E 0 80 61 00
        E 470 90 3d 64
        E 0 90 4a 64
        E 0 90 57 64
        E 0 90 63 64
        E 10 80 3d 00
        E 0 80 4a 00
        E 0 80 57 00
        E 0 80 63 00
        E 470 90 4a 64
        E 0 90 57 64
        E 0 90 63 64
        E 10 80 4a 00
        E 0 80 57 00
        E 0 80 63 00
        E 470 90 3e 64
        E 0 90 4b 64
        E 0 90 58 64
        E 0 90 64 64
        E 10 80 3e 00
        E 0 80 4b 00
        E 0 80 58 00
        E 0 80 64 00
        E 470 90 4b 64
        E 0 90 58 64
        E 0 90 64 64
        E 10 80 4b 00
        E 0 80 58 00
        E 0 80 64 00
        E 470 90 3c 64
        E 0 90 48 64
        E 0 90 55 64
        E 0 90 61 64
        E 10 80 3c 00
        E 0 80 48 00
        E 0 80 55 00
        E 0 80 61 00
        E 470 90 48 64
        E 0 90 55 64
        E 0 90 61 64
        E 10 80 48 00
        E 0 80 55 00
        E 0 80 61 00
        E 470 90 3c 64
        E 0 90 48 64
        E 0 90 55 64
        E 0 90 61 64
        E 10 80 3c 00
        E 0 80 48 00
        E 0 80 55 00
        E 0 80 61 00
        E 470 90 48 64
        E 0 90 55 64
        E 0 90 61 64
        E 10 80 48 00
        E 0 80 55 00
        E 0 80 61 00
        E 470 90 3d 64
        E 0 90 49 64
        E 0 90 56 64
        E 0 90 62 64
        E 10 80 3d 00
        E 0 80 49 00
        E 0 80 56 00
        E 0 80 62 00
        E 470 90 49 64
        E 0 90 56 64
        E 0 90 62 64
        E 10 80 49 00
        E 0 80 56 00
        E 0 80 62 00
        E 470 90 3e 64
        E 0 90 4a 64
        E 0 90 57 64
        E 0 90 63 64
        E 10 80 3e 00
        E 0 80 4a 00
        E 0 80 57 00
        E 0 80 63 00
        E 470 90 4a 64
        E 0 90 57 64
        E 0 90 63 64
        E 10 80 4a 00
        E 0 80 57 00
        E 0 80 63 00
        E 310 90 57 64
        E 0 90 63 64
        E 10 80 57 00
        E 0 80 63 00
        E 150 90 3e 64
        E 0 90 4a 64
        E 0 90 57 64
        E 0 90 63 64
        E 10 80 3e 00
        E 0 80 4a 00
        E 0 80 57 00
        E 0 80 63 00
        E 310 90 63 64
        E 10 80 63 00
        E 150 90 3d 64
        E 0 90 49 64
        E 0 90 56 64
        E 0 90 62 64
        E 10 80 3d 00
        E 0 80 49 00
        E 350 80 56 00
        E 0 80 62 00
        E 120 90 3d 64
        E 0 90 49 64
        E 0 90 56 64
        E 0 90 62 64
        E 10 80 3d 00
        E 0 80 49 00
        E 0 80 56 00
        E 0 80 62 00
        E 470 90 49 64
        E 0 90 56 64
        E 0 90 62 64
        E 10 80 49 00
        E 0 80 56 00
        E 0 80 62 00
        E 470 90 3c 64
        E 0 90 48 64
        E 0 90 55 64
        E 0 90 61 64
        E 10 80 3c 00
        E 0 80 48 00
        E 0 80 55 00
        E 0 80 61 00
        E 470 90 48 64
        E 0 90 55 64
        E 0 90 61 64
        E 10 80 48 00
        E 0 80 55 00
        E 0 80 61 00
        E 462 90 43 64
        E 0 90 4f 64
        E 0 90 5b 64
        E 0 90 67 64
        E 8 90 3c 64
        E 0 90 48 64
        E 0 90 54 64
        E 0 90 60 64
        E 10 80 3c 00
        E 0 80 48 00
        E 0 80 54 00
        E 0 80 60 00
        E 310 90 54 64
        E 0 90 60 64
        E 10 80 54 00
        E 0 80 60 00
        E 150 90 48 64
        E 0 90 54 64
        E 0 90 60 64
        E 10 80 48 00
        E 0 80 54 00
        E 0 80 60 00
        E 310 90 3d 64
        E 0 90 49 64
        E 0 90 56 64
        E 0 90 62 64
        E 2680 80 3d 00
        E 120 80 49 00
        E 120 80 56 00
        E 0 80 62 00
        E 112 80 43 00
        E 0 80 4f 00
        E 0 80 5b 00
        E 0 80 67 00
        E 8 90 3d 64
        E 0 90 49 64
        E 0 90 55 64
        E 0 90 61 64
        E 10 80 3d 00
        E 0 80 49 00
        E 0 80 55 00
        E 0 80 61 00
        E 470 90 49 64
        E 0 90 55 64
        E 0 90 61 64
        E 10 80 49 00
        E 0 80 55 00
        E 0 80 61 00
        E 470 90 3c 64
        E 0 90 48 64
        E 0 90 54 64
        E 0 90 60 64
        E 10 80 3c 00
        E 0 80 48 00
        E 0 80 54 00
        E 0 80 60 00
        E 470 90 48 64
        E 0 90 54 64
        E 0 90 60 64
        E 10 80 48 00
        E 0 80 54 00
        E 0 80 60 00
        E 470 90 3c 64
        E 0 90 48 64
        E 0 90 54 64
        E 0 90 60 64
        E 10 80 3c 00
        E 0 80 48 00
        E 0 80 54 00
        E 0 80 60 00
        E 470 90 48 64
        E 0 90 54 64
        E 0 90 60 64
        E 10 80 48 00
        E 0 80 54 00
        E 0 80 60 00
        E 310 90 60 64
        E 10 80 60 00
        E 150 90 3d 64
        E 0 90 49 64
        E 0 90 55 64
        E 0 90 61 64
        E 10 80 3d 00
        E 0 80 49 00
        E 0 80 55 00
        E 0 80 61 00
        E 470 90 49 64
        E 0 90 55 64
        E 0 90 61 64
        E 10 80 49 00
        E 0 80 55 00
        E 0 80 61 00
        <X 1430 0 0 0 1 [wail_on]
          /wFbd2FpbF9vbl0=
        >
        E 0 90 3c 64
        E 0 90 48 64
        E 0 90 55 64
        E 0 90 61 64
        E 10 80 3c 00
        E 0 80 48 00
        E 0 80 55 00
        E 0 80 61 00
        E 470 90 48 64
        E 0 90 55 64
        E 0 90 61 64
        E 10 80 48 00
        E 0 80 55 00
        E 0 80 61 00
        E 310 90 61 64
        E 10 80 61 00
        E 150 90 3d 64
        E 0 90 4a 64
        E 0 90 57 64
        E 0 90 63 64
        E 10 80 3d 00
        E 0 80 4a 00
        E 0 80 57 00
        E 0 80 63 00
        E 470 90 4a 64
        E 0 90 57 64
        E 0 90 63 64
        E 10 80 4a 00
        E 0 80 57 00
        E 0 80 63 00
        E 470 90 3e 64
        E 0 90 4b 64
        E 0 90 58 64
        E 0 90 64 64
        E 10 80 3e 00
        E 0 80 4b 00
        E 0 80 58 00
        E 0 80 64 00
        E 470 90 4b 64
        E 0 90 58 64
        E 0 90 64 64
        E 10 80 4b 00
        E 0 80 58 00
        E 0 80 64 00
        E 470 90 3c 64
        E 0 90 48 64
        E 0 90 55 64
        E 0 90 61 64
        E 10 80 3c 00
        E 0 80 48 00
        E 0 80 55 00
        E 0 80 61 00
        E 470 90 48 64
        E 0 90 55 64
        E 0 90 61 64
        E 10 80 48 00
        E 0 80 55 00
        E 0 80 61 00
        E 310 90 60 64
        E 10 80 60 00
        E 150 90 3c 64
        E 0 90 48 64
        E 0 90 55 64
        E 0 90 61 64
        E 10 80 3c 00
        E 0 80 48 00
        E 0 80 55 00
        E 0 80 61 00
        E 470 90 48 64
        E 0 90 55 64
        E 0 90 61 64
        E 10 80 48 00
        E 0 80 55 00
        E 0 80 61 00
        E 470 90 3d 64
        E 0 90 49 64
        E 0 90 56 64
        E 0 90 62 64
        E 10 80 3d 00
        E 0 80 49 00
        E 0 80 56 00
        E 0 80 62 00
        E 470 90 49 64
        E 0 90 56 64
        E 0 90 62 64
        E 10 80 49 00
        E 0 80 56 00
        E 0 80 62 00
        E 470 90 3e 64
        E 0 90 4a 64
        E 0 90 57 64
        E 0 90 63 64
        E 10 80 3e 00
        E 0 80 4a 00
        E 0 80 57 00
        E 0 80 63 00
        E 470 90 4a 64
        E 0 90 57 64
        E 0 90 63 64
        E 10 80 4a 00
        E 0 80 57 00
        E 0 80 63 00
        E 470 90 3e 64
        E 0 90 4a 64
        E 0 90 57 64
        E 0 90 63 64
        E 10 80 3e 00
        E 0 80 4a 00
        E 0 80 57 00
        E 0 80 63 00
        E 470 90 4a 64
        E 0 90 57 64
        E 0 90 63 64
        E 10 80 4a 00
        E 0 80 57 00
        E 0 80 63 00
        E 470 90 3d 64
        E 0 90 49 64
        E 0 90 56 64
        E 0 90 62 64
        E 10 80 3d 00
        E 0 80 49 00
        E 0 80 56 00
        E 0 80 62 00
        E 470 90 49 64
        E 0 90 56 64
        E 0 90 62 64
        E 10 80 49 00
        E 0 80 56 00
        E 0 80 62 00
        E 310 90 62 64
        E 10 80 62 00
        E 150 90 3c 64
        E 0 90 48 64
        E 0 90 55 64
        E 0 90 61 64
        E 10 80 3c 00
        E 0 80 48 00
        E 0 80 55 00
        E 0 80 61 00
        E 470 90 48 64
        E 0 90 55 64
        E 0 90 61 64
        E 10 80 48 00
        E 0 80 55 00
        E 0 80 61 00
        E 470 90 3c 64
        E 0 90 48 64
        E 0 90 54 64
        E 0 90 60 64
        E 10 80 3c 00
        E 0 80 48 00
        E 0 80 54 00
        E 0 80 60 00
        E 470 90 48 64
        E 0 90 54 64
        E 0 90 60 64
        E 10 80 48 00
        E 0 80 54 00
        E 0 80 60 00
        E 470 90 3c 64
        E 0 90 48 64
        E 0 90 55 64
        E 0 90 61 64
        E 10 80 3c 00
        E 0 80 48 00
        E 0 80 55 00
        E 0 80 61 00
        E 470 90 48 64
        E 0 90 55 64
        E 0 90 61 64
        E 10 80 48 00
        E 0 80 55 00
        E 0 80 61 00
        E 470 90 3c 64
        E 0 90 48 64
        E 0 90 54 64
        E 0 90 60 64
        E 10 80 3c 00
        E 0 80 48 00
        E 0 80 54 00
        E 0 80 60 00
        E 470 90 48 64
        E 0 90 54 64
        E 0 90 60 64
        E 10 80 48 00
        E 0 80 54 00
        E 0 80 60 00
        E 470 90 3c 64
        E 0 90 48 64
        E 0 90 54 64
        E 0 90 60 64
        E 10 80 3c 00
        E 0 80 48 00
        E 0 80 54 00
        E 0 80 60 00
        E 470 90 48 64
        E 0 90 54 64
        E 0 90 60 64
        E 10 80 48 00
        E 350 80 54 00
        E 0 80 60 00
        E 112 90 43 64
        E 0 90 4f 64
        E 0 90 5b 64
        E 0 90 67 64
        E 8 90 3d 64
        E 0 90 49 64
        E 0 90 56 64
        E 0 90 62 64
        E 10 80 3d 00
        E 0 80 49 00
        E 350 80 56 00
        E 0 80 62 00
        E 120 90 49 64
        E 0 90 56 64
        E 0 90 62 64
        E 10 80 49 00
        E 350 80 56 00
        E 0 80 62 00
        E 120 90 3c 64
        E 0 90 48 64
        E 0 90 55 64
        E 0 90 61 64
        E 10 80 3c 00
        E 0 80 48 00
        E 0 80 55 00
        E 0 80 61 00
        E 470 90 48 64
        E 0 90 55 64
        E 0 90 61 64
        E 10 80 48 00
        E 350 80 55 00
        E 0 80 61 00
        E 112 80 43 00
        E 0 80 4f 00
        E 0 80 5b 00
        E 0 80 67 00
        E 8 90 3c 64
        E 0 90 48 64
        E 0 90 55 64
        E 0 90 61 64
        E 10 80 3c 00
        E 0 80 48 00
        E 0 80 55 00
        E 0 80 61 00
        E 470 90 48 64
        E 0 90 55 64
        E 0 90 61 64
        E 10 80 48 00
        E 0 80 55 00
        E 0 80 61 00
        E 470 90 3d 64
        E 0 90 4a 64
        E 0 90 57 64
        E 0 90 63 64
        E 10 80 3d 00
        E 0 80 4a 00
        E 0 80 57 00
        E 0 80 63 00
        E 470 90 4a 64
        E 0 90 57 64
        E 0 90 63 64
        E 10 80 4a 00
        E 0 80 57 00
        E 0 80 63 00
        E 470 90 3e 64
        E 0 90 4b 64
        E 0 90 58 64
        E 0 90 64 64
        E 10 80 3e 00
        E 0 80 4b 00
        E 0 80 58 00
        E 0 80 64 00
        E 470 90 4b 64
        E 0 90 58 64
        E 0 90 64 64
        E 10 80 4b 00
        E 350 80 58 00
        E 0 80 64 00
        E 120 90 3c 64
        E 0 90 48 64
        E 0 90 55 64
        E 0 90 61 64
        E 10 80 3c 00
        E 0 80 48 00
        E 0 80 55 00
        E 0 80 61 00
        E 470 90 48 64
        E 0 90 55 64
        E 0 90 61 64
        E 10 80 48 00
        E 0 80 55 00
        E 0 80 61 00
        E 310 90 60 64
        E 10 80 60 00
        E 150 90 3c 64
        E 0 90 48 64
        E 0 90 55 64
        E 0 90 61 64
        E 10 80 3c 00
        E 0 80 48 00
        E 0 80 55 00
        E 0 80 61 00
        E 470 90 48 64
        E 0 90 55 64
        E 0 90 61 64
        E 10 80 48 00
        E 0 80 55 00
        E 0 80 61 00
        E 470 90 3d 64
        E 0 90 49 64
        E 0 90 56 64
        E 0 90 62 64
        E 10 80 3d 00
        E 0 80 49 00
        E 0 80 56 00
        E 0 80 62 00
        E 470 90 49 64
        E 0 90 56 64
        E 0 90 62 64
        E 10 80 49 00
        E 0 80 56 00
        E 0 80 62 00
        E 470 90 3e 64
        E 0 90 4a 64
        E 0 90 57 64
        E 0 90 63 64
        E 10 80 3e 00
        E 0 80 4a 00
        E 0 80 57 00
        E 0 80 63 00
        E 470 90 4a 64
        E 0 90 57 64
        E 0 90 63 64
        E 10 80 4a 00
        E 0 80 57 00
        E 0 80 63 00
        E 310 90 57 64
        E 0 90 63 64
        E 10 80 57 00
        E 0 80 63 00
        E 150 90 3e 64
        E 0 90 4a 64
        E 0 90 57 64
        E 0 90 63 64
        E 10 80 3e 00
        E 0 80 4a 00
        E 0 80 57 00
        E 0 80 63 00
        E 310 90 63 64
        E 10 80 63 00
        E 150 90 3d 64
        E 0 90 49 64
        E 0 90 56 64
        E 0 90 62 64
        E 10 80 3d 00
        E 0 80 49 00
        E 350 80 56 00
        E 0 80 62 00
        E 112 90 43 64
        E 0 90 4f 64
        E 0 90 5b 64
        E 0 90 67 64
        E 8 90 3c 64
        E 0 90 48 64
        E 0 90 55 64
        E 0 90 61 64
        E 10 80 3c 00
        E 0 80 48 00
        E 0 80 55 00
        E 0 80 61 00
        E 310 90 55 64
        E 0 90 61 64
        E 10 80 55 00
        E 0 80 61 00
        E 150 90 48 64
        E 0 90 55 64
        E 0 90 61 64
        E 10 80 48 00
        E 0 80 55 00
        E 0 80 61 00
        E 470 90 3d 64
        E 0 90 49 64
        E 0 90 56 64
        E 0 90 62 64
        E 10 80 3d 00
        E 0 80 49 00
        E 0 80 56 00
        E 0 80 62 00
        E 310 90 56 64
        E 0 90 62 64
        E 10 80 56 00
        E 0 80 62 00
        E 150 90 49 64
        E 0 90 56 64
        E 0 90 62 64
        E 10 80 49 00
        E 0 80 56 00
        E 0 80 62 00
        E 470 90 3c 64
        E 0 90 48 64
        E 0 90 54 64
        E 0 90 60 64
        E 10 80 3c 00
        E 0 80 48 00
        E 0 80 54 00
        E 0 80 60 00
        E 310 90 54 64
        E 0 90 60 64
        E 10 80 54 00
        E 0 80 60 00
        E 150 90 48 64
        E 0 90 54 64
        E 0 90 60 64
        E 10 80 48 00
        E 0 80 54 00
        E 0 80 60 00
        E 310 90 60 64
        E 10 80 60 00
        E 150 90 3e 64
        E 0 90 4a 64
        E 0 90 56 64
        E 0 90 62 64
        E 10 80 3e 00
        E 0 80 4a 00
        E 0 80 56 00
        E 0 80 62 00
        E 470 90 4a 64
        E 0 90 56 64
        E 0 90 62 64
        E 10 80 4a 00
        E 0 80 56 00
        E 0 80 62 00
        E 462 80 43 00
        E 0 80 4f 00
        E 0 80 5b 00
        E 0 80 67 00
        E 8 90 3d 64
        E 0 90 49 64
        E 0 90 55 64
        E 0 90 61 64
        E 10 80 3d 00
        E 0 80 49 00
        E 0 80 55 00
        E 0 80 61 00
        E 470 90 49 64
        E 0 90 55 64
        E 0 90 61 64
        E 10 80 49 00
        E 0 80 55 00
        E 0 80 61 00
        E 470 90 3c 64
        E 0 90 48 64
        E 0 90 54 64
        E 0 90 60 64
        E 10 80 3c 00
        E 0 80 48 00
        E 0 80 54 00
        E 0 80 60 00
        E 470 90 48 64
        E 0 90 54 64
        E 0 90 60 64
        E 10 80 48 00
        E 0 80 54 00
        E 0 80 60 00
        E 470 90 3c 64
        E 0 90 48 64
        E 0 90 54 64
        E 0 90 60 64
        E 10 80 3c 00
        E 0 80 48 00
        E 0 80 54 00
        E 0 80 60 00
        E 470 90 48 64
        E 0 90 54 64
        E 0 90 60 64
        E 10 80 48 00
        E 0 80 54 00
        E 0 80 60 00
        E 310 90 60 64
        E 10 80 60 00
        E 150 90 3d 64
        E 0 90 49 64
        E 0 90 55 64
        E 0 90 61 64
        E 10 80 3d 00
        E 0 80 49 00
        E 0 80 55 00
        E 0 80 61 00
        E 470 90 49 64
        E 0 90 55 64
        E 0 90 61 64
        E 10 80 49 00
        E 0 80 55 00
        E 0 80 61 00
        <X 470 0 0 0 1 [idle]
          /wFbaWRsZV0=
        >
        <X 1920 0 0 0 1 [play]
          /wFbcGxheV0=
        >
        E 0 90 3e 64
        E 0 90 4a 64
        E 0 90 57 64
        E 0 90 63 64
        E 10 80 3e 00
        E 0 80 4a 00
        E 0 80 57 00
        E 0 80 63 00
        E 470 90 4a 64
        E 0 90 57 64
        E 0 90 63 64
        E 10 80 4a 00
        E 0 80 57 00
        E 0 80 63 00
        E 470 90 3d 64
        E 0 90 49 64
        E 0 90 56 64
        E 0 90 62 64
        E 10 80 3d 00
        E 0 80 49 00
        E 0 80 56 00
        E 0 80 62 00
        E 470 90 49 64
        E 0 90 56 64
        E 0 90 62 64
        E 10 80 49 00
        E 0 80 56 00
        E 0 80 62 00
        E 470 90 3c 64
        E 0 90 48 64
        E 0 90 54 64
        E 0 90 60 64
        E 10 80 3c 00
        E 0 80 48 00
        E 0 80 54 00
        E 0 80 60 00
        E 470 90 48 64
        E 0 90 54 64
        E 0 90 60 64
        E 10 80 48 00
        E 0 80 54 00
        E 0 80 60 00
        E 470 90 3d 64
        E 0 90 49 64
        E 0 90 55 64
        E 0 90 61 64
        E 10 80 3d 00
        E 0 80 49 00
        E 0 80 55 00
        E 0 80 61 00
        E 470 90 49 64
        E 0 90 55 64
        E 0 90 61 64
        E 10 80 49 00
        E 0 80 55 00
        E 0 80 61 00
        E 470 90 3d 64
        E 0 90 4a 64
        E 0 90 57 64
        E 0 90 63 64
        E 10 80 3d 00
        E 0 80 4a 00
        E 0 80 57 00
        E 0 80 63 00
        E 470 90 4a 64
        E 0 90 57 64
        E 0 90 63 64
        E 10 80 4a 00
        E 0 80 57 00
        E 0 80 63 00
        E 470 90 3e 64
        E 0 90 4b 64
        E 0 90 58 64
        E 0 90 64 64
        E 10 80 3e 00
        E 0 80 4b 00
        E 0 80 58 00
        E 0 80 64 00
        E 310 90 58 64
        E 0 90 64 64
        E 10 80 58 00
        E 0 80 64 00
        E 150 90 4b 64
        E 0 90 58 64
        E 0 90 64 64
        E 10 80 4b 00
        E 350 80 58 00
        E 0 80 64 00
        E 112 90 43 64
        E 0 90 4f 64
        E 0 90 5b 64
        E 0 90 67 64
        E 8 90 3c 64
        E 0 90 48 64
        E 0 90 54 64
        E 0 90 60 64
        E 10 80 3c 00
        E 0 80 48 00
        E 0 80 54 00
        E 0 80 60 00
        E 350 90 48 64
        E 0 90 54 64
        E 0 90 60 64
        E 10 80 48 00
        E 0 80 54 00
        E 0 80 60 00
        E 350 90 54 64
        E 0 90 60 64
        E 10 80 54 00
        E 0 80 60 00
        E 230 90 3d 64
        E 0 90 49 64
        E 0 90 55 64
        E 0 90 61 64
        E 10 80 3d 00
        E 0 80 49 00
        E 0 80 55 00
        E 0 80 61 00
        E 350 90 49 64
        E 0 90 55 64
        E 0 90 61 64
        E 10 80 49 00
        E 0 80 55 00
        E 0 80 61 00
        E 350 90 55 64
        E 0 90 61 64
        E 10 80 55 00
        E 0 80 61 00
        E 222 80 43 00
        E 0 80 4f 00
        E 0 80 5b 00
        E 0 80 67 00
        E 8 90 3d 64
        E 0 90 4a 64
        E 0 90 57 64
        E 0 90 63 64
        E 10 80 3d 00
        E 0 80 4a 00
        E 0 80 57 00
        E 0 80 63 00
        E 470 90 4a 64
        E 0 90 57 64
        E 0 90 63 64
        E 10 80 4a 00
        E 0 80 57 00
        E 0 80 63 00
        E 470 90 3e 64
        E 0 90 4b 64
        E 0 90 58 64
        E 0 90 64 64
        E 10 80 3e 00
        E 0 80 4b 00
        E 0 80 58 00
        E 0 80 64 00
        E 310 90 58 64
        E 0 90 64 64
        E 10 80 58 00
        E 0 80 64 00
        E 150 90 4b 64
        E 0 90 58 64
        E 0 90 64 64
        E 10 80 4b 00
        E 350 80 58 00
        E 0 80 64 00
        E 120 90 3d 64
        E 0 90 49 64
        E 0 90 56 64
        E 0 90 62 64
        E 10 80 3d 00
        E 0 80 49 00
        E 0 80 56 00
        E 0 80 62 00
        E 310 90 56 64
        E 0 90 62 64
        E 10 80 56 00
        E 0 80 62 00
        E 150 90 49 64
        E 0 90 56 64
        E 0 90 62 64
        E 10 80 49 00
        E 0 80 56 00
        E 0 80 62 00
        E 470 90 3c 64
        E 0 90 48 64
        E 0 90 54 64
        E 0 90 60 64
        E 10 80 3c 00
        E 0 80 48 00
        E 0 80 54 00
        E 0 80 60 00
        E 310 90 54 64
        E 0 90 60 64
        E 10 80 54 00
        E 0 80 60 00
        E 150 90 48 64
        E 0 90 54 64
        E 0 90 60 64
        E 10 80 48 00
        E 0 80 54 00
        E 0 80 60 00
        <X 470 0 0 0 1 [wail_off]
          /wFbd2FpbF9vZmZd
        >
        E 0 90 3d 64
        E 0 90 49 64
        E 0 90 55 64
        E 0 90 61 64
        E 840 80 3d 00
        E 120 80 49 00
        E 120 80 55 00
        E 0 80 61 00
        E 120 90 61 64
        E 10 80 61 00
        E 230 90 3e 64
        E 0 90 4b 64
        E 0 90 58 64
        E 0 90 64 64
        E 10 80 3e 00
        E 0 80 4b 00
        E 350 80 58 00
        E 0 80 64 00
        E 120 90 3e 64
        E 0 90 4b 64
        E 0 90 58 64
        E 0 90 64 64
        E 1080 80 3e 00
        E 120 80 4b 00
        E 120 80 58 00
        E 0 80 64 00
        E 120 90 57 64
        E 0 90 63 64
        E 10 80 57 00
        E 0 80 63 00
        E 150 90 62 64
        E 10 80 62 00
        E 302 90 43 64
        E 0 90 4f 64
        E 0 90 5b 64
        E 0 90 67 64
        E 8 90 3d 64
        E 0 90 49 64
        E 0 90 55 64
        E 0 90 61 64
        E 1320 80 3d 00
        E 120 80 49 00
        E 160 80 55 00
        E 0 80 61 00
        E 160 90 61 64
        E 10 80 61 00
        E 150 90 3e 64
        E 0 90 4b 64
        E 0 90 58 64
        E 0 90 64 64
        E 10 80 3e 00
        E 0 80 4b 00
        E 350 80 58 00
        E 0 80 64 00
        E 120 90 3e 64
        E 0 90 4b 64
        E 0 90 58 64
        E 0 90 64 64
        E 1080 80 3e 00
        E 120 80 4b 00
        E 120 80 58 00
        E 0 80 64 00
        E 112 80 43 00
        E 0 80 4f 00
        E 0 80 5b 00
        E 0 80 67 00
        E 8 90 3c 64
        E 0 90 48 64
        E 0 90 55 64
        E 0 90 61 64
        E 10 80 3c 00
        E 0 80 48 00
        E 0 80 55 00
        E 0 80 61 00
        E 470 90 48 64
        E 0 90 55 64
        E 0 90 61 64
        E 10 80 48 00
        E 0 80 55 00
        E 0 80 61 00
        E 470 90 3d 64
        E 0 90 4a 64
        E 0 90 57 64
        E 0 90 63 64
        E 10 80 3d 00
        E 0 80 4a 00
        E 0 80 57 00
        E 0 80 63 00
        E 470 90 4a 64
        E 0 90 57 64
        E 0 90 63 64
        E 10 80 4a 00
        E 0 80 57 00
        E 0 80 63 00
        E 470 90 3e 64
        E 0 90 4b 64
        E 0 90 58 64
        E 0 90 64 64
        E 10 80 3e 00
        E 0 80 4b 00
        E 0 80 58 00
        E 0 80 64 00
        E 470 90 4b 64
        E 0 90 58 64
        E 0 90 64 64
        E 10 80 4b 00
        E 0 80 58 00
        E 0 80 64 00
        E 470 90 3c 64
        E 0 90 48 64
        E 0 90 55 64
        E 0 90 61 64
        E 10 80 3c 00
        E 0 80 48 00
        E 0 80 55 00
        E 0 80 61 00
        E 470 90 48 64
        E 0 90 55 64
        E 0 90 61 64
        E 10 80 48 00
        E 0 80 55 00
        E 0 80 61 00
        E 310 90 60 64
        E 10 80 60 00
        E 150 90 3c 64
        E 0 90 48 64
        E 0 90 55 64
        E 0 90 61 64
        E 10 80 3c 00
        E 0 80 48 00
        E 0 80 55 00
        E 0 80 61 00
        E 470 90 48 64
        E 0 90 55 64
        E 0 90 61 64
        E 10 80 48 00
        E 0 80 55 00
        E 0 80 61 00
        E 470 90 3d 64
        E 0 90 49 64
        E 0 90 56 64
        E 0 90 62 64
        E 10 80 3d 00
        E 0 80 49 00
        E 0 80 56 00
        E 0 80 62 00
        E 470 90 49 64
        E 0 90 56 64
        E 0 90 62 64
        E 10 80 49 00
        E 0 80 56 00
        E 0 80 62 00
        E 470 90 3e 64
        E 0 90 4a 64
        E 0 90 57 64
        E 0 90 63 64
        E 10 80 3e 00
        E 0 80 4a 00
        E 0 80 57 00
        E 0 80 63 00
        E 470 90 4a 64
        E 0 90 57 64
        E 0 90 63 64
        E 10 80 4a 00
        E 0 80 57 00
        E 0 80 63 00
        E 310 90 57 64
        E 0 90 63 64
        E 10 80 57 00
        E 0 80 63 00
        E 150 90 3e 64
        E 0 90 4a 64
        E 0 90 57 64
        E 0 90 63 64
        E 10 80 3e 00
        E 0 80 4a 00
        E 0 80 57 00
        E 0 80 63 00
        E 310 90 63 64
        E 10 80 63 00
        E 150 90 3d 64
        E 0 90 49 64
        E 0 90 56 64
        E 0 90 62 64
        E 10 80 3d 00
        E 0 80 49 00
        E 350 80 56 00
        E 0 80 62 00
        E 120 90 3d 64
        E 0 90 49 64
        E 0 90 56 64
        E 0 90 62 64
        E 10 80 3d 00
        E 0 80 49 00
        E 0 80 56 00
        E 0 80 62 00
        E 470 90 49 64
        E 0 90 56 64
        E 0 90 62 64
        E 10 80 49 00
        E 0 80 56 00
        E 0 80 62 00
        E 470 90 3c 64
        E 0 90 48 64
        E 0 90 55 64
        E 0 90 61 64
        E 10 80 3c 00
        E 0 80 48 00
        E 0 80 55 00
        E 0 80 61 00
        E 470 90 48 64
        E 0 90 55 64
        E 0 90 61 64
        E 10 80 48 00
        E 0 80 55 00
        E 0 80 61 00
        E 470 90 3c 64
        E 0 90 48 64
        E 0 90 54 64
        E 0 90 60 64
        E 10 80 3c 00
        E 0 80 48 00
        E 0 80 54 00
        E 0 80 60 00
        E 310 90 54 64
        E 0 90 60 64
        E 10 80 54 00
        E 0 80 60 00
        E 150 90 48 64
        E 0 90 54 64
        E 0 90 60 64
        E 10 80 48 00
        E 0 80 54 00
        E 0 80 60 00
        E 310 90 3e 64
        E 0 90 4a 64
        E 0 90 56 64
        E 0 90 62 64
        E 3640 80 3e 00
        E 120 80 4a 00
        E 120 80 56 00
        E 0 80 62 00
        E 120 90 3d 64
        E 0 90 49 64
        E 0 90 55 64
        E 0 90 61 64
        E 10 80 3d 00
        E 0 80 49 00
        E 0 80 55 00
        E 0 80 61 00
        E 470 90 49 64
        E 0 90 55 64
        E 0 90 61 64
        E 10 80 49 00
        E 0 80 55 00
        E 0 80 61 00
        E 470 90 3c 64
        E 0 90 48 64
        E 0 90 54 64
        E 0 90 60 64
        E 10 80 3c 00
        E 0 80 48 00
        E 0 80 54 00
        E 0 80 60 00
        E 310 90 54 64
        E 0 90 60 64
        E 10 80 54 00
        E 0 80 60 00
        E 150 90 48 64
        E 0 90 54 64
        E 0 90 60 64
        E 10 80 48 00
        E 0 80 54 00
        E 0 80 60 00
        E 470 90 3c 64
        E 0 90 48 64
        E 0 90 54 64
        E 0 90 60 64
        E 10 80 3c 00
        E 0 80 48 00
        E 0 80 54 00
        E 0 80 60 00
        E 470 90 48 64
        E 0 90 54 64
        E 0 90 60 64
        E 10 80 48 00
        E 0 80 54 00
        E 0 80 60 00
        <X 470 0 0 0 1 [wail_on]
          /wFbd2FpbF9vbl0=
        >
        E 0 90 3e 64
        E 0 90 4b 64
        E 0 90 58 64
        E 0 90 64 64
        E 10 80 3e 00
        E 0 80 4b 00
        E 0 80 58 00
        E 0 80 64 00
        E 470 90 4b 64
        E 0 90 58 64
        E 0 90 64 64
        E 10 80 4b 00
        E 0 80 58 00
        E 0 80 64 00
        E 470 90 3c 64
        E 0 90 49 64
        E 0 90 55 64
        E 0 90 61 64
        E 10 80 3c 00
        E 0 80 49 00
        E 0 80 55 00
        E 0 80 61 00
        E 310 90 55 64
        E 0 90 61 64
        E 10 80 55 00
        E 0 80 61 00
        E 150 90 49 64
        E 0 90 55 64
        E 0 90 61 64
        E 10 80 49 00
        E 350 80 55 00
        E 0 80 61 00
        E 120 90 3d 64
        E 0 90 4a 64
        E 0 90 56 64
        E 0 90 62 64
        E 10 80 3d 00
        E 0 80 4a 00
        E 350 80 56 00
        E 0 80 62 00
        E 120 90 4a 64
        E 0 90 56 64
        E 0 90 62 64
        E 10 80 4a 00
        E 350 80 56 00
        E 0 80 62 00
        E 120 90 3e 64
        E 0 90 4b 64
        E 0 90 57 64
        E 0 90 63 64
        E 10 80 3e 00
        E 0 80 4b 00
        E 350 80 57 00
        E 0 80 63 00
        E 120 90 4b 64
        E 0 90 57 64
        E 0 90 63 64
        E 10 80 4b 00
        E 350 80 57 00
        E 0 80 63 00
        E 120 90 3c 64
        E 0 90 48 64
        E 0 90 54 64
        E 0 90 60 64
        E 10 80 3c 00
        E 0 80 48 00
        E 0 80 54 00
        E 0 80 60 00
        E 310 90 54 64
        E 0 90 60 64
        E 10 80 54 00
        E 0 80 60 00
        E 150 90 48 64
        E 0 90 54 64
        E 0 90 60 64
        E 10 80 48 00
        E 350 80 54 00
        E 0 80 60 00
        E 120 90 3e 64
        E 0 90 4b 64
        E 0 90 58 64
        E 0 90 64 64
        E 10 80 3e 00
        E 0 80 4b 00
        E 350 80 58 00
        E 0 80 64 00
        E 120 90 4b 64
        E 0 90 58 64
        E 0 90 64 64
        E 10 80 4b 00
        E 350 80 58 00
        E 0 80 64 00
        E 120 90 3d 64
        E 0 90 4a 64
        E 0 90 57 64
        E 0 90 63 64
        E 10 80 3d 00
        E 0 80 4a 00
        E 350 80 57 00
        E 0 80 63 00
        E 120 90 4a 64
        E 0 90 57 64
        E 0 90 63 64
        E 10 80 4a 00
        E 350 80 57 00
        E 0 80 63 00
        E 112 90 43 64
        E 0 90 4f 64
        E 0 90 5b 64
        E 0 90 67 64
        E 8 90 3c 64
        E 0 90 48 64
        E 0 90 54 64
        E 0 90 60 64
        E 10 80 3c 00
        E 0 80 48 00
        E 0 80 54 00
        E 0 80 60 00
        E 150 90 54 64
        E 0 90 60 64
        E 10 80 54 00
        E 0 80 60 00
        E 150 90 54 64
        E 0 90 60 64
        E 10 80 54 00
        E 0 80 60 00
        E 150 90 48 64
        E 0 90 54 64
        E 0 90 60 64
        E 10 80 48 00
        E 350 80 54 00
        E 0 80 60 00
        E 120 90 3d 64
        E 0 90 4a 64
        E 0 90 56 64
        E 0 90 62 64
        E 10 80 3d 00
        E 0 80 4a 00
        E 0 80 56 00
        E 0 80 62 00
        E 310 90 56 64
        E 0 90 62 64
        E 10 80 56 00
        E 0 80 62 00
        E 150 90 4a 64
        E 0 90 56 64
        E 0 90 62 64
        E 10 80 4a 00
        E 350 80 56 00
        E 0 80 62 00
        E 120 90 3c 64
        E 0 90 49 64
        E 0 90 55 64
        E 0 90 61 64
        E 10 80 3c 00
        E 0 80 49 00
        E 350 80 55 00
        E 0 80 61 00
        E 120 90 49 64
        E 0 90 55 64
        E 0 90 61 64
        E 10 80 49 00
        E 350 80 55 00
        E 0 80 61 00
        E 112 80 43 00
        E 0 80 4f 00
        E 0 80 5b 00
        E 0 80 67 00
        E 8 90 3d 64
        E 0 90 4a 64
        E 0 90 56 64
        E 0 90 62 64
        E 10 80 3d 00
        E 0 80 4a 00
        E 350 80 56 00
        E 0 80 62 00
        E 120 90 4a 64
        E 0 90 56 64
        E 0 90 62 64
        E 10 80 4a 00
        E 350 80 56 00
        E 0 80 62 00
        E 120 90 3e 64
        E 0 90 4b 64
        E 0 90 57 64
        E 0 90 63 64
        E 10 80 3e 00
        E 0 80 4b 00
        E 0 80 57 00
        E 0 80 63 00
        E 310 90 57 64
        E 0 90 63 64
        E 10 80 57 00
        E 0 80 63 00
        E 150 90 4b 64
        E 0 90 57 64
        E 0 90 63 64
        E 10 80 4b 00
        E 350 80 57 00
        E 0 80 63 00
        E 120 90 3c 64
        E 0 90 48 64
        E 0 90 54 64
        E 0 90 60 64
        E 10 80 3c 00
        E 0 80 48 00
        E 0 80 54 00
        E 0 80 60 00
        E 310 90 54 64
        E 0 90 60 64
        E 10 80 54 00
        E 0 80 60 00
        E 150 90 48 64
        E 0 90 54 64
        E 0 90 60 64
        E 10 80 48 00
        E 350 80 54 00
        E 0 80 60 00
        E 120 90 3e 64
        E 0 90 4b 64
        E 0 90 58 64
        E 0 90 64 64
        E 10 80 3e 00
        E 0 80 4b 00
        E 350 80 58 00
        E 0 80 64 00
        E 120 90 4b 64
        E 0 90 58 64
        E 0 90 64 64
        E 10 80 4b 00
        E 350 80 58 00
        E 0 80 64 00
        E 120 90 3d 64
        E 0 90 4a 64
        E 0 90 57 64
        E 0 90 63 64
        E 10 80 3d 00
        E 0 80 4a 00
        E 350 80 57 00
        E 0 80 63 00
        E 120 90 4a 64
        E 0 90 57 64
        E 0 90 63 64
        E 10 80 4a 00
        E 350 80 57 00
        E 0 80 63 00
        E 120 90 3c 64
        E 0 90 48 64
        E 0 90 54 64
        E 0 90 60 64
        E 10 80 3c 00
        E 0 80 48 00
        E 0 80 54 00
        E 0 80 60 00
        E 150 90 54 64
        E 0 90 60 64
        E 10 80 54 00
        E 0 80 60 00
        E 150 90 54 64
        E 0 90 60 64
        E 10 80 54 00
        E 0 80 60 00
        E 150 90 48 64
        E 0 90 54 64
        E 0 90 60 64
        E 10 80 48 00
        E 0 80 54 00
        E 0 80 60 00
        E 150 90 60 64
        E 10 80 60 00
        E 150 90 60 64
        E 10 80 60 00
        E 150 90 3d 64
        E 0 90 4a 64
        E 0 90 56 64
        E 0 90 62 64
        E 10 80 3d 00
        E 0 80 4a 00
        E 0 80 56 00
        E 0 80 62 00
        E 350 90 4a 64
        E 0 90 56 64
        E 0 90 62 64
        E 10 80 4a 00
        E 0 80 56 00
        E 0 80 62 00
        E 350 90 56 64
        E 0 90 62 64
        E 10 80 56 00
        E 0 80 62 00
        E 230 90 3d 64
        E 0 90 49 64
        E 0 90 55 64
        E 0 90 61 64
        E 10 80 3d 00
        E 0 80 49 00
        E 350 80 55 00
        E 0 80 61 00
        E 120 90 49 64
        E 0 90 55 64
        E 0 90 61 64
        E 10 80 49 00
        E 350 80 55 00
        E 0 80 61 00
        E 120 90 3d 64
        E 0 90 4a 64
        E 0 90 56 64
        E 0 90 62 64
        E 10 80 3d 00
        E 0 80 4a 00
        E 350 80 56 00
        E 0 80 62 00
        E 120 90 4a 64
        E 0 90 56 64
        E 0 90 62 64
        E 10 80 4a 00
        E 350 80 56 00
        E 0 80 62 00
        E 120 90 3e 64
        E 0 90 4b 64
        E 0 90 57 64
        E 0 90 63 64
        E 10 80 3e 00
        E 0 80 4b 00
        E 350 80 57 00
        E 0 80 63 00
        E 120 90 4b 64
        E 0 90 57 64
        E 0 90 63 64
        E 10 80 4b 00
        E 350 80 57 00
        E 0 80 63 00
        E 120 90 3c 64
        E 0 90 48 64
        E 0 90 54 64
        E 0 90 60 64
        E 10 80 3c 00
        E 0 80 48 00
        E 0 80 54 00
        E 0 80 60 00
        E 150 90 54 64
        E 0 90 60 64
        E 10 80 54 00
        E 0 80 60 00
        E 150 90 54 64
        E 0 90 60 64
        E 10 80 54 00
        E 0 80 60 00
        E 150 90 48 64
        E 0 90 54 64
        E 0 90 60 64
        E 10 80 48 00
        E 350 80 54 00
        E 0 80 60 00
        E 120 90 3e 64
        E 0 90 4b 64
        E 0 90 58 64
        E 0 90 64 64
        E 10 80 3e 00
        E 0 80 4b 00
        E 0 80 58 00
        E 0 80 64 00
        E 310 90 58 64
        E 0 90 64 64
        E 10 80 58 00
        E 0 80 64 00
        E 150 90 4b 64
        E 0 90 58 64
        E 0 90 64 64
        E 10 80 4b 00
        E 350 80 58 00
        E 0 80 64 00
        E 120 90 3d 64
        E 0 90 4a 64
        E 0 90 57 64
        E 0 90 63 64
        E 10 80 3d 00
        E 0 80 4a 00
        E 0 80 57 00
        E 0 80 63 00
        E 310 90 57 64
        E 0 90 63 64
        E 10 80 57 00
        E 0 80 63 00
        E 150 90 4a 64
        E 0 90 57 64
        E 0 90 63 64
        E 10 80 4a 00
        E 350 80 57 00
        E 0 80 63 00
        E 120 90 3c 64
        E 0 90 48 64
        E 0 90 54 64
        E 0 90 60 64
        E 10 80 3c 00
        E 0 80 48 00
        E 0 80 54 00
        E 0 80 60 00
        E 150 90 54 64
        E 0 90 60 64
        E 10 80 54 00
        E 0 80 60 00
        E 150 90 54 64
        E 0 90 60 64
        E 10 80 54 00
        E 0 80 60 00
        E 150 90 48 64
        E 0 90 54 64
        E 0 90 60 64
        E 10 80 48 00
        E 350 80 54 00
        E 0 80 60 00
        E 120 90 3d 64
        E 0 90 4a 64
        E 0 90 56 64
        E 0 90 62 64
        E 10 80 3d 00
        E 0 80 4a 00
        E 350 80 56 00
        E 0 80 62 00
        E 120 90 4a 64
        E 0 90 56 64
        E 0 90 62 64
        E 10 80 4a 00
        E 350 80 56 00
        E 0 80 62 00
        E 120 90 3c 64
        E 0 90 49 64
        E 0 90 55 64
        E 0 90 61 64
        E 10 80 3c 00
        E 0 80 49 00
        E 350 80 55 00
        E 0 80 61 00
        E 120 90 49 64
        E 0 90 55 64
        E 0 90 61 64
        E 10 80 49 00
        E 350 80 55 00
        E 0 80 61 00
        E 120 90 3d 64
        E 0 90 4a 64
        E 0 90 56 64
        E 0 90 62 64
        E 10 80 3d 00
        E 0 80 4a 00
        E 0 80 56 00
        E 0 80 62 00
        E 310 90 56 64
        E 0 90 62 64
        E 10 80 56 00
        E 0 80 62 00
        E 150 90 4a 64
        E 0 90 56 64
        E 0 90 62 64
        E 10 80 4a 00
        E 350 80 56 00
        E 0 80 62 00
        E 120 90 3e 64
        E 0 90 4b 64
        E 0 90 57 64
        E 0 90 63 64
        E 10 80 3e 00
        E 0 80 4b 00
        E 350 80 57 00
        E 0 80 63 00
        E 120 90 4b 64
        E 0 90 57 64
        E 0 90 63 64
        E 10 80 4b 00
        E 350 80 57 00
        E 0 80 63 00
        E 120 90 3c 64
        E 0 90 48 64
        E 0 90 54 64
        E 0 90 60 64
        E 10 80 3c 00
        E 0 80 48 00
        E 350 80 54 00
        E 0 80 60 00
        E 120 90 48 64
        E 0 90 54 64
        E 0 90 60 64
        E 10 80 48 00
        E 350 80 54 00
        E 0 80 60 00
        E 120 90 3e 64
        E 0 90 4a 64
        E 0 90 58 64
        E 0 90 64 64
        E 10 80 3e 00
        E 0 80 4a 00
        E 0 80 58 00
        E 0 80 64 00
        E 310 90 58 64
        E 0 90 64 64
        E 10 80 58 00
        E 0 80 64 00
        E 150 90 4a 64
        E 0 90 58 64
        E 0 90 64 64
        E 10 80 4a 00
        E 350 80 58 00
        E 0 80 64 00
        E 120 90 3c 64
        E 0 90 48 64
        E 0 90 54 64
        E 0 90 60 64
        E 10 80 3c 00
        E 0 80 48 00
        E 350 80 54 00
        E 0 80 60 00
        E 120 90 48 64
        E 0 90 54 64
        E 0 90 60 64
        E 10 80 48 00
        E 350 80 54 00
        E 0 80 60 00
        <X 120 0 0 0 1 [wail_off]
          /wFbd2FpbF9vZmZd
        >
        E 0 90 3c 64
        E 0 90 48 64
        E 0 90 54 64
        E 0 90 60 64
        E 10 80 3c 00
        E 0 80 48 00
        E 350 80 54 00
        E 0 80 60 00
        E 120 90 48 64
        E 0 90 54 64
        E 0 90 60 64
        E 10 80 48 00
        E 350 80 54 00
        E 0 80 60 00
        E 120 90 3d 64
        E 0 90 4a 64
        E 0 90 57 64
        E 0 90 63 64
        E 600 80 3d 00
        E 120 80 4a 00
        E 120 80 57 00
        E 0 80 63 00
        E 120 90 63 64
        E 10 80 63 00
        E 150 90 3e 64
        E 0 90 4b 64
        E 0 90 58 64
        E 0 90 64 64
        <X 1280 0 0 0 1 [idle]
          /wFbaWRsZV0=
        >
        E 1680 80 3e 00
        E 120 80 4b 00
        E 120 80 58 00
        E 0 80 64 00
        <X 4320 0 0 0 1 [play]
          /wFbcGxheV0=
        >
        E 0 90 3e 64
        E 0 90 4a 64
        E 0 90 56 64
        E 0 90 62 64
        E 600 80 3e 00
        E 120 80 4a 00
        E 120 80 56 00
        E 0 80 62 00
        E 120 90 3c 64
        E 0 90 48 64
        E 0 90 54 64
        E 0 90 60 64
        E 10 80 3c 00
        E 350 80 48 00
        E 120 80 54 00
        E 0 80 60 00
        <X 240 0 0 0 1 [idle]
          /wFbaWRsZV0=
        >
        E 240 b0 7b 00
        CCINTERP 32
        CHASE_CC_TAKEOFFS 1
        GUID {1D58BD27-7EFC-4CD5-8ECF-4418214CF6F2}
        IGNTEMPO 0 120 4 4
        SRCCOLOR 14
        VELLANE -1 100 0
        CFGEDITVIEW 0 0.003519 50 12 0 -1 0 0 0 0.5
        KEYSNAP 0
        TRACKSEL 0
        EVTFILTER 0 -1 -1 -1 -1 0 0 0 0 -1 -1 -1 -1 0 -1 0 -1 -1
        CFGEDIT 1 1 0 1 0 4 1 1 1 1 1 0.125 1266 109 2185 1353 0 0 0 0 0 0 0 0 0 0.5 0 0 1 64
      >
    >
  >
  <TRACK {8E81E5BB-F623-449B-8FD5-BE3982D5DF76}
    NAME "BAND BASS"
    PEAKCOL 16576
    BEAT -1
    AUTOMODE 0
    VOLPAN 1 0 -1 -1 1
    MUTESOLO 0 0 0
    IPHASE 0
    PLAYOFFS 0 1
    ISBUS 0 0
    BUSCOMP 0 0 0 0 0
    SHOWINMIX 1 0.6667 0.5 1 0.5 -1 -1 -1
    FREEMODE 0
    SEL 0
    REC 0 0 1 0 0 0 0
    VU 2
    TRACKHEIGHT 0 0 0 0 0 0
    INQ 0 0 0 0.5 100 0 0 100
    NCHAN 2
    FX 1
    TRACKID {8E81E5BB-F623-449B-8FD5-BE3982D5DF76}
    PERF 0
    MIDIOUT -1
    MAINSEND 1 0
    <ITEM
      POSITION 0
      SNAPOFFS 0
      LENGTH 154.53395768125
      LOOP 1
      ALLTAKES 0
      FADEIN 1 0 0 1 0 0 0
      FADEOUT 1 0 0 1 0 0 0
      MUTE 0 0
      SEL 0
      IGUID {FF26ED0A-9032-452E-B4C5-84D2B0596B66}
      IID 3
      NAME "BAND BASS - allofthis.mid"
      VOLPAN 1 0 1 -1
      SOFFS 0 0
      PLAYRATE 1 1 0 -1 0 0.0025
      CHANMODE 0
      GUID {B82F96B0-FED5-43E5-92A2-97899187E44E}
      <SOURCE MIDI
        HASDATA 1 480 QN
        CCINTERP 32
        POOLEDEVTS {93B09835-C5E0-416A-AE92-577B74413489}
        <X 0 0 0 0 3 "BAND BASS"
          /wNCQU5EIEJBU1M=
        >
        <X 19200 0 0 0 1 [play]
          /wFbcGxheV0=
        >
        E 0 90 24 64
        E 10 80 24 00
        E 470 90 24 64
        E 10 80 24 00
        E 470 90 24 64
        E 10 80 24 00
        E 470 90 24 64
        E 10 80 24 00
        E 470 90 24 64
        E 10 80 24 00
        E 470 90 24 64
        E 10 80 24 00
        E 470 90 24 64
        E 10 80 24 00
        E 470 90 24 64
        E 10 80 24 00
        E 310 90 24 64
        E 10 80 24 00
        E 150 90 24 64
        E 10 80 24 00
        E 470 90 24 64
        E 10 80 24 00
        E 470 90 24 64
        E 10 80 24 00
        E 470 90 24 64
        E 10 80 24 00
        E 470 90 24 64
        E 10 80 24 00
        E 470 90 24 64
        E 10 80 24 00
        E 470 90 24 64
        E 10 80 24 00
        E 470 90 24 64
        E 10 80 24 00
        E 470 90 24 64
        E 10 80 24 00
        E 470 90 24 64
        E 10 80 24 00
        E 470 90 24 64
        E 10 80 24 00
        E 470 90 24 64
        E 10 80 24 00
        E 470 90 24 64
        E 10 80 24 00
        E 470 90 24 64
        E 10 80 24 00
        E 470 90 24 64
        E 10 80 24 00
        E 470 90 24 64
        E 10 80 24 00
        E 470 90 24 64
        E 10 80 24 00
        E 470 90 24 64
        E 10 80 24 00
        E 470 90 24 64
        E 10 80 24 00
        E 470 90 24 64
        E 10 80 24 00
        E 470 90 24 64
        E 10 80 24 00
        E 470 90 24 64
        E 10 80 24 00
        E 470 90 24 64
        E 10 80 24 00
        E 310 90 24 64
        E 10 80 24 00
        E 150 90 24 64
        E 10 80 24 00
        E 310 90 24 64
        E 10 80 24 00
        E 150 90 24 64
        E 10 80 24 00
        E 470 90 24 64
        E 10 80 24 00
        E 470 90 24 64
        E 10 80 24 00
        E 470 90 24 64
        E 10 80 24 00
        E 470 90 24 64
        E 10 80 24 00
        E 470 90 24 64
        E 10 80 24 00
        E 470 90 24 64
        E 10 80 24 00
        E 470 90 24 64
        E 10 80 24 00
        E 470 90 24 64
        E 10 80 24 00
        E 470 90 24 64
        E 10 80 24 00
        E 470 90 24 64
        E 10 80 24 00
        E 470 90 24 64
        E 10 80 24 00
        E 470 90 24 64
        E 10 80 24 00
        E 470 90 24 64
        E 10 80 24 00
        E 310 90 24 64
        E 10 80 24 00
        E 150 90 24 64
        E 10 80 24 00
        E 310 90 24 64
        E 10 80 24 00
        E 150 90 24 64
        E 10 80 24 00
        E 470 90 24 64
        E 10 80 24 00
        E 470 90 24 64
        E 10 80 24 00
        E 470 90 24 64
        E 10 80 24 00
        E 470 90 24 64
        E 10 80 24 00
        E 470 90 24 64
        E 10 80 24 00
        E 470 90 24 64
        E 10 80 24 00
        E 470 90 24 64
        E 10 80 24 00
        E 470 90 24 64
        E 10 80 24 00
        E 470 90 24 64
        E 10 80 24 00
        E 470 90 24 64
        E 10 80 24 00
        E 470 90 24 64
        E 10 80 24 00
        E 470 90 24 64
        E 10 80 24 00
        E 470 90 24 64
        E 10 80 24 00
        E 470 90 24 64
        E 10 80 24 00
        E 470 90 24 64
        E 10 80 24 00
        E 470 90 24 64
        E 10 80 24 00
        <X 470 0 0 0 1 [idle]
          /wFbaWRsZV0=
        >
        <X 1920 0 0 0 1 [play]
          /wFbcGxheV0=
        >
        E 0 90 24 64
        E 10 80 24 00
        E 470 90 24 64
        E 10 80 24 00
        E 470 90 24 64
        E 10 80 24 00
        E 470 90 24 64
        E 10 80 24 00
        E 470 90 24 64
        E 10 80 24 00
        E 470 90 24 64
        E 10 80 24 00
        E 470 90 24 64
        E 10 80 24 00
        E 470 90 24 64
        E 10 80 24 00
        E 470 90 24 64
        E 10 80 24 00
        E 470 90 24 64
        E 10 80 24 00
        E 470 90 24 64
        E 10 80 24 00
        E 470 90 24 64
        E 10 80 24 00
        E 470 90 24 64
        E 10 80 24 00
        E 470 90 24 64
        E 10 80 24 00
        E 470 90 24 64
        E 10 80 24 00
        E 470 90 24 64
        E 10 80 24 00
        E 470 90 24 64
        E 10 80 24 00
        E 470 90 24 64
        E 10 80 24 00
        E 470 90 24 64
        E 10 80 24 00
        E 470 90 24 64
        E 10 80 24 00
        E 470 90 24 64
        E 10 80 24 00
        E 470 90 24 64
        E 10 80 24 00
        E 470 90 24 64
        E 10 80 24 00
        E 470 90 24 64
        E 10 80 24 00
        E 470 90 24 64
        E 10 80 24 00
        E 1190 90 24 64
        E 10 80 24 00
        E 230 90 24 64
        E 10 80 24 00
        E 470 90 24 64
        E 10 80 24 00
        E 1910 90 24 64
        E 10 80 24 00
        E 470 90 24 64
        E 10 80 24 00
        E 470 90 24 64
        E 10 80 24 00
        E 470 90 24 64
        E 10 80 24 00
        E 470 90 24 64
        E 10 80 24 00
        E 470 90 24 64
        E 10 80 24 00
        E 470 90 24 64
        E 10 80 24 00
        E 470 90 24 64
        E 10 80 24 00
        E 470 90 24 64
        E 10 80 24 00
        E 470 90 24 64
        E 10 80 24 00
        E 470 90 24 64
        E 10 80 24 00
        E 470 90 24 64
        E 10 80 24 00
        E 470 90 24 64
        E 10 80 24 00
        E 470 90 24 64
        E 10 80 24 00
        E 310 90 24 64
        E 10 80 24 00
        E 150 90 24 64
        E 10 80 24 00
        E 310 90 24 64
        E 10 80 24 00
        E 150 90 24 64
        E 10 80 24 00
        E 470 90 24 64
        E 10 80 24 00
        E 470 90 24 64
        E 10 80 24 00
        E 470 90 24 64
        E 10 80 24 00
        E 470 90 24 64
        E 10 80 24 00
        E 470 90 24 64
        E 10 80 24 00
        E 310 90 24 64
        E 10 80 24 00
        E 150 90 24 64
        E 10 80 24 00
        E 310 90 24 64
        E 10 80 24 00
        E 3030 90 24 64
        E 10 80 24 00
        E 470 90 24 64
        E 10 80 24 00
        E 470 90 24 64
        E 10 80 24 00
        E 470 90 24 64
        E 10 80 24 00
        E 470 90 24 64
        E 10 80 24 00
        E 470 90 24 64
        E 10 80 24 00
        E 310 90 24 64
        E 10 80 24 00
        E 150 90 24 64
        E 10 80 24 00
        E 470 90 24 64
        E 10 80 24 00
        <X 1430 0 0 0 1 [wail_on]
          /wFbd2FpbF9vbl0=
        >
        E 0 90 24 64
        E 10 80 24 00
        E 470 90 24 64
        E 10 80 24 00
        E 310 90 24 64
        E 10 80 24 00
        E 150 90 24 64
        E 10 80 24 00
        E 470 90 24 64
        E 10 80 24 00
        E 470 90 24 64
        E 10 80 24 00
        E 470 90 24 64
        E 10 80 24 00
        E 470 90 24 64
        E 10 80 24 00
        E 470 90 24 64
        E 10 80 24 00
        E 310 90 24 64
        E 10 80 24 00
        E 150 90 24 64
        E 10 80 24 00
        E 470 90 24 64
        E 10 80 24 00
        E 470 90 24 64
        E 10 80 24 00
        E 470 90 24 64
        E 10 80 24 00
        E 470 90 24 64
        E 10 80 24 00
        E 470 90 24 64
        E 10 80 24 00
        E 470 90 24 64
        E 10 80 24 00
        E 470 90 24 64
        E 10 80 24 00
        E 470 90 24 64
        E 10 80 24 00
        E 470 90 24 64
        E 10 80 24 00
        E 310 90 24 64
        E 10 80 24 00
        E 150 90 24 64
        E 10 80 24 00
        E 470 90 24 64
        E 10 80 24 00
        E 470 90 24 64
        E 10 80 24 00
        E 470 90 24 64
        E 10 80 24 00
        E 470 90 24 64
        E 10 80 24 00
        E 470 90 24 64
        E 10 80 24 00
        E 470 90 24 64
        E 10 80 24 00
        E 470 90 24 64
        E 10 80 24 00
        E 470 90 24 64
        E 10 80 24 00
        E 470 90 24 64
        E 10 80 24 00
        E 470 90 24 64
        E 10 80 24 00
        E 470 90 24 64
        E 10 80 24 00
        E 470 90 24 64
        E 10 80 24 00
        E 470 90 24 64
        E 10 80 24 00
        E 470 90 24 64
        E 10 80 24 00
        E 470 90 24 64
        E 10 80 24 00
        E 470 90 24 64
        E 10 80 24 00
        E 470 90 24 64
        E 10 80 24 00
        E 470 90 24 64
        E 10 80 24 00
        E 470 90 24 64
        E 10 80 24 00
        E 470 90 24 64
        E 10 80 24 00
        E 470 90 24 64
        E 10 80 24 00
        E 310 90 24 64
        E 10 80 24 00
        E 150 90 24 64
        E 10 80 24 00
        E 470 90 24 64
        E 10 80 24 00
        E 470 90 24 64
        E 10 80 24 00
        E 470 90 24 64
        E 10 80 24 00
        E 470 90 24 64
        E 10 80 24 00
        E 470 90 24 64
        E 10 80 24 00
        E 310 90 24 64
        E 10 80 24 00
        E 150 90 24 64
        E 10 80 24 00
        E 310 90 24 64
        E 10 80 24 00
        E 150 90 24 64
        E 10 80 24 00
        E 470 90 24 64
        E 10 80 24 00
        E 310 90 24 64
        E 10 80 24 00
        E 150 90 24 64
        E 10 80 24 00
        E 470 90 24 64
        E 10 80 24 00
        E 310 90 24 64
        E 10 80 24 00
        E 150 90 24 64
        E 10 80 24 00
        E 470 90 24 64
        E 10 80 24 00
        E 310 90 24 64
        E 10 80 24 00
        E 150 90 24 64
        E 10 80 24 00
        E 310 90 24 64
        E 10 80 24 00
        E 150 90 24 64
        E 10 80 24 00
        E 470 90 24 64
        E 10 80 24 00
        E 470 90 24 64
        E 10 80 24 00
        E 470 90 24 64
        E 10 80 24 00
        E 470 90 24 64
        E 10 80 24 00
        E 470 90 24 64
        E 10 80 24 00
        E 470 90 24 64
        E 10 80 24 00
        E 470 90 24 64
        E 10 80 24 00
        E 310 90 24 64
        E 10 80 24 00
        E 150 90 24 64
        E 10 80 24 00
        E 470 90 24 64
        E 10 80 24 00
        <X 470 0 0 0 1 [idle]
          /wFbaWRsZV0=
        >
        <X 1920 0 0 0 1 [play]
          /wFbcGxheV0=
        >
        E 0 90 24 64
        E 10 80 24 00
        E 470 90 24 64
        E 10 80 24 00
        E 470 90 24 64
        E 10 80 24 00
        E 470 90 24 64
        E 10 80 24 00
        E 470 90 24 64
        E 10 80 24 00
        E 470 90 24 64
        E 10 80 24 00
        E 470 90 24 64
        E 10 80 24 00
        E 470 90 24 64
        E 10 80 24 00
        E 470 90 24 64
        E 10 80 24 00
        E 470 90 24 64
        E 10 80 24 00
        E 470 90 24 64
        E 10 80 24 00
        E 310 90 24 64
        E 10 80 24 00
        E 150 90 24 64
        E 10 80 24 00
        E 470 90 24 64
        E 10 80 24 00
        E 350 90 24 64
        E 10 80 24 00
        E 350 90 24 64
        E 10 80 24 00
        E 230 90 24 64
        E 10 80 24 00
        E 350 90 24 64
        E 10 80 24 00
        E 350 90 24 64
        E 10 80 24 00
        E 230 90 24 64
        E 10 80 24 00
        E 470 90 24 64
        E 10 80 24 00
        E 470 90 24 64
        E 10 80 24 00
        E 310 90 24 64
        E 10 80 24 00
        E 150 90 24 64
        E 10 80 24 00
        E 470 90 24 64
        E 10 80 24 00
        E 310 90 24 64
        E 10 80 24 00
        E 150 90 24 64
        E 10 80 24 00
        E 470 90 24 64
        E 10 80 24 00
        E 310 90 24 64
        E 10 80 24 00
        E 150 90 24 64
        E 10 80 24 00
        <X 470 0 0 0 1 [wail_off]
          /wFbd2FpbF9vZmZd
        >
        E 0 90 24 64
        E 10 80 24 00
        E 1190 90 24 64
        E 10 80 24 00
        E 230 90 24 64
        E 10 80 24 00
        E 470 90 24 64
        E 10 80 24 00
        E 1430 90 24 64
        E 10 80 24 00
        E 150 90 24 64
        E 10 80 24 00
        E 310 90 24 64
        E 10 80 24 00
        E 1750 90 24 64
        E 10 80 24 00
        E 150 90 24 64
        E 10 80 24 00
        E 470 90 24 64
        E 10 80 24 00
        E 1430 90 24 64
        E 10 80 24 00
        E 470 90 24 64
        E 10 80 24 00
        E 470 90 24 64
        E 10 80 24 00
        E 470 90 24 64
        E 10 80 24 00
        E 470 90 24 64
        E 10 80 24 00
        E 470 90 24 64
        E 10 80 24 00
        E 470 90 24 64
        E 10 80 24 00
        E 470 90 24 64
        E 10 80 24 00
        E 310 90 24 64
        E 10 80 24 00
        E 150 90 24 64
        E 10 80 24 00
        E 470 90 24 64
        E 10 80 24 00
        E 470 90 24 64
        E 10 80 24 00
        E 470 90 24 64
        E 10 80 24 00
        E 470 90 24 64
        E 10 80 24 00
        E 470 90 24 64
        E 10 80 24 00
        E 310 90 24 64
        E 10 80 24 00
        E 150 90 24 64
        E 10 80 24 00
        E 310 90 24 64
        E 10 80 24 00
        E 150 90 24 64
        E 10 80 24 00
        E 470 90 24 64
        E 10 80 24 00
        E 470 90 24 64
        E 10 80 24 00
        E 470 90 24 64
        E 10 80 24 00
        E 470 90 24 64
        E 10 80 24 00
        E 470 90 24 64
        E 10 80 24 00
        E 310 90 24 64
        E 10 80 24 00
        E 150 90 24 64
        E 10 80 24 00
        E 310 90 24 64
        E 10 80 24 00
        E 3990 90 24 64
        E 10 80 24 00
        E 470 90 24 64
        E 10 80 24 00
        E 470 90 24 64
        E 10 80 24 00
        E 310 90 24 64
        E 10 80 24 00
        E 150 90 24 64
        E 10 80 24 00
        E 470 90 24 64
        E 10 80 24 00
        E 470 90 24 64
        E 10 80 24 00
        <X 470 0 0 0 1 [wail_on]
          /wFbd2FpbF9vbl0=
        >
        E 0 90 24 64
        E 10 80 24 00
        E 470 90 24 64
        E 10 80 24 00
        E 470 90 24 64
        E 10 80 24 00
        E 310 90 24 64
        E 10 80 24 00
        E 150 90 24 64
        E 10 80 24 00
        E 470 90 24 64
        E 10 80 24 00
        E 470 90 24 64
        E 10 80 24 00
        E 470 90 24 64
        E 10 80 24 00
        E 470 90 24 64
        E 10 80 24 00
        E 470 90 24 64
        E 10 80 24 00
        E 310 90 24 64
        E 10 80 24 00
        E 150 90 24 64
        E 10 80 24 00
        E 470 90 24 64
        E 10 80 24 00
        E 470 90 24 64
        E 10 80 24 00
        E 470 90 24 64
        E 10 80 24 00
        E 470 90 24 64
        E 10 80 24 00
        E 470 90 24 64
        E 10 80 24 00
        E 150 90 24 64
        E 10 80 24 00
        E 150 90 24 64
        E 10 80 24 00
        E 150 90 24 64
        E 10 80 24 00
        E 470 90 24 64
        E 10 80 24 00
        E 310 90 24 64
        E 10 80 24 00
        E 150 90 24 64
        E 10 80 24 00
        E 470 90 24 64
        E 10 80 24 00
        E 470 90 24 64
        E 10 80 24 00
        E 470 90 24 64
        E 10 80 24 00
        E 470 90 24 64
        E 10 80 24 00
        E 470 90 24 64
        E 10 80 24 00
        E 310 90 24 64
        E 10 80 24 00
        E 150 90 24 64
        E 10 80 24 00
        E 470 90 24 64
        E 10 80 24 00
        E 310 90 24 64
        E 10 80 24 00
        E 150 90 24 64
        E 10 80 24 00
        E 470 90 24 64
        E 10 80 24 00
        E 470 90 24 64
        E 10 80 24 00
        E 470 90 24 64
        E 10 80 24 00
        E 470 90 24 64
        E 10 80 24 00
        E 470 90 24 64
        E 10 80 24 00
        E 150 90 24 64
        E 10 80 24 00
        E 150 90 24 64
        E 10 80 24 00
        E 150 90 24 64
        E 10 80 24 00
        E 150 90 24 64
        E 10 80 24 00
        E 150 90 24 64
        E 10 80 24 00
        E 150 90 24 64
        E 10 80 24 00
        E 350 90 24 64
        E 10 80 24 00
        E 350 90 24 64
        E 10 80 24 00
        E 230 90 24 64
        E 10 80 24 00
        E 470 90 24 64
        E 10 80 24 00
        E 470 90 24 64
        E 10 80 24 00
        E 470 90 24 64
        E 10 80 24 00
        E 470 90 24 64
        E 10 80 24 00
        E 470 90 24 64
        E 10 80 24 00
        E 470 90 24 64
        E 10 80 24 00
        E 150 90 24 64
        E 10 80 24 00
        E 150 90 24 64
        E 10 80 24 00
        E 150 90 24 64
        E 10 80 24 00
        E 470 90 24 64
        E 10 80 24 00
        E 310 90 24 64
        E 10 80 24 00
        E 150 90 24 64
        E 10 80 24 00
        E 470 90 24 64
        E 10 80 24 00
        E 310 90 24 64
        E 10 80 24 00
        E 150 90 24 64
        E 10 80 24 00
        E 470 90 24 64
        E 10 80 24 00
        E 150 90 24 64
        E 10 80 24 00
        E 150 90 24 64
        E 10 80 24 00
        E 150 90 24 64
        E 10 80 24 00
        E 470 90 24 64
        E 10 80 24 00
        E 470 90 24 64
        E 10 80 24 00
        E 470 90 24 64
        E 10 80 24 00
        E 470 90 24 64
        E 10 80 24 00
        E 470 90 24 64
        E 10 80 24 00
        E 310 90 24 64
        E 10 80 24 00
        E 150 90 24 64
        E 10 80 24 00
        E 470 90 24 64
        E 10 80 24 00
        E 470 90 24 64
        E 10 80 24 00
        E 470 90 24 64
        E 10 80 24 00
        E 470 90 24 64
        E 10 80 24 00
        E 470 90 24 64
        E 10 80 24 00
        E 310 90 24 64
        E 10 80 24 00
        E 150 90 24 64
        E 10 80 24 00
        E 470 90 24 64
        E 10 80 24 00
        E 470 90 24 64
        E 10 80 24 00
        <X 470 0 0 0 1 [wail_off]
          /wFbd2FpbF9vZmZd
        >
        E 0 90 24 64
        E 10 80 24 00
        E 470 90 24 64
        E 10 80 24 00
        E 470 90 24 64
        E 10 80 24 00
        E 950 90 24 64
        E 10 80 24 00
        E 150 90 24 64
        E 10 80 24 00
        <X 1270 0 0 0 1 [idle]
          /wFbaWRsZV0=
        >
        <X 6240 0 0 0 1 [play]
          /wFbcGxheV0=
        >
        E 0 90 24 64
        E 10 80 24 00
        E 950 90 24 64
        E 10 80 24 00
        <X 710 0 0 0 1 [idle]
          /wFbaWRsZV0=
        >
        E 240 b0 7b 00
        CCINTERP 32
        CHASE_CC_TAKEOFFS 1
        GUID {7BCB18CF-1A21-4D32-A3AB-913923326F31}
        IGNTEMPO 0 120 4 4
        SRCCOLOR 15
        VELLANE -1 100 0
        CFGEDITVIEW 0 0.003519 50 12 0 -1 0 0 0 0.5
        KEYSNAP 0
        TRACKSEL 0
        EVTFILTER 0 -1 -1 -1 -1 0 0 0 0 -1 -1 -1 -1 0 -1 0 -1 -1
        CFGEDIT 1 1 0 1 0 4 1 1 1 1 1 0.125 1266 109 2185 1353 0 0 0 0 0 0 0 0 0 0.5 0 0 1 64
      >
    >
  >
  <TRACK {6B1D5932-CC73-41D0-9850-96547CF69410}
    NAME "BAND DRUMS"
    PEAKCOL 16576
    BEAT -1
    AUTOMODE 0
    VOLPAN 1 0 -1 -1 1
    MUTESOLO 0 0 0
    IPHASE 0
    PLAYOFFS 0 1
    ISBUS 0 0
    BUSCOMP 0 0 0 0 0
    SHOWINMIX 1 0.6667 0.5 1 0.5 -1 -1 -1
    FREEMODE 0
    SEL 0
    REC 0 0 1 0 0 0 0
    VU 2
    TRACKHEIGHT 0 0 0 0 0 0
    INQ 0 0 0 0.5 100 0 0 100
    NCHAN 2
    FX 1
    TRACKID {6B1D5932-CC73-41D0-9850-96547CF69410}
    PERF 0
    MIDIOUT -1
    MAINSEND 1 0
    <ITEM
      POSITION 0
      SNAPOFFS 0
      LENGTH 153.24363668125
      LOOP 1
      ALLTAKES 0
      FADEIN 1 0 0 1 0 0 0
      FADEOUT 1 0 0 1 0 0 0
      MUTE 0 0
      SEL 0
      IGUID {66CE4FEA-16A5-4A69-A1D3-0B7669030DF0}
      IID 4
      NAME "BAND DRUMS - allofthis.mid"
      VOLPAN 1 0 1 -1
      SOFFS 0 0
      PLAYRATE 1 1 0 -1 0 0.0025
      CHANMODE 0
      GUID {40983E39-854D-4F3F-82EB-BE7EBA61360E}
      <SOURCE MIDI
        HASDATA 1 480 QN
        CCINTERP 32
        POOLEDEVTS {031005EC-197B-4EE1-AD7B-7D47B9897178}
        <X 0 0 0 0 3 "BAND DRUMS"
          /wNCQU5EIERSVU1T
        >
        <X 0 0 0 0 1 [nobeat]
          /wFbbm9iZWF0XQ==
        >
        <X 33600 0 0 0 1 [double_time]
          /wFbZG91YmxlX3RpbWVd
        >
        <X 480 0 0 0 1 [normal_tempo]
          /wFbbm9ybWFsX3RlbXBvXQ==
        >
        <X 16800 0 0 0 1 [double_time]
          /wFbZG91YmxlX3RpbWVd
        >
        <X 480 0 0 0 1 [normal_tempo]
          /wFbbm9ybWFsX3RlbXBvXQ==
        >
        <X 14880 0 0 0 1 [allbeat]
          /wFbYWxsYmVhdF0=
        >
        <X 960 0 0 0 1 [normal_tempo]
          /wFbbm9ybWFsX3RlbXBvXQ==
        >
        <X 9600 0 0 0 1 [half_time]
          /wFbaGFsZl90aW1lXQ==
        >
        <X 1440 0 0 0 1 [nobeat]
          /wFbbm9iZWF0XQ==
        >
        <X 1440 0 0 0 1 [normal_tempo]
          /wFbbm9ybWFsX3RlbXBvXQ==
        >
        <X 3840 0 0 0 1 [allbeat]
          /wFbYWxsYmVhdF0=
        >
        <X 960 0 0 0 1 [nobeat]
          /wFbbm9iZWF0XQ==
        >
        <X 960 0 0 0 1 [normal_tempo]
          /wFbbm9ybWFsX3RlbXBvXQ==
        >
        <X 30720 0 0 0 1 [allbeat]
          /wFbYWxsYmVhdF0=
        >
        <X 1920 0 0 0 1 [normal_tempo]
          /wFbbm9ybWFsX3RlbXBvXQ==
        >
        <X 5760 0 0 0 1 [double_time]
          /wFbZG91YmxlX3RpbWVd
        >
        <X 1920 0 0 0 1 [normal_tempo]
          /wFbbm9ybWFsX3RlbXBvXQ==
        >
        <X 3840 0 0 0 1 [half_time]
          /wFbaGFsZl90aW1lXQ==
        >
        <X 960 0 0 0 1 [normal_tempo]
          /wFbbm9ybWFsX3RlbXBvXQ==
        >
        <X 480 0 0 0 1 [half_time]
          /wFbaGFsZl90aW1lXQ==
        >
        <X 1440 0 0 0 1 [normal_tempo]
          /wFbbm9ybWFsX3RlbXBvXQ==
        >
        <X 480 0 0 0 1 [half_time]
          /wFbaGFsZl90aW1lXQ==
        >
        <X 1440 0 0 0 1 [normal_tempo]
          /wFbbm9ybWFsX3RlbXBvXQ==
        >
        <X 480 0 0 0 1 [half_time]
          /wFbaGFsZl90aW1lXQ==
        >
        <X 1440 0 0 0 1 [allbeat]
          /wFbYWxsYmVhdF0=
        >
        <X 1440 0 0 0 1 [nobeat]
          /wFbbm9iZWF0XQ==
        >
        <X 6240 0 0 0 1 [allbeat]
          /wFbYWxsYmVhdF0=
        >
        <X 960 0 0 0 1 [normal_tempo]
          /wFbbm9ybWFsX3RlbXBvXQ==
        >
        <X 3360 0 0 0 1 [nobeat]
          /wFbbm9iZWF0XQ==
        >
        <X 1440 0 0 0 1 [allbeat]
          /wFbYWxsYmVhdF0=
        >
        <X 1920 0 0 0 1 [normal_tempo]
          /wFbbm9ybWFsX3RlbXBvXQ==
        >
        <X 17280 0 0 0 1 [double_time]
          /wFbZG91YmxlX3RpbWVd
        >
        <X 1920 0 0 0 1 [normal_tempo]
          /wFbbm9ybWFsX3RlbXBvXQ==
        >
        <X 14400 0 0 0 1 [half_time]
          /wFbaGFsZl90aW1lXQ==
        >
        <X 1920 0 0 0 1 [double_time]
          /wFbZG91YmxlX3RpbWVd
        >
        <X 5760 0 0 0 1 [half_time]
          /wFbaGFsZl90aW1lXQ==
        >
        <X 1439 0 0 0 1 [nobeat]
          /wFbbm9iZWF0XQ==
        >
        E 1 b0 7b 00
        CCINTERP 32
        CHASE_CC_TAKEOFFS 1
        GUID {E1040654-43FA-41C9-8A6F-366DCABC4BEF}
        IGNTEMPO 0 120 4 4
        SRCCOLOR 16
        VELLANE -1 100 0
        CFGEDITVIEW 0 0.003519 50 12 0 -1 0 0 0 0.5
        KEYSNAP 0
        TRACKSEL 0
        EVTFILTER 0 -1 -1 -1 -1 0 0 0 0 -1 -1 -1 -1 0 -1 0 -1 -1
        CFGEDIT 1 1 0 1 0 4 1 1 1 1 1 0.125 1266 109 2185 1353 0 0 0 0 0 0 0 0 0 0.5 0 0 1 64
      >
    >
  >
  <TRACK {AC19CF54-DA4C-4308-9982-94C0663A96DF}
    NAME "BAND SINGER"
    PEAKCOL 16576
    BEAT -1
    AUTOMODE 0
    VOLPAN 1 0 -1 -1 1
    MUTESOLO 0 0 0
    IPHASE 0
    PLAYOFFS 0 1
    ISBUS 0 0
    BUSCOMP 0 0 0 0 0
    SHOWINMIX 1 0.6667 0.5 1 0.5 -1 -1 -1
    FREEMODE 0
    SEL 0
    REC 0 0 1 0 0 0 0
    VU 2
    TRACKHEIGHT 0 0 0 0 0 0
    INQ 0 0 0 0.5 100 0 0 100
    NCHAN 2
    FX 1
    TRACKID {AC19CF54-DA4C-4308-9982-94C0663A96DF}
    PERF 0
    MIDIOUT -1
    MAINSEND 1 0
    <ITEM
      POSITION 0
      SNAPOFFS 0
      LENGTH 152.81352968125
      LOOP 1
      ALLTAKES 0
      FADEIN 1 0 0 1 0 0 0
      FADEOUT 1 0 0 1 0 0 0
      MUTE 0 0
      SEL 0
      IGUID {8C8683CA-B05B-48A0-9B42-30CAB1182345}
      IID 5
      NAME "BAND SINGER - allofthis.mid"
      VOLPAN 1 0 1 -1
      SOFFS 0 0
      PLAYRATE 1 1 0 -1 0 0.0025
      CHANMODE 0
      GUID {5D7A3088-03F3-47EA-9291-65C8C1EC76BF}
      <SOURCE MIDI
        HASDATA 1 480 QN
        CCINTERP 32
        POOLEDEVTS {21CE4FB4-DE99-4DB5-A435-7CCAF80B4178}
        <X 0 0 0 0 3 "BAND SINGER"
          /wNCQU5EIFNJTkdFUg==
        >
        <X 0 0 0 0 1 [idle]
          /wFbaWRsZV0=
        >
        <X 19200 0 0 0 1 [play]
          /wFbcGxheV0=
        >
        <X 30720 0 0 0 1 [idle]
          /wFbaWRsZV0=
        >
        <X 1920 0 0 0 1 [play]
          /wFbcGxheV0=
        >
        <X 32640 0 0 0 1 [idle]
          /wFbaWRsZV0=
        >
        <X 33600 0 0 0 1 [play]
          /wFbcGxheV0=
        >
        <X 38400 0 0 0 1 [idle]
          /wFbaWRsZV0=
        >
        <X 14400 0 0 0 1 [play]
          /wFbcGxheV0=
        >
        <X 23039 0 0 0 1 [idle]
          /wFbaWRsZV0=
        >
        E 1 b0 7b 00
        CCINTERP 32
        CHASE_CC_TAKEOFFS 1
        GUID {E0EF35A4-9037-45BE-83B4-125347ADE5F1}
        IGNTEMPO 0 120 4 4
        SRCCOLOR 17
        VELLANE -1 100 0
        CFGEDITVIEW 0 0.003519 50 12 0 -1 0 0 0 0.5
        KEYSNAP 0
        TRACKSEL 0
        EVTFILTER 0 -1 -1 -1 -1 0 0 0 0 -1 -1 -1 -1 0 -1 0 -1 -1
        CFGEDIT 1 1 0 1 0 4 1 1 1 1 1 0.125 1266 109 2185 1353 0 0 0 0 0 0 0 0 0 0.5 0 0 1 64
      >
    >
  >
  <TRACK {2DF4029D-C522-4E9B-A049-569EFA227AF6}
    NAME EVENTS
    PEAKCOL 16576
    BEAT -1
    AUTOMODE 0
    VOLPAN 1 0 -1 -1 1
    MUTESOLO 0 0 0
    IPHASE 0
    PLAYOFFS 0 1
    ISBUS 0 0
    BUSCOMP 0 0 0 0 0
    SHOWINMIX 1 0.6667 0.5 1 0.5 -1 -1 -1
    FREEMODE 0
    SEL 1
    REC 0 0 1 0 0 0 0
    VU 2
    TRACKHEIGHT 0 0 0 0 0 0
    INQ 0 0 0 0.5 100 0 0 100
    NCHAN 2
    FX 1
    TRACKID {2DF4029D-C522-4E9B-A049-569EFA227AF6}
    PERF 0
    MIDIOUT -1
    MAINSEND 1 0
    <ITEM
      POSITION 0
      SNAPOFFS 0
      LENGTH 155.39417168124999
      LOOP 1
      ALLTAKES 0
      FADEIN 1 0 0 1 0 0 0
      FADEOUT 1 0 0 1 0 0 0
      MUTE 0 0
      SEL 0
      IGUID {9616A7FC-0EC2-4891-BA58-642177191E69}
      IID 6
      NAME "EVENTS - allofthis.mid"
      VOLPAN 1 0 1 -1
      SOFFS 0 0
      PLAYRATE 1 1 0 -1 0 0.0025
      CHANMODE 0
      GUID {084DAF17-B709-4F67-B326-A0EAF48E1FD3}
      <SOURCE MIDI
        HASDATA 1 480 QN
        CCINTERP 32
        POOLEDEVTS {E89949D9-1CC6-428F-81BF-CEE489A3F239}
        <X 0 0 0 0 3 EVENTS
          /wNFVkVOVFM=
        >
        <X 3840 0 0 0 1 [verse]
          /wFbdmVyc2Vd
        >
        <X 15360 0 0 0 1 "[section verse_1]"
          /wFbc2VjdGlvbiB2ZXJzZV8xXQ==
        >
        <X 32640 0 0 0 1 [chorus]
          /wFbY2hvcnVzXQ==
        >
        <X 0 0 0 0 1 "[section chorus_1]"
          /wFbc2VjdGlvbiBjaG9ydXNfMV0=
        >
        <X 15360 0 0 0 1 [verse]
          /wFbdmVyc2Vd
        >
        <X 0 0 0 0 1 "[section verse_2]"
          /wFbc2VjdGlvbiB2ZXJzZV8yXQ==
        >
        <X 18240 0 0 0 1 [solo]
          /wFbc29sb10=
        >
        <X 0 0 0 0 1 "[section solo]"
          /wFbc2VjdGlvbiBzb2xvXQ==
        >
        <X 32640 0 0 0 1 [chorus]
          /wFbY2hvcnVzXQ==
        >
        <X 0 0 0 0 1 "[section chorus_2]"
          /wFbc2VjdGlvbiBjaG9ydXNfMl0=
        >
        <X 19200 0 0 0 1 [verse]
          /wFbdmVyc2Vd
        >
        <X 0 0 0 0 1 "[section verse_3]"
          /wFbc2VjdGlvbiB2ZXJzZV8zXQ==
        >
        <X 17280 0 0 0 1 "[section outro]"
          /wFbc2VjdGlvbiBvdXRyb10=
        >
        <X 27840 0 0 0 1 "[section outro]"
          /wFbc2VjdGlvbiBvdXRyb10=
        >
        <X 14399 0 0 0 1 [end]
          /wFbZW5kXQ==
        >
        E 1 b0 7b 00
        CCINTERP 32
        CHASE_CC_TAKEOFFS 1
        GUID {3739D33E-DE9C-4653-B0AC-8BF4D0111F10}
        IGNTEMPO 0 120 4 4
        SRCCOLOR 18
        VELLANE -1 100 0
        CFGEDITVIEW 0 0.003519 50 12 0 -1 0 0 0 0.5
        KEYSNAP 0
        TRACKSEL 0
        EVTFILTER 0 -1 -1 -1 -1 0 0 0 0 -1 -1 -1 -1 0 -1 0 -1 -1
        CFGEDIT 1 1 0 1 0 4 1 1 1 1 1 0.125 2925 86 3844 1330 0 0 0 0 0 0 0 0 0 0.5 0 0 1 64
      >
    >
  >
  <TRACK {BE288011-A5DE-47CA-A8CA-8AEBA635B606}
    NAME TRIGGERS
    PEAKCOL 16576
    BEAT -1
    AUTOMODE 0
    VOLPAN 1 0 -1 -1 1
    MUTESOLO 0 0 0
    IPHASE 0
    PLAYOFFS 0 1
    ISBUS 0 0
    BUSCOMP 0 0 0 0 0
    SHOWINMIX 1 0.6667 0.5 1 0.5 -1 -1 -1
    FREEMODE 0
    SEL 0
    REC 0 0 1 0 0 0 0
    VU 2
    TRACKHEIGHT 0 0 0 0 0 0
    INQ 0 0 0 0.5 100 0 0 100
    NCHAN 2
    FX 1
    TRACKID {BE288011-A5DE-47CA-A8CA-8AEBA635B606}
    PERF 0
    MIDIOUT -1
    MAINSEND 1 0
    <ITEM
      POSITION 0
      SNAPOFFS 0
      LENGTH 151.09310168125
      LOOP 1
      ALLTAKES 0
      FADEIN 1 0 0 1 0 0 0
      FADEOUT 1 0 0 1 0 0 0
      MUTE 0 0
      SEL 0
      IGUID {B792E084-4525-45FC-ACD0-763EAD54BCCF}
      IID 7
      NAME "TRIGGERS - allofthis.mid"
      VOLPAN 1 0 1 -1
      SOFFS 0 0
      PLAYRATE 1 1 0 -1 0 0.0025
      CHANMODE 0
      GUID {1B29F1C7-0183-4C2B-9C9C-6947992AB58F}
      <SOURCE MIDI
        HASDATA 1 480 QN
        CCINTERP 32
        POOLEDEVTS {662D23E8-7EB0-4CE1-BE1A-CEB752284CBE}
        <X 0 0 0 0 3 TRIGGERS
          /wNUUklHR0VSUw==
        >
        E 192000 b0 7b 00
        CCINTERP 32
        CHASE_CC_TAKEOFFS 1
        GUID {D8DE30D4-70AA-403E-9353-1B61A38B5B39}
        IGNTEMPO 0 120 4 4
        SRCCOLOR 19
        VELLANE -1 100 0
        CFGEDITVIEW 0 0.003519 50 12 0 -1 0 0 0 0.5
        KEYSNAP 0
        TRACKSEL 0
        EVTFILTER 0 -1 -1 -1 -1 0 0 0 0 -1 -1 -1 -1 0 -1 0 -1 -1
        CFGEDIT 1 1 0 1 0 4 1 1 1 1 1 0.125 1266 109 2185 1353 0 0 0 0 0 0 0 0 0 0.5 0 0 1 64
      >
    >
  >
  <TRACK {5292273A-C5D4-4204-BFB3-09746C31587B}
    NAME drums
    PEAKCOL 16576
    BEAT -1
    AUTOMODE 0
    VOLPAN 1 0 -1 -1 1
    MUTESOLO 0 0 0
    IPHASE 0
    PLAYOFFS 0 1
    ISBUS 0 0
    BUSCOMP 0 0 0 0 0
    SHOWINMIX 1 0.6667 0.5 1 0.5 -1 -1 -1
    FREEMODE 0
    SEL 0
    REC 0 0 1 0 0 0 0
    VU 2
    TRACKHEIGHT 0 0 0 0 0 0
    INQ 0 0 0 0.5 100 0 0 100
    NCHAN 2
    FX 1
    TRACKID {5292273A-C5D4-4204-BFB3-09746C31587B}
    PERF 0
    MIDIOUT -1
    MAINSEND 1 0
    <ITEM
      POSITION 0
      SNAPOFFS 0
      LENGTH 157.79809523809524
      LOOP 1
      ALLTAKES 0
      FADEIN 1 0.01 0 1 0 0 0
      FADEOUT 1 0.01 0 1 0 0 0
      MUTE 0 0
      SEL 0
      IGUID {234EE41D-C195-4FB8-B7D3-AA006E68E3F2}
      IID 8
      NAME drums.flac
      VOLPAN 1 0 1 -1
      SOFFS 0
      PLAYRATE 1 1 0 -1 0 0.0025
      CHANMODE 0
      GUID {FF92453F-0D05-474E-8C6C-CCA150F3C721}
      <SOURCE FLAC
        FILE "drums.flac"
      >
    >
  >
  <TRACK {8E541E12-778F-4B5C-B5E7-F2B2BC690826}
    NAME guitar
    PEAKCOL 16576
    BEAT -1
    AUTOMODE 0
    VOLPAN 1 0 -1 -1 1
    MUTESOLO 0 0 0
    IPHASE 0
    PLAYOFFS 0 1
    ISBUS 0 0
    BUSCOMP 0 0 0 0 0
    SHOWINMIX 1 0.6667 0.5 1 0.5 -1 -1 -1
    FREEMODE 0
    SEL 0
    REC 0 0 1 0 0 0 0
    VU 2
    TRACKHEIGHT 0 0 0 0 0 0
    INQ 0 0 0 0.5 100 0 0 100
    NCHAN 2
    FX 1
    TRACKID {8E541E12-778F-4B5C-B5E7-F2B2BC690826}
    PERF 0
    MIDIOUT -1
    MAINSEND 1 0
    <ITEM
      POSITION 0
      SNAPOFFS 0
      LENGTH 157.79809523809524
      LOOP 1
      ALLTAKES 0
      FADEIN 1 0.01 0 1 0 0 0
      FADEOUT 1 0.01 0 1 0 0 0
      MUTE 0 0
      SEL 0
      IGUID {0CDCF0C9-EF38-4C2C-BA45-0B9D17EEB039}
      IID 9
      NAME guitar.flac
      VOLPAN 1 0 1 -1
      SOFFS 0
      PLAYRATE 1 1 0 -1 0 0.0025
      CHANMODE 0
      GUID {212743BD-05E2-4553-A0CA-6D35532882E7}
      <SOURCE FLAC
        FILE "guitar.flac"
      >
    >
  >
  <TRACK {3C4153B3-1411-4A4A-BA0F-33F86B558BBC}
    NAME rhythm
    PEAKCOL 16576
    BEAT -1
    AUTOMODE 0
    VOLPAN 1 0 -1 -1 1
    MUTESOLO 0 0 0
    IPHASE 0
    PLAYOFFS 0 1
    ISBUS 0 0
    BUSCOMP 0 0 0 0 0
    SHOWINMIX 1 0.6667 0.5 1 0.5 -1 -1 -1
    FREEMODE 0
    SEL 0
    REC 0 0 1 0 0 0 0
    VU 2
    TRACKHEIGHT 0 0 0 0 0 0
    INQ 0 0 0 0.5 100 0 0 100
    NCHAN 2
    FX 1
    TRACKID {3C4153B3-1411-4A4A-BA0F-33F86B558BBC}
    PERF 0
    MIDIOUT -1
    MAINSEND 1 0
    <ITEM
      POSITION 0
      SNAPOFFS 0
      LENGTH 157.79809523809524
      LOOP 1
      ALLTAKES 0
      FADEIN 1 0.01 0 1 0 0 0
      FADEOUT 1 0.01 0 1 0 0 0
      MUTE 0 0
      SEL 0
      IGUID {8DDE49D1-8656-4919-B156-F69E54B6DF08}
      IID 10
      NAME rhythm.flac
      VOLPAN 1 0 1 -1
      SOFFS 0
      PLAYRATE 1 1 0 -1 0 0.0025
      CHANMODE 0
      GUID {659FEE3D-0FBE-4109-A727-626ADADD667B}
      <SOURCE FLAC
        FILE "rhythm.flac"
      >
    >
  >
  <TRACK {A520BF17-0767-44B8-90FE-F42C4F048ADA}
    NAME song
    PEAKCOL 16576
    BEAT -1
    AUTOMODE 0
    VOLPAN 1 0 -1 -1 1
    MUTESOLO 0 0 0
    IPHASE 0
    PLAYOFFS 0 1
    ISBUS 0 0
    BUSCOMP 0 0 0 0 0
    SHOWINMIX 1 0.6667 0.5 1 0.5 -1 -1 -1
    FREEMODE 0
    SEL 0
    REC 0 0 1 0 0 0 0
    VU 2
    TRACKHEIGHT 0 0 0 0 0 0
    INQ 0 0 0 0.5 100 0 0 100
    NCHAN 2
    FX 1
    TRACKID {A520BF17-0767-44B8-90FE-F42C4F048ADA}
    PERF 0
    MIDIOUT -1
    MAINSEND 1 0
    <ITEM
      POSITION 0
      SNAPOFFS 0
      LENGTH 157.79809523809524
      LOOP 1
      ALLTAKES 0
      FADEIN 1 0.01 0 1 0 0 0
      FADEOUT 1 0.01 0 1 0 0 0
      MUTE 0 0
      SEL 0
      IGUID {3B7D53EC-FF3A-4FD4-BFF1-173E1AF37B3D}
      IID 11
      NAME song.flac
      VOLPAN 1 0 1 -1
      SOFFS 0
      PLAYRATE 1 1 0 -1 0 0.0025
      CHANMODE 0
      GUID {C144CEE5-C588-491F-80FE-62CE9AE1DB8F}
      <SOURCE FLAC
        FILE "song.flac"
      >
    >
  >
  <TRACK {154DA682-FC7F-4E4A-B687-D5CF3686B652}
    NAME vocals
    PEAKCOL 16576
    BEAT -1
    AUTOMODE 0
    VOLPAN 1 0 -1 -1 1
    MUTESOLO 0 0 0
    IPHASE 0
    PLAYOFFS 0 1
    ISBUS 0 0
    BUSCOMP 0 0 0 0 0
    SHOWINMIX 1 0.6667 0.5 1 0.5 -1 -1 -1
    FREEMODE 0
    SEL 0
    REC 0 0 1 0 0 0 0
    VU 2
    TRACKHEIGHT 0 0 0 0 0 0
    INQ 0 0 0 0.5 100 0 0 100
    NCHAN 2
    FX 1
    TRACKID {154DA682-FC7F-4E4A-B687-D5CF3686B652}
    PERF 0
    MIDIOUT -1
    MAINSEND 1 0
    <ITEM
      POSITION 0
      SNAPOFFS 0
      LENGTH 157.79809523809524
      LOOP 1
      ALLTAKES 0
      FADEIN 1 0.01 0 1 0 0 0
      FADEOUT 1 0.01 0 1 0 0 0
      MUTE 0 0
      SEL 0
      IGUID {6D98FCBE-E68D-4178-A2AB-2202889EADD5}
      IID 12
      NAME vocals.flac
      VOLPAN 1 0 1 -1
      SOFFS 0
      PLAYRATE 1 1 0 -1 0 0.0025
      CHANMODE 0
      GUID {7AC0DB16-0340-4391-AF8B-04659851CB0C}
      <SOURCE FLAC
        FILE "vocals.flac"
      >
    >
  >
>
